<svg width="804" height="83" viewBox="0 0 804 83" fill="none" xmlns="http://www.w3.org/2000/svg">
<rect width="83" height="83" rx="12" fill="white"/>
<rect x="13.8086" y="13.8076" width="55.3845" height="55.3845" rx="7.22407" fill="#226AFB"/>
<path d="M50.9562 40.1285C50.6637 39.8829 50.3562 39.6568 50.0356 39.4517C51.2785 37.849 51.9535 35.8563 51.9486 33.8038C51.9535 32.4575 51.6652 31.1273 51.1049 29.9114C50.5446 28.6955 49.7267 27.625 48.7115 26.7791C46.8962 25.3183 44.6265 24.5913 42.3285 24.7346H31.1094V58.2624H43.7587C46.3488 58.4268 48.9081 57.6105 50.9562 55.9666C52.1008 55.0127 53.023 53.8058 53.6547 52.4348C54.2864 51.0638 54.6114 49.564 54.6058 48.046C54.611 46.5286 54.2857 45.0293 53.6541 43.6589C53.0224 42.2885 52.1004 41.082 50.9562 40.1285ZM36.7227 30.1666H41.3018C43.8858 30.1666 44.7317 30.7355 45.2637 31.3523C45.8738 32.0292 46.2122 32.9198 46.2105 33.8442C46.2089 34.7686 45.8673 35.6579 45.2547 36.3325C44.7287 36.9492 43.8858 37.5089 41.3018 37.5089H36.7227V30.1666ZM47.5712 51.3132C46.8045 52.1042 45.6896 52.8366 42.7425 52.8366H36.7227V42.9394H42.7425C45.6881 42.9394 46.8015 43.6687 47.5622 44.4535C48.4258 45.3724 48.9096 46.6015 48.9112 47.8815C48.9129 49.1614 48.4324 50.3919 47.5712 51.3132Z" fill="white"/>
<rect x="103" width="83" height="83" rx="12" fill="white"/>
<g clip-path="url(#clip0_3302_24033)">
<path fill-rule="evenodd" clip-rule="evenodd" d="M152.741 63.4646L152.639 24.4445C152.375 24.1817 151.861 24.2611 151.659 24.3196L150.32 24.7334C150.154 24.1911 149.94 23.6651 149.679 23.1616C148.728 21.3531 147.339 20.3968 145.657 20.3942H145.652C145.539 20.3942 145.428 20.4046 145.316 20.4137L145.303 20.415C145.254 20.3553 145.204 20.2972 145.151 20.2407C144.42 19.46 143.48 19.0788 142.355 19.1113C140.184 19.1737 138.023 20.7377 136.27 23.5155C135.036 25.4711 134.099 27.9263 133.832 29.8272L129.558 31.1478C128.301 31.542 128.261 31.5811 128.096 32.7638C127.972 33.6589 124.68 59.0552 124.68 59.0552L152.268 63.8146L152.741 63.4646ZM143.702 20.8951C143.335 20.6544 142.906 20.5425 142.396 20.5529C139.046 20.6492 136.123 25.8705 135.378 29.3497L138.587 28.3582L139.161 28.1813C139.581 25.972 140.636 23.6795 142.016 22.204C142.499 21.6753 143.069 21.2327 143.701 20.8951H143.702ZM140.747 27.6908L145.354 26.2674C145.368 25.0703 145.238 23.3008 144.637 22.0518C143.997 22.3146 143.459 22.7752 143.073 23.1876C142.037 24.2975 141.192 25.9902 140.748 27.6908H140.747ZM146.797 25.8224L148.938 25.1601C148.596 24.0516 147.784 22.1936 146.137 21.8813C146.649 23.1994 146.781 24.7256 146.797 25.8224Z" fill="#95BF47"/>
<path d="M158.924 27.3473C158.759 27.3343 155.571 27.2848 155.571 27.2848C155.571 27.2848 152.903 24.7008 152.639 24.4367C152.537 24.3428 152.408 24.2836 152.27 24.2676V63.8081L164.224 60.8429C164.224 60.8429 159.345 27.9367 159.314 27.7116C159.299 27.616 159.252 27.5282 159.181 27.4622C159.11 27.3961 159.02 27.3557 158.924 27.3473Z" fill="#5E8E3E"/>
<path d="M145.644 33.4879L144.255 38.6714C144.255 38.6714 142.706 37.9676 140.869 38.0833C138.176 38.2525 138.147 39.9478 138.175 40.3733C138.321 42.6893 144.433 43.1967 144.777 48.6262C145.047 52.8977 142.506 55.8213 138.845 56.0503C134.451 56.3274 132.031 53.7408 132.031 53.7408L132.962 49.7881C132.962 49.7881 135.398 51.6213 137.346 51.4977C138.62 51.4184 139.075 50.3853 139.029 49.6541C138.837 46.6316 133.859 46.8085 133.545 41.8409C133.281 37.6579 136.032 33.4228 142.105 33.0403C144.445 32.8919 145.644 33.4892 145.644 33.4892" fill="white"/>
</g>
<rect x="206" width="83" height="83" rx="12" fill="white"/>
<g clip-path="url(#clip1_3302_24033)">
<path d="M270.59 56.9602H224.414V26.0391H270.59L260.919 41.4996L270.59 56.9602Z" fill="black"/>
</g>
<rect x="309" width="83" height="83" rx="12" fill="white"/>
<g clip-path="url(#clip2_3302_24033)">
<path fill-rule="evenodd" clip-rule="evenodd" d="M323.794 35.6007L325.998 41.7023L328.33 35.6007H331.624L325.998 49.7279H322.73L324.402 45.348L320.398 35.6007H323.794ZM358.61 35.3728C361.575 35.3728 363.754 37.6768 363.754 40.8415C363.754 44.0062 361.575 46.3101 358.61 46.3101C357.521 46.3101 356.583 46.0316 355.874 45.4493L355.823 45.4239L355.772 45.3986V49.7279H352.605V35.6007H355.418V36.664L355.443 36.6387C356.127 35.8539 357.191 35.4235 358.484 35.3982H358.56L358.61 35.3728ZM337.401 35.3728C340.67 35.3728 343.001 37.6261 343.001 40.8415C343.001 44.0315 340.67 46.3101 337.401 46.3101C334.107 46.3101 331.776 44.0315 331.776 40.8415C331.801 37.6261 334.107 35.3728 337.401 35.3728ZM348.297 33.2715V35.6007H350.907V38.335H348.297V42.1073C348.297 42.9428 348.703 43.4239 349.463 43.4492H349.488H349.513C350.02 43.4492 350.4 43.3226 350.755 42.9935L350.78 42.9681L350.856 42.8922H350.882V45.905L350.78 45.9556C350.248 46.2088 349.944 46.3101 349.032 46.3101C346.523 46.3101 345.13 44.9429 345.079 42.3858V42.3099V42.2339V38.335H343.939V35.6007H345.18V33.2715H348.297ZM370.672 35.3728C373.941 35.3728 376.272 37.6261 376.272 40.8415C376.272 44.0315 373.941 46.3101 370.672 46.3101C367.378 46.3101 365.047 44.0315 365.047 40.8415C365.072 37.6261 367.378 35.3728 370.672 35.3728ZM378.882 42.8415C379.845 42.8415 380.63 43.6264 380.63 44.5885C380.63 45.5505 379.845 46.3354 378.882 46.3354C377.919 46.3354 377.133 45.5505 377.133 44.5885C377.133 43.6264 377.919 42.8415 378.882 42.8415ZM358.129 38.2337C356.71 38.2337 355.722 39.2971 355.722 40.8415C355.722 42.4111 356.685 43.4492 358.129 43.4492C359.573 43.4492 360.561 42.3858 360.561 40.8415C360.536 39.2718 359.573 38.2337 358.129 38.2337ZM337.401 38.2337C335.957 38.2337 334.969 39.2971 334.969 40.8415C334.969 42.3858 335.957 43.4492 337.401 43.4492C338.82 43.4492 339.808 42.3858 339.808 40.8415C339.808 39.2971 338.82 38.2337 337.401 38.2337ZM370.672 38.2337C369.228 38.2337 368.239 39.2971 368.239 40.8415C368.239 42.3858 369.228 43.4492 370.672 43.4492C372.091 43.4492 373.079 42.3858 373.079 40.8415C373.079 39.2971 372.091 38.2337 370.672 38.2337Z" fill="#0042E4"/>
</g>
<rect x="412" width="83" height="83" rx="12" fill="white"/>
<g clip-path="url(#clip3_3302_24033)">
<path d="M430 25.2197C430 21.2327 433.235 18 437.22 18H469.78C473.767 18 477 21.2348 477 25.2197V57.7803C477 61.7673 473.765 65 469.78 65H437.22C433.233 65 430 61.7652 430 57.7803V25.2197Z" fill="#FCC419"/>
<path fill-rule="evenodd" clip-rule="evenodd" d="M461.556 36.7998H460.144C459.863 36.7998 459.622 36.9004 459.419 37.104C459.234 37.289 459.119 37.507 459.112 37.756C459.108 37.9082 459.087 38.7993 459.036 39.362C458.884 40.9941 458.342 42.3064 457.413 43.2998C456.492 44.2869 455.188 44.7826 453.503 44.791C451.815 44.7833 450.511 44.2876 449.588 43.2998C448.659 42.3064 448.118 40.994 447.965 39.362C447.915 38.7993 447.893 37.9081 447.889 37.7559C447.883 37.5069 447.767 37.289 447.583 37.104C447.38 36.9004 447.138 36.7998 446.857 36.7998H445.445C445.164 36.7998 444.923 36.9004 444.719 37.104C444.535 37.289 444.414 37.4721 444.414 37.7929C444.414 37.7929 444.464 39.2592 444.49 39.5518C444.719 42.1532 445.616 44.2242 447.183 45.7665C448.734 47.2948 450.83 48.0654 453.469 48.0792C453.511 48.0795 453.522 48.0798 453.532 48.0798C456.172 48.0654 458.268 47.2948 459.819 45.7665C461.385 44.2242 462.282 42.1533 462.511 39.5518C462.538 39.2592 462.587 37.793 462.587 37.793C462.587 37.4721 462.466 37.289 462.283 37.104C462.079 36.9004 461.837 36.7998 461.556 36.7998Z" fill="white"/>
</g>
<rect x="515" width="83" height="83" rx="12" fill="white"/>
<g clip-path="url(#clip4_3302_24033)">
<path d="M554.484 32.377V61.0803H530L554.484 32.377Z" fill="#03363D"/>
<path d="M554.484 22.0801C554.484 28.6394 549.011 33.953 542.255 33.953C535.499 33.953 530 28.6394 530 22.0801H554.484Z" fill="#03363D"/>
<path d="M558.516 61.0799C558.516 54.5206 563.988 49.207 570.744 49.207C577.5 49.207 582.973 54.5206 582.973 61.0799H558.516Z" fill="#03363D"/>
<path d="M558.516 50.7835V22.0801H582.999L558.516 50.7835Z" fill="#03363D"/>
</g>
<rect x="618" width="83" height="83" rx="12" fill="white"/>
<rect x="631.609" y="13.6074" width="55.7848" height="55.7848" rx="7.18179" fill="url(#paint0_linear_3302_24033)"/>
<path d="M670.065 55.6399C671.873 55.2477 672.816 53.0509 672.816 53.0509C671.401 55.3261 669.044 54.7769 668.337 54.6985C667.63 54.3847 666.844 53.9924 665.822 53.757C665.194 53.6001 664.722 53.3648 664.172 53.1294C666.372 48.9713 668.808 48.4222 669.515 47.7945C669.673 47.7161 669.751 47.6376 669.751 47.4807C669.751 47.2454 669.594 47.0885 669.437 47.0885C669.358 47.0885 669.28 47.0885 669.201 47.1669H669.123C666.451 48.5006 664.801 51.4819 664.015 53.0509C661.972 52.1095 660.557 50.7758 659.536 49.4421C660.322 48.5006 661.972 46.8531 664.408 46.3039C665.979 45.9117 667.001 46.3039 667.001 46.3039C667.079 46.3824 667.079 46.3824 667.158 46.3824C667.315 46.3824 667.394 46.2255 667.394 46.0686C667.394 45.9117 667.315 45.8332 667.158 45.8332C666.922 45.7547 665.744 45.5194 664.251 45.8332C664.251 45.8332 661.579 46.3824 659.536 49.3636C657.807 47.0885 657.493 44.8133 657.493 44.8133C657.493 45.284 658.121 54.62 665.665 55.7968C671.951 56.7383 672.501 59.798 672.501 60.8179C672.58 59.8764 672.737 57.6013 670.065 55.6399Z" fill="#FFFFFA"/>
<path d="M648.692 42.3812C648.692 42.3812 654.585 44.6564 656.628 49.599C657.178 50.9327 656.864 48.9713 655.685 45.9117C654.9 43.9503 653.721 42.5381 653.721 42.5381C653.721 42.5381 651.364 39.3215 647.513 37.8309C642.877 35.948 642.484 29.6717 643.663 26.4551C644.763 23.6308 645.942 22.454 645.942 22.454C643.899 23.3954 641.227 27.2396 641.227 31.3977C641.227 31.3977 641.07 39.7138 648.692 42.3812Z" fill="#FFFFFA"/>
<path d="M663.077 32.9825C663.075 32.9772 663.074 32.972 663.072 32.9668C663.078 32.9668 663.079 32.9721 663.077 32.9825C663.383 33.9955 663.072 34.8497 663.072 34.8497C665.194 35.5557 666.687 37.2817 666.687 37.2817C666.451 37.2817 666.372 37.2033 665.586 36.9679C665.586 36.9679 664.329 36.4972 663.543 36.5757H663.15C662.915 36.811 662.443 37.1248 661.736 37.1248C660.322 37.1248 659.3 36.3403 659.3 36.3403L659.536 36.2618C659.772 36.1834 660.479 35.6342 661.186 35.0066C662.352 34.0606 663.045 33.1147 663.077 32.9825Z" fill="#FFFFFA"/>
<path d="M677.688 39.7923C677.766 40.1061 677.845 40.8122 677.688 42.6166C677.538 43.8094 677.247 44.5772 676.005 48.8245C675.919 49.2052 675.845 49.5055 675.802 49.6774C675.802 49.6774 675.781 49.7129 675.708 49.7709C675.616 49.8618 675.364 50.0922 674.623 50.462C674.073 50.6973 672.03 51.4819 670.223 51.325C667.787 51.1681 667.237 51.4819 667.237 51.4819C667.237 51.4819 667.394 49.4421 670.38 50.2266C671.401 50.462 673.052 50.5404 673.994 50.3835C675.094 50.164 675.539 49.9061 675.708 49.7709C675.714 49.7654 675.719 49.7604 675.723 49.7559C675.723 49.6774 675.802 49.599 675.802 49.5205C675.872 49.2786 675.94 49.0468 676.005 48.8245C676.387 47.1211 676.987 43.807 675.959 43.1658C675.645 42.9304 675.487 42.7735 675.173 42.9304C675.173 42.9304 674.152 43.1658 673.523 41.5182C673.13 40.8122 673.759 40.6552 673.759 40.6552C673.759 40.6552 674.387 40.1845 675.173 40.6552C675.173 40.6552 675.645 39.5569 677.216 39.6353C677.216 39.6353 677.452 39.6353 677.531 39.7138C676.588 37.1248 667.708 33.6729 667.708 33.6729C664.408 32.4176 663.465 30.2209 661.186 28.1811C659.661 26.8658 657.523 25.9781 656.178 25.5719C656.017 25.5262 655.852 25.4806 655.685 25.4352C655.833 25.4721 655.999 25.5177 656.178 25.5719C659.365 26.4727 661.5 27.3966 661.5 27.3966C663.936 28.338 666.294 32.1038 668.494 33.2021C669.987 33.9082 676.98 36.9679 677.688 39.7923Z" fill="#FFFFFA"/>
<path d="M655.583 25.3181C655.435 25.2752 655.246 25.2628 655.057 25.1998C655.057 25.1998 655.252 25.1998 655.583 25.3181C655.62 25.3287 655.654 25.3412 655.685 25.3568C655.65 25.3427 655.616 25.3298 655.583 25.3181Z" fill="#FFFFFA"/>
<path d="M645.784 32.653C645.784 32.653 646.177 36.6541 651.442 37.9094C654.192 38.6154 655.057 41.0475 655.371 41.989C655.371 41.989 654.9 38.8508 652.699 36.811C652.699 36.811 650.814 34.6143 651.599 32.0253C652.149 30.2209 652.307 29.5148 651.756 28.0242C651.285 26.7689 650.028 25.1214 649.713 24.7291C649.32 24.2584 650.263 25.2783 650.421 26.6905C650.578 27.9457 649.635 29.4364 649.006 30.927C648.063 33.1237 648.928 34.6143 650.028 35.5557C648.849 35.3988 647.827 35.3988 645.784 32.653Z" fill="#FFFFFA"/>
<path d="M647.042 21.9048C648.299 21.9048 650.185 22.2971 652.542 25.749C654.271 28.2595 653.485 31.0839 653.485 31.0839C653.485 31.0839 654.9 28.1811 654.114 25.9059C652.385 21.1987 647.042 21.9048 647.042 21.9048Z" fill="#FFFFFA"/>
<path d="M657.414 56.2676C656.314 49.2067 650.735 45.2056 649.556 45.7547C649.242 45.9116 649.242 46.2255 649.242 46.2255C649.242 46.2255 648.928 47.873 653.014 49.9912C656.235 51.6388 657.178 54.7769 657.414 56.2676Z" fill="#FFFFFA"/>
<path d="M657.493 57.0521C657.493 57.0521 657.493 56.8952 657.414 56.5814C657.493 56.7383 657.493 56.8952 657.493 57.0521Z" fill="#FFFFFA"/>
<rect x="721" width="83" height="83" rx="12" fill="white"/>
<path fill-rule="evenodd" clip-rule="evenodd" d="M752.289 34.4982L758.032 16.8232L763.318 16.8233L757.575 34.4982H752.289Z" fill="#FF672E"/>
<path fill-rule="evenodd" clip-rule="evenodd" d="M752.402 50.4498L737.367 39.526L739.001 34.499L754.036 45.4227L752.402 50.4498Z" fill="#FFD600"/>
<path fill-rule="evenodd" clip-rule="evenodd" d="M767.561 55.2534L752.526 66.1771L748.25 63.0702L763.285 52.1465L767.561 55.2534Z" fill="#FFB800"/>
<path fill-rule="evenodd" clip-rule="evenodd" d="M776.839 42.2871L782.582 59.9621L778.305 63.0689L772.562 45.394L776.839 42.2871Z" fill="#FFAA05"/>
<path fill-rule="evenodd" clip-rule="evenodd" d="M767.414 29.4707H785.999L787.632 34.4978H769.047L767.414 29.4707Z" fill="#FF883B"/>
<defs>
<linearGradient id="paint0_linear_3302_24033" x1="631.609" y1="13.6074" x2="687.394" y2="69.3922" gradientUnits="userSpaceOnUse">
<stop stop-color="#592E87"/>
<stop offset="0.783174" stop-color="#7358B9"/>
</linearGradient>
<clipPath id="clip0_3302_24033">
<rect width="40.4788" height="45.5386" fill="white" transform="translate(124.258 18.7305)"/>
</clipPath>
<clipPath id="clip1_3302_24033">
<rect width="46.1755" height="30.9211" fill="white" transform="translate(224.414 26.0391)"/>
</clipPath>
<clipPath id="clip2_3302_24033">
<rect width="60.2065" height="16.4565" fill="white" transform="translate(320.398 33.2715)"/>
</clipPath>
<clipPath id="clip3_3302_24033">
<rect width="47" height="47" fill="white" transform="translate(430 18)"/>
</clipPath>
<clipPath id="clip4_3302_24033">
<rect width="53" height="39" fill="white" transform="translate(530 22.0801)"/>
</clipPath>
</defs>
</svg>
