<svg width="139" height="51" viewBox="0 0 139 51" fill="none" xmlns="http://www.w3.org/2000/svg">
<g clip-path="url(#clip0_3499_5502)">
<path d="M35.5735 13.3999H25.8633V36.6223L35.5735 13.3999Z" fill="#D6E4E2"/>
<path d="M42.4062 13.3999H52.1039V36.6223L42.4062 13.3999Z" fill="#D6E4E2"/>
<path d="M38.9869 21.959L45.1673 36.6224H41.1124L39.2652 31.9539H34.7422L38.9869 21.959Z" fill="#D6E4E2"/>
<path d="M67.9461 28.1674L69.0911 31.4506C69.129 31.5328 69.186 31.5708 69.2872 31.5708H71.4886C71.6088 31.5708 71.6278 31.5138 71.6088 31.3937L67.0605 18.7608C67.0415 18.6596 67.0225 18.6406 66.9213 18.6406H64.1885C64.1126 18.6406 64.0683 18.6976 64.0683 18.7798C64.0304 19.444 63.9734 19.6464 63.8912 19.8425L59.8363 31.3747C59.8173 31.5138 59.8616 31.5708 59.9755 31.5708H61.9428C62.063 31.5708 62.1199 31.5328 62.1642 31.4126L63.2459 28.1674H67.9461ZM63.8722 26.023C64.4668 24.2264 65.2513 21.9238 65.5676 20.608H65.5865C65.9787 21.987 66.9023 24.7198 67.3198 26.023H63.8722Z" fill="#D6E4E2"/>
<path d="M77.4534 31.7671C78.6363 31.7671 79.8952 31.552 81.173 31.0016C81.2742 30.9637 81.2932 30.9194 81.2932 30.8245C81.2553 30.4703 81.211 29.9579 81.211 29.5657V17.6729C81.211 17.597 81.211 17.5591 81.1161 17.5591H78.9716C78.8894 17.5591 78.8514 17.597 78.8514 17.6983V21.7279C78.5161 21.6899 78.2821 21.6709 78.0037 21.6709C74.5435 21.6709 72.418 23.9546 72.418 26.8076C72.418 30.116 74.6004 31.7671 77.4534 31.7671ZM78.8514 29.5657C78.4972 29.6795 78.105 29.7238 77.7064 29.7238C76.1376 29.7238 74.8534 28.8382 74.8534 26.6874C74.8534 24.7833 76.1756 23.6573 77.9278 23.6573C78.2821 23.6573 78.5921 23.6952 78.8514 23.7964V29.5657Z" fill="#D6E4E2"/>
<path d="M88.1379 21.6709C85.1837 21.6709 83.3555 23.9356 83.3555 26.7316C83.3555 29.2304 84.8104 31.767 88.0936 31.767C90.8706 31.767 92.819 29.7238 92.819 26.6684C92.819 23.9735 91.168 21.6709 88.1379 21.6709ZM88.0177 23.6572C89.6877 23.6572 90.3962 25.0932 90.3962 26.7316C90.3962 28.7559 89.3524 29.7617 88.1379 29.7617C86.6386 29.7617 85.753 28.5029 85.753 26.6873C85.753 24.8212 86.6955 23.6572 88.0177 23.6572Z" fill="#D6E4E2"/>
<path d="M95.0376 17.5591C94.9554 17.5591 94.8984 17.597 94.8984 17.6983V31.1598C94.8984 31.2167 94.9554 31.3179 95.0376 31.3369C95.9802 31.6279 96.967 31.7671 97.9855 31.7671C100.902 31.7671 103.736 29.9579 103.736 26.3141C103.736 23.6762 101.927 21.6709 99.0925 21.6709C98.4409 21.6709 97.8337 21.7721 97.3023 21.9493L97.277 17.7172C97.277 17.5781 97.239 17.5591 97.0999 17.5591H95.0376ZM101.313 26.5545C101.313 28.737 99.82 29.7618 98.2069 29.7618C97.8716 29.7618 97.5743 29.7428 97.3023 29.6605V23.9166C97.6123 23.7964 97.9855 23.6952 98.675 23.6952C100.231 23.6952 101.313 24.6821 101.313 26.5545Z" fill="#D6E4E2"/>
<path d="M111.735 27.263C112.697 27.263 113.488 27.244 113.76 27.1808C113.861 27.1618 113.899 27.1238 113.918 27.0416C113.975 26.8265 114 26.3774 114 25.827C114 23.9546 112.874 21.6709 109.964 21.6709C106.991 21.6709 105.34 24.0937 105.34 26.8265C105.34 29.2493 106.618 31.767 110.198 31.767C111.539 31.767 112.406 31.552 113.152 31.1977C113.228 31.1598 113.266 31.0965 113.266 30.9826V29.3442C113.266 29.2493 113.209 29.2304 113.152 29.2683C112.406 29.5846 111.596 29.7428 110.711 29.7428C108.705 29.7428 107.794 28.6357 107.737 27.263H111.735ZM107.737 25.5677C107.896 24.6061 108.503 23.5623 109.863 23.5623C111.362 23.5623 111.754 24.8212 111.754 25.3905C111.754 25.4095 111.754 25.4917 111.754 25.5487C111.672 25.5677 111.419 25.5677 110.673 25.5677H107.737Z" fill="#D6E4E2"/>
</g>
<defs>
<clipPath id="clip0_3499_5502">
<rect width="88.1367" height="23.2392" fill="white" transform="translate(25.8633 13.3916)"/>
</clipPath>
</defs>
</svg>
