<svg width="139" height="51" viewBox="0 0 139 51" fill="none" xmlns="http://www.w3.org/2000/svg">
<g clip-path="url(#clip0_3499_5498)">
<path d="M114.707 21.7991C114.707 21.4462 114.462 21.2109 114.059 21.2109L113.266 21.2256L113.281 23.0196H113.713V22.402H113.972L114.347 23.0196H114.851L114.405 22.3285C114.497 22.2761 114.574 22.1994 114.627 22.1062C114.68 22.013 114.708 21.9069 114.707 21.7991ZM113.972 22.0344H113.699V21.5785H114.016C114.073 21.5721 114.13 21.5884 114.176 21.624C114.221 21.6596 114.252 21.7118 114.261 21.7697V21.7844C114.26 21.8207 114.251 21.8565 114.235 21.8892C114.22 21.922 114.198 21.9511 114.171 21.9746C114.144 21.9982 114.112 22.0156 114.078 22.026C114.044 22.0362 114.008 22.0391 113.972 22.0344ZM50.055 30.0924C49.3201 30.0924 48.8159 29.5042 48.8159 28.6366V24.6811H51.8417V21.8873H48.8231L48.7943 18.6818H45.4514L45.4803 29.3572C45.4803 31.5187 46.8923 32.9891 48.9672 32.9891C50.0622 32.9891 51.0997 32.8274 51.921 32.4451V29.7247C51.3377 30.001 50.6971 30.1272 50.055 30.0924ZM58.0375 21.7109C54.9252 21.7109 52.5333 24.1812 52.5333 27.4603C52.5333 30.7099 54.9252 32.9744 58.2248 32.9744C60.0836 32.9744 61.827 32.298 62.8933 30.9011L60.3285 29.71C59.8098 30.1953 59.0173 30.3865 58.3113 30.3865C57.1586 30.3865 56.0059 29.7836 55.8473 28.5484H63.4984C63.6134 28.1071 63.6715 27.6523 63.6713 27.1956C63.6713 23.8283 61.2651 21.7109 58.0447 21.7109H58.0375ZM55.8473 26.3869C55.9482 24.9164 56.9856 24.24 58.124 24.24C59.4063 24.24 60.3717 24.9752 60.3717 26.2398V26.3869H55.8473ZM42.2743 30.0924C41.5394 30.0924 41.0351 29.5042 41.0351 28.6366V24.6811H44.0609V21.8873H41.0423L41.0135 18.6818H37.6707L37.6995 29.3572C37.6995 31.5187 39.1115 32.9891 41.1864 32.9891C42.2815 32.9891 43.3189 32.8274 44.1402 32.4451V29.7247C43.5574 30.0023 42.9164 30.1286 42.2743 30.0924ZM30.5311 21.7109C27.6638 21.7109 24.6523 23.6372 24.6523 27.5191C24.6523 30.7541 26.7848 33.0185 29.4793 33.0185C31.021 33.0185 32.1881 32.3862 32.9518 31.2687L33.0527 32.8274H36.2874V27.6514C36.2874 23.7107 33.4417 21.7109 30.5311 21.7109ZM30.5311 30.0335C29.0758 30.0335 28.024 28.9307 28.024 27.3721C28.024 25.8134 29.0614 24.7106 30.5311 24.7106C31.8855 24.7106 33.0095 25.9163 33.0095 27.3721C33.0095 28.8278 31.8855 30.0335 30.5311 30.0335ZM113.9 20.4022C112.849 20.4169 112.171 21.108 112.186 22.1373C112.2 23.1666 112.892 23.843 113.944 23.8283C114.967 23.8136 115.658 23.1225 115.644 22.0785C115.629 21.0345 114.938 20.3875 113.9 20.4022ZM113.944 23.5342C113.122 23.5489 112.56 22.9901 112.56 22.1373C112.56 21.2844 113.094 20.711 113.915 20.6963C114.736 20.6816 115.284 21.2403 115.298 22.1079C115.298 22.9461 114.75 23.5195 113.951 23.5342H113.944ZM97.5609 21.902L95.2263 28.8131L92.8636 21.902H89.2323L93.5839 32.8127H96.8406L101.192 21.902H97.5609ZM106.22 21.7109C103.108 21.7109 100.716 24.1812 100.716 27.4603C100.716 30.7099 103.108 32.9744 106.408 32.9744C108.267 32.9744 110.01 32.298 111.076 30.9011L108.512 29.71C107.993 30.1953 107.2 30.3865 106.494 30.3865C105.341 30.3865 104.189 29.7836 104.03 28.5484H111.681C111.796 28.1071 111.855 27.6523 111.855 27.1956C111.855 23.8283 109.448 21.7109 106.22 21.7109ZM108.555 26.3869H104.03C104.131 24.9164 105.169 24.24 106.307 24.24C107.589 24.24 108.555 24.9752 108.555 26.2398V26.3869ZM86.6531 17.1084C85.4717 17.1084 84.5783 17.9171 84.5783 19.0494C84.5783 20.1816 85.4717 21.0198 86.6531 21.0198C87.8349 21.0198 88.7284 20.1963 88.7284 19.0494C88.7284 17.9024 87.8492 17.1084 86.6531 17.1084ZM71.4809 21.6962C70.8053 21.685 70.1384 21.8525 69.545 22.1823C68.9517 22.5122 68.4521 22.9931 68.0948 23.5783L67.9796 21.902H64.752V32.8127H68.0948V27.0927C68.1669 25.7252 69.2475 24.6811 70.429 24.6811C71.7547 24.6811 72.3598 25.6958 72.3598 26.975V32.798H75.6881V26.4457C75.6881 23.6812 74.0383 21.6962 71.4809 21.6962ZM81.6821 30.0924C80.9475 30.0924 80.4431 29.5042 80.4431 28.6366V24.6811H83.469V21.8873H80.4431L80.4145 18.6818H77.0716L77.1002 29.3572C77.1002 31.5187 78.5123 32.9891 80.5871 32.9891C81.6821 32.9891 82.7195 32.8274 83.5409 32.4451V29.7247C82.9606 30.0011 82.3221 30.1274 81.6821 30.0924ZM84.9674 21.902V32.8127H88.3393V21.902C87.8394 22.2401 87.2531 22.4203 86.6531 22.4203C86.0535 22.4203 85.4673 22.2401 84.9674 21.902Z" fill="#D6E4E2"/>
</g>
<defs>
<clipPath id="clip0_3499_5498">
<rect width="91.7079" height="16.1014" fill="white" transform="translate(24.293 16.9824)"/>
</clipPath>
</defs>
</svg>
