<svg width="549" height="95" viewBox="0 0 549 95" fill="none" xmlns="http://www.w3.org/2000/svg">
<path d="M205.685 54.4951C205.661 55.4382 205.499 56.3459 205.561 57.2382C205.556 62.349 205.601 67.5459 205.596 72.6567C205.607 73.4628 205.618 74.269 205.543 75.1259C205.428 76.7029 204.769 77.5553 203.157 77.5771C201.012 77.6806 198.766 77.6118 196.52 77.543C195.354 77.534 194.674 76.7741 194.597 75.6587C194.55 74.9895 194.504 74.3203 194.509 73.7372C194.507 56.2095 194.505 38.6818 194.366 21.1188C194.316 21.0326 194.351 20.8957 194.437 20.8449C194.535 17.0726 194.829 16.7833 198.55 16.7949C206.08 16.7673 213.609 16.7398 221.103 16.8492C224.91 16.81 228.298 17.8309 231.297 20.358C234.159 22.8498 235.283 26.1342 235.479 29.6173C235.706 33.5464 235.573 37.4557 235.49 41.4511C235.399 46.6127 231.612 52.7918 224.865 53.7515C224.419 53.7824 223.988 54.0363 223.506 54.2041C224.878 56.53 226.163 58.9067 227.569 61.0957C230.332 65.3874 233.231 69.7146 235.993 74.0064C237.298 76.0231 236.549 77.5094 234.268 77.5775C231.9 77.6964 229.466 77.5061 227.099 77.625C225.932 77.616 225.232 77.2161 224.588 76.3193C223.892 75.3363 223.11 74.4042 222.501 73.3704C219.078 67.9588 215.605 62.461 212.182 57.0493C210.029 53.7912 210.029 53.7912 205.685 54.4951ZM205.512 43.569C206.075 43.9335 206.263 44.055 206.4 44.0904C210.928 44.0911 215.42 44.2287 219.897 44.1432C222.625 44.0443 224.2 42.187 224.461 39.4793C224.631 37.4054 224.528 35.2608 224.561 33.1516C224.46 28.4516 223.014 26.9827 218.212 26.9112C214.714 26.8842 211.215 26.8572 207.768 26.9163C207.184 26.9118 206.48 27.095 205.638 27.2428C205.527 32.7644 205.502 38.2352 205.512 43.569Z" fill="black"/>
<path d="M119.89 53.9706C121.027 55.8113 122.065 57.3869 123.103 58.9625C126.168 63.5567 129.233 68.1509 132.207 72.7035C132.487 73.0519 132.726 73.4913 133.006 73.8397C133.779 75.5138 133.112 76.9684 131.415 77.0709C128.692 77.253 125.87 77.17 123.181 77.0377C121.658 77 121.075 75.6327 120.457 74.5798C117.483 70.0272 114.6 65.5163 111.668 60.8728C110.202 58.5511 108.603 56.2786 106.948 53.6501C105.607 53.6957 104.042 53.7489 102.346 53.8514C102.327 57.2528 102.293 60.2072 102.35 63.2034C102.339 66.8283 102.419 70.4948 102.367 74.2106C102.318 76.7181 101.928 77.0894 99.4695 77.173C97.8142 77.1845 96.1589 77.1961 94.5037 77.2076C91.8636 77.2079 91.3522 76.6436 91.3026 73.871C91.2531 71.0983 91.2944 68.3673 91.2449 65.5947C91.2166 50.2921 91.1884 34.9895 91.0692 19.6453C91.0613 16.7817 91.584 16.3612 94.4475 16.3533C101.739 16.2843 108.898 16.2646 116.189 16.1956C119.053 16.1877 121.833 16.3616 124.47 17.5696C128.197 19.2774 130.44 22.065 131.554 25.8754C131.709 26.4965 131.955 27.1594 131.929 27.6972C131.963 32.663 132.222 37.6212 131.76 42.4696C131.23 47.9467 127.719 51.2879 122.493 52.8529C121.705 53.3719 120.951 53.5765 119.89 53.9706ZM102.094 43.8365C107.284 43.7943 112.075 43.8998 116.852 43.5583C119.575 43.3762 120.987 41.4935 121.071 38.6716C121.135 36.6111 121.108 34.5089 121.081 32.4067C120.978 28.0697 119.353 26.3351 115.058 26.3469C111.566 26.2867 108.123 26.3591 104.589 26.3898C103.827 26.3709 103.073 26.5755 102.005 26.7461C102.063 32.3823 102.071 37.8859 102.094 43.8365Z" fill="black"/>
<path d="M449.033 77.2629C448.962 75.5527 448.776 74.0343 448.782 72.6308C448.911 65.6205 449.033 58.71 449.062 51.6923C449.134 41.4685 449.198 31.3445 449.27 21.1207C449.26 19.9166 449.451 18.7276 449.564 17.2318C450.683 17.0157 451.703 16.792 452.708 16.7678C460.331 16.7429 467.948 16.8178 475.556 16.9923C477.757 17.0586 479.943 17.3243 482.099 17.9889C487.202 19.4781 490.45 22.933 491.668 28.0395C492.2 30.2861 492.426 32.6097 492.359 34.811C492.377 42.5343 492.394 50.2576 492.212 57.9658C492.193 60.8727 492.166 63.8792 491.349 66.7257C489.409 73.7995 484.521 77.441 476.982 77.6729C472.257 77.8168 467.448 77.7538 462.639 77.6908C459.234 77.6337 455.829 77.5766 452.423 77.5195C451.526 77.4516 450.529 77.3761 449.033 77.2629ZM460.48 67.7996C465.702 67.6934 470.91 67.7866 476.141 67.5806C477.245 67.5639 478.525 66.5576 479.39 65.7205C480.907 64.2307 481.165 62.1443 481.124 60.0352C481.171 54.1218 481.309 48.3157 481.355 42.4023C481.375 39.4955 481.501 36.4965 481.321 33.5746C480.955 29.1343 478.706 27.0587 474.104 26.911C470.299 26.8237 466.587 26.8437 462.783 26.7564C462.085 26.7036 461.364 26.9499 460.758 27.0044C459.949 29.7511 459.602 64.8249 460.48 67.7996Z" fill="black"/>
<path d="M184.5 76.5C183.956 77.1278 183.023 77.0215 182.224 77.0638C180.526 77.1534 178.923 77.138 177.22 77.1278C174.519 77.1704 173.983 76.4978 174.045 73.8908C174.091 69.0817 174.043 64.3777 174.09 59.5686C174.042 58.6698 173.995 57.7711 173.931 56.5727C171.319 56.4103 169.012 56.3319 166.604 56.2588C163.498 56.2227 160.392 56.1865 157.191 56.2555C154.59 56.2928 154.111 56.7186 154.149 59.3203C154.202 64.1241 154.25 68.8281 154.304 73.632C154.368 76.733 153.989 77.1535 150.878 77.0175C149.375 76.9968 147.977 77.0706 146.473 77.0499C143.972 77.0819 143.451 76.7089 143.424 74.3069C143.334 68.8041 143.343 63.2959 143.253 57.793C143.289 56.5894 143.426 55.3805 143.363 54.1822C143.324 45.8726 143.28 37.4632 143.242 29.1537C143.263 27.6505 143.478 26.0369 143.898 24.5126C145.353 19.8293 148.616 17.1534 153.494 16.5953C155.98 16.2637 158.487 16.3315 160.889 16.3048C164.189 16.2305 167.495 16.2561 170.801 16.2818C172.504 16.2919 174.312 16.3967 176.036 16.8063C181.403 17.9247 184.725 22.0552 184.937 27.9522C185.163 32.2463 184.991 36.5614 185.018 40.8659C185.071 43.7672 185.03 46.7735 185.083 49.6748C185.021 57.9896 184.965 66.4043 184.904 74.7191C184.93 75.2184 184.821 76.1299 184.5 76.5ZM154.651 46.0753C155.654 46.1224 156.464 46.28 157.263 46.2378C162.072 46.2841 166.781 46.3357 171.59 46.382C173.493 46.3817 173.976 46.0557 174.081 44.2477C174.233 39.5331 174.279 34.7239 174.225 29.9201C174.199 27.5181 172.627 26.1992 170.02 26.1367C166.209 26.0376 162.304 26.0436 158.504 26.1443C155.603 26.1974 154.479 27.6588 154.432 30.5653C154.375 33.2721 154.323 36.0787 154.365 38.7802C154.292 41.1874 154.513 43.479 154.651 46.0753Z" fill="black"/>
<path d="M346.126 35.2053C345.136 35.3509 344.261 35.5808 343.356 35.6129C341.546 35.6771 339.637 35.7558 337.812 35.7211C336.186 35.6572 335.476 34.9531 335.441 33.341C335.368 32.8464 335.507 32.4215 335.435 31.9268C335.309 29.0141 333.179 26.9017 330.237 26.8292C327.097 26.7859 323.958 26.7425 320.832 26.7981C317.806 26.8391 316.031 28.5154 315.746 31.3875C315.514 33.2411 315.479 35.0656 315.543 36.8755C315.628 40.1986 317.304 41.9735 320.671 42.1856C324.334 42.354 327.954 42.2256 331.702 42.2805C334.135 42.3269 336.498 42.5856 338.666 43.5806C342.463 45.3466 344.922 48.3202 345.732 52.4464C346.57 56.7704 346.617 61.2108 346.056 65.6397C345.195 72.8417 340.278 77.2041 333.137 77.4463C328.103 77.5806 323.069 77.715 317.977 77.4536C309.221 77.0237 304.786 71.6118 304.581 63.3535C304.421 58.8287 304.619 58.7996 309.074 58.8515C310.488 58.8456 311.803 58.8542 313.217 58.8482C314.844 58.9121 315.441 59.5318 315.589 61.2283C315.618 61.4262 315.548 61.6386 315.563 61.7375C315.508 65.4854 317.624 67.4989 321.273 67.5684C323.903 67.5856 326.633 67.5882 329.263 67.6055C333.491 67.4887 335.42 65.4865 335.402 61.2439C335.356 60.24 335.408 59.2215 335.361 58.2176C335.373 54.1729 333.341 52.046 329.297 52.0347C326.355 51.9622 323.457 52.1866 320.515 52.1141C318.492 52.1085 316.455 52.0039 314.558 51.4745C309.207 50.1393 306.067 46.6594 305.068 41.2471C304.328 36.9086 304.38 32.4535 304.843 28.0392C305.442 22.4929 309.553 18.1481 315.079 17.2339C317.354 16.899 319.659 16.762 321.978 16.724C325.81 16.6654 329.741 16.5923 333.504 16.7462C339.12 17.1327 343.232 19.661 345.249 25.1255C346.451 28.4863 346.591 31.498 346.126 35.2053Z" fill="black"/>
<path d="M542.126 35.2053C541.136 35.3509 540.261 35.5808 539.356 35.6129C537.546 35.6771 535.637 35.7558 533.812 35.7211C532.186 35.6572 531.476 34.9531 531.441 33.341C531.368 32.8464 531.507 32.4215 531.435 31.9268C531.309 29.0141 529.179 26.9017 526.237 26.8292C523.097 26.7859 519.958 26.7425 516.832 26.7981C513.806 26.8391 512.031 28.5154 511.746 31.3875C511.514 33.2411 511.479 35.0656 511.543 36.8755C511.628 40.1986 513.304 41.9735 516.671 42.1856C520.334 42.354 523.954 42.2256 527.702 42.2805C530.135 42.3269 532.498 42.5856 534.666 43.5806C538.463 45.3466 540.922 48.3202 541.732 52.4464C542.57 56.7704 542.617 61.2108 542.056 65.6397C541.195 72.8417 536.278 77.2041 529.137 77.4463C524.103 77.5806 519.069 77.715 513.977 77.4536C505.221 77.0237 500.786 71.6118 500.581 63.3535C500.421 58.8287 500.619 58.7996 505.074 58.8515C506.488 58.8456 507.803 58.8542 509.217 58.8482C510.844 58.9121 511.441 59.5318 511.589 61.2283C511.618 61.4262 511.548 61.6386 511.563 61.7375C511.508 65.4854 513.624 67.4989 517.273 67.5684C519.903 67.5856 522.633 67.5882 525.263 67.6055C529.491 67.4887 531.42 65.4865 531.402 61.2439C531.356 60.24 531.408 59.2215 531.361 58.2176C531.373 54.1729 529.341 52.046 525.297 52.0347C522.355 51.9622 519.457 52.1866 516.515 52.1141C514.492 52.1085 512.455 52.0039 510.558 51.4745C505.207 50.1393 502.067 46.6594 501.068 41.2471C500.328 36.9086 500.38 32.4535 500.843 28.0392C501.442 22.4929 505.553 18.1481 511.079 17.2339C513.354 16.899 515.659 16.762 517.978 16.724C521.81 16.6654 525.741 16.5923 529.504 16.7462C535.12 17.1327 539.232 19.661 541.249 25.1255C542.451 28.4863 542.591 31.498 542.126 35.2053Z" fill="black"/>
<path d="M282.029 16.7778C283.027 16.8351 282.739 22.5195 282.567 25.8766C281.972 26.4216 279.907 26.2824 278.742 26.2346C272.39 26.2487 266.039 26.2627 259.771 26.3317C258.69 26.3388 257.637 26.4844 256.14 26.5775C256.173 31.6251 256.149 36.3958 256.127 41.527C257.099 41.6871 257.932 41.8757 258.653 41.871C263.424 41.8951 268.249 41.8356 273.02 41.8597C273.658 41.8 274.324 41.8788 274.906 41.9027C276.821 42.0843 277.213 42.581 277.337 44.5771C277.43 46.0742 277.44 47.5164 277.311 48.9872C277.241 51.0956 276.828 51.5421 274.694 51.6948C271.532 51.7711 268.287 51.7924 265.042 51.8138C262.879 51.828 260.854 51.8136 258.691 51.8278C257.831 51.8612 257.139 52.0044 256.002 52.0951C255.981 57.2264 256.124 62.1069 256.157 67.1546C257.184 67.231 257.933 67.3648 258.654 67.36C265.144 67.3173 271.718 67.3295 278.208 67.2868C279.067 67.2535 279.872 67.3036 280.677 67.3538C281.98 67.373 282.79 68.1442 282.77 69.4479C282.813 71.7497 282.775 73.7241 282.682 76.4151C282.613 77.6067 278.995 77.3774 277.331 77.3606C267.735 77.396 258.055 77.3765 248.458 77.4119C245.574 77.4309 245.044 76.9629 245.025 74.0785C244.961 55.9676 244.843 37.9402 244.779 19.8292C244.76 16.9449 245.202 16.6369 247.948 16.6465C258.404 16.5777 268.859 16.509 279.344 16.5787C280.534 16.6475 281.141 16.6727 282.029 16.7778Z" fill="black"/>
<path d="M393.029 16.7778C394.027 16.8351 393.739 22.5195 393.567 25.8766C392.972 26.4216 390.907 26.2824 389.742 26.2346C383.39 26.2487 377.039 26.2627 370.771 26.3317C369.69 26.3388 368.637 26.4844 367.14 26.5775C367.173 31.6251 367.149 36.3958 367.127 41.527C368.099 41.6871 368.932 41.8757 369.653 41.871C374.424 41.8951 379.249 41.8356 384.02 41.8597C384.658 41.8 385.324 41.8788 385.906 41.9027C387.821 42.0843 388.213 42.581 388.337 44.5771C388.43 46.0742 388.44 47.5164 388.311 48.9872C388.241 51.0956 387.828 51.5421 385.694 51.6948C382.532 51.7711 379.287 51.7924 376.042 51.8138C373.879 51.828 371.854 51.8136 369.691 51.8278C368.831 51.8612 368.139 52.0044 367.002 52.0951C366.981 57.2264 367.124 62.1069 367.157 67.1546C368.184 67.231 368.933 67.3648 369.654 67.36C376.144 67.3173 382.718 67.3295 389.208 67.2868C390.067 67.2535 390.872 67.3036 391.677 67.3538C392.98 67.373 393.79 68.1442 393.77 69.4479C393.813 71.7497 393.775 73.7241 393.682 76.4151C393.613 77.6067 389.995 77.3774 388.331 77.3606C378.735 77.396 369.055 77.3765 359.458 77.4119C356.574 77.4309 356.044 76.9629 356.025 74.0785C355.961 55.9676 355.843 37.9402 355.779 19.8292C355.76 16.9449 356.202 16.6369 358.948 16.6465C369.404 16.5777 379.859 16.509 390.344 16.5787C391.534 16.6475 392.141 16.6727 393.029 16.7778Z" fill="black"/>
<path d="M439.029 16.7778C440.027 16.8351 439.739 22.5195 439.567 25.8766C438.972 26.4216 436.907 26.2824 435.742 26.2346C429.39 26.2487 423.039 26.2627 416.771 26.3317C415.69 26.3388 414.637 26.4844 413.14 26.5775C413.173 31.6251 413.149 36.3958 413.127 41.527C414.099 41.6871 414.932 41.8757 415.653 41.871C420.424 41.8951 425.249 41.8356 430.02 41.8597C430.658 41.8 431.324 41.8788 431.906 41.9027C433.821 42.0843 434.213 42.581 434.337 44.5771C434.43 46.0742 434.44 47.5164 434.311 48.9872C434.241 51.0956 433.828 51.5421 431.694 51.6948C428.532 51.7711 425.287 51.7924 422.042 51.8138C419.879 51.828 417.854 51.8136 415.691 51.8278C414.831 51.8612 414.139 52.0044 413.002 52.0951C412.981 57.2264 413.124 62.1069 413.157 67.1546C414.184 67.231 414.933 67.3648 415.654 67.36C422.144 67.3173 428.718 67.3295 435.208 67.2868C436.067 67.2535 436.872 67.3036 437.677 67.3538C438.98 67.373 439.79 68.1442 439.77 69.4479C439.813 71.7497 439.775 73.7241 439.682 76.4151C439.613 77.6067 435.995 77.3774 434.331 77.3606C424.735 77.396 415.055 77.3765 405.458 77.4119C402.574 77.4309 402.044 76.9629 402.025 74.0785C401.961 55.9676 401.843 37.9402 401.779 19.8292C401.76 16.9449 402.202 16.6369 404.948 16.6465C415.404 16.5777 425.859 16.509 436.344 16.5787C437.534 16.6475 438.141 16.6727 439.029 16.7778Z" fill="black"/>
<path d="M37.7781 85.5167C17.2501 85.6728 -0.0777908 68.9304 0.000262672 47.6218C0.0783161 27.0157 16.6647 10 37.7391 10C58.8135 10 75.8682 27.1327 75.517 48.4413C75.1658 69.0865 58.2672 85.6338 37.7781 85.5167ZM57.0964 31.894C56.3549 31.9721 55.4573 32.0111 54.6377 32.1672C51.3985 32.6355 48.7837 34.1575 46.8714 36.8504C46.4031 37.4748 45.9347 38.0993 45.4274 38.7237C44.5688 39.8164 43.6712 40.9092 42.8126 42.0019C41.954 43.1337 41.954 43.4849 42.7736 44.5777C43.3199 45.3192 43.7883 46.0997 43.8663 46.9973C43.9444 48.1291 44.4907 48.8316 45.5835 49.2219C47.3007 49.8463 48.9788 50.5098 50.696 51.1342C52.3351 51.7196 54.0133 52.1098 55.7695 51.9537C57.6818 51.7976 59.477 51.2903 61.2332 50.4707C64.3163 49.0267 66.697 46.8803 68.1409 43.8362C69.0776 41.8458 69.8581 39.7384 70.6777 37.709C70.9509 37.0065 70.8728 36.7723 70.2484 36.343C69.7801 35.9918 69.2727 35.7186 68.8044 35.4064C65.253 32.9868 61.3113 32.2062 57.0964 31.894ZM47.1836 28.0304C47.3007 24.4789 46.0908 21.1616 43.476 18.3907C42.0321 16.8687 40.3929 15.5028 38.8319 14.0588C38.0513 13.3563 37.7001 13.3173 36.8415 13.9027C35.1633 15.0735 33.5242 16.3223 32.2754 17.9224C29.3093 21.747 27.0068 25.8058 27.6312 30.8793C27.9044 33.0258 28.4898 35.0161 29.8947 36.6943C30.7924 37.787 31.807 38.7237 32.7047 39.8164C34.2657 41.7287 36.2561 42.4702 38.7148 42.2361C39.5343 42.158 40.2758 41.9629 40.8612 41.3775C42.6955 39.5432 44.3346 37.5529 45.5835 35.2893C46.8323 33.1819 47.1836 30.7622 47.1836 28.0304ZM18.2257 32.6745C17.4452 32.7526 16.6647 32.8306 15.8841 32.9477C12.0595 33.338 8.58614 34.6259 5.50303 36.9675C4.64444 37.6309 4.52736 37.8261 4.91763 38.8408C5.38595 40.0896 5.85427 41.3385 6.40064 42.5093C7.02507 43.8362 7.61048 45.2021 8.39101 46.4119C10.1082 49.0267 12.6059 50.6659 15.4939 51.7586C17.5623 52.5391 19.7088 52.9684 21.8943 52.383C24.8213 51.6025 27.7092 50.6659 30.6362 49.8073C31.5729 49.5341 31.8071 48.7536 32.0022 47.934C32.2754 46.8412 32.5486 45.7095 32.9779 44.6557C33.3681 43.7191 33.2901 42.9386 32.5876 42.1971C31.5339 41.0653 30.4801 39.9335 29.4264 38.8017C28.6069 37.9041 27.8263 36.9675 26.8897 36.1869C24.431 34.0795 21.6211 32.7136 18.2257 32.6745ZM59.5941 68.2669C59.5551 67.7205 59.477 67.2132 59.438 66.6668C59.3209 63.8179 58.6574 61.086 57.3305 58.5102C56.2378 56.3247 54.5596 54.6076 52.3741 53.6319C50.0716 52.6172 47.6519 51.7976 45.2713 50.939C44.4907 50.6659 43.6322 50.7049 43.1248 51.4464C42.3443 52.5391 41.3686 53.3197 40.3149 54.0612C39.2221 54.8417 38.7538 55.9735 38.7148 57.3004C38.7148 59.2908 38.6758 61.3202 38.7538 63.3105C38.7928 64.2472 38.9099 65.2619 39.2612 66.1595C41.3686 71.1939 45.0371 74.4331 50.5009 75.3698C52.6864 75.7601 54.9109 75.76 57.1354 75.9162C57.8379 75.9552 58.1111 75.721 58.3843 74.8624C59.1258 72.755 59.5551 70.5695 59.5941 68.2669ZM36.9976 60.0713C37.0366 59.1737 36.9976 58.2761 37.0366 57.3785C37.1537 55.7003 36.4903 54.5685 34.9292 53.8661C34.3828 53.6319 33.8364 53.3197 33.3681 52.9294C31.9241 51.6806 30.324 51.5635 28.6459 52.1098C26.8897 52.6952 25.0944 53.2416 23.3773 53.9051C21.1137 54.7637 19.2014 56.0515 18.0306 58.3151C16.8598 60.5786 16.3525 63.0373 16.1183 65.535C15.8451 68.462 16.0793 71.311 17.133 74.1209C17.5623 75.3308 17.6794 75.4869 18.9673 75.4088C20.6844 75.2917 22.4016 75.2137 24.1188 74.9795C25.3676 74.8234 26.5775 74.5502 27.7873 74.16C30.8314 73.1453 33.0559 71.0378 34.8902 68.5011C35.9439 67.0181 36.8805 65.418 37.0366 63.5057C37.0757 62.3739 36.9976 61.2421 36.9976 60.0713ZM42.032 48.4413C42.1101 45.7095 41.2515 44.4216 39.1441 44.0313C36.5683 43.563 34.4218 44.5387 33.7974 47.5047C33.7194 47.934 33.6803 48.3633 33.6803 48.7926C33.6413 50.3927 34.5389 51.7976 36.0219 52.4611C37.7781 53.2416 39.5343 53.0075 40.7051 51.8757C41.7198 50.861 42.0711 49.6121 42.032 48.4413Z" fill="black"/>
<path d="M48.5886 46.256C47.8471 46.1389 47.1836 46.0608 46.5982 45.8657C45.8567 45.6316 45.5836 45.1242 46.0128 44.4607C46.5592 43.6022 47.1836 42.7436 47.9642 42.0411C49.2911 40.7922 50.9692 40.0507 52.7645 39.8556C54.2475 39.6995 55.7695 39.6995 57.2525 39.6995C57.7209 39.6995 58.1892 39.8556 58.5795 40.0117C59.399 40.3629 59.5551 41.0264 59.0087 41.7679C58.8526 42.0021 58.6185 42.1972 58.4233 42.3923C56.3549 44.1876 54.0524 45.4755 51.3205 45.9828C50.4229 46.1779 49.4862 46.1779 48.5886 46.256ZM48.7837 44.1876C50.579 44.9681 55.3012 43.329 56.3159 41.4557C54.5987 41.2215 53.0377 41.3386 51.4766 41.924C49.7594 42.6265 49.0179 43.2509 48.7837 44.1876Z" fill="black"/>
<path d="M40.2757 33.6502C40.2367 35.4845 39.8464 37.2017 39.1439 38.8798C38.8707 39.5042 38.5585 40.2067 37.817 40.2458C37.0365 40.2848 36.6852 39.6213 36.373 39.0359C35.3193 37.0456 34.6168 34.9771 34.6949 32.6746C34.7729 30.6061 35.6315 28.7719 36.6852 27.0937C37.2316 26.1961 38.1683 26.2352 38.6366 27.2108C39.222 28.4207 39.6513 29.7085 40.0415 31.0354C40.1976 31.855 40.1586 32.7526 40.2757 33.6502ZM37.5828 37.1626C38.9098 35.5625 38.7927 30.9964 37.4267 29.6695C36.4901 30.5281 36.4511 31.6989 36.373 32.7916C36.2559 34.3527 36.412 35.8357 37.5828 37.1626Z" fill="black"/>
<path d="M26.6555 47.2706C22.5967 47.1535 19.9039 45.5534 17.9135 42.6264C17.3281 41.7678 17.6013 41.0654 18.577 40.8312C22.5577 39.9336 26.1872 40.6361 29.1532 43.6411C29.4654 43.9533 29.7386 44.3046 29.9337 44.6558C30.5191 45.6315 30.285 46.412 29.1922 46.7633C28.2556 47.0365 27.2019 47.1535 26.6555 47.2706ZM27.8263 45.0851C27.7092 44.8119 27.6702 44.6558 27.5921 44.5778C27.4751 44.4217 27.319 44.2656 27.1629 44.1094C25.5237 42.7435 23.6504 42.0801 21.543 42.2362C21.2308 42.2752 20.7625 42.4703 20.7234 42.7045C20.6454 42.9386 20.8795 43.3679 21.1137 43.6021C22.7528 45.0071 24.6261 45.7486 26.8116 45.5144C27.1238 45.4754 27.436 45.2412 27.8263 45.0851Z" fill="black"/>
<path d="M51.3987 64.9496C51.3987 65.0277 51.3987 65.1057 51.3987 65.1838C51.3597 66.94 50.6182 67.3693 49.1352 66.4717C47.379 65.4179 46.1301 63.8569 44.9203 62.2177C43.8276 60.7347 42.969 59.1346 42.5397 57.3394C42.4226 56.8321 42.3836 56.2857 42.4226 55.7393C42.5006 54.7246 43.3202 54.1782 44.3349 54.4905C45.896 54.9588 47.1448 55.9344 48.2376 57.0662C50.1499 59.0956 51.3597 62.1007 51.3987 64.9496ZM44.9593 56.793C44.8813 56.8711 44.8032 56.9101 44.6862 56.9882C44.7252 57.3784 44.6861 57.7687 44.8032 58.1199C45.4277 60.3054 46.7155 62.0616 48.3937 63.6227C48.5888 63.7788 49.0181 63.9349 49.0962 63.8569C49.2913 63.6617 49.3694 63.3495 49.4474 63.0373C49.4864 62.9593 49.4474 62.8422 49.4084 62.7251C48.784 60.5396 47.6522 58.6663 45.857 57.2614C45.5838 57.0272 45.2715 56.9491 44.9593 56.793Z" fill="black"/>
<path d="M24.2749 63.6618C24.7432 59.9543 27.0068 55.8565 31.4168 54.9589C32.7437 54.6857 33.2511 55.193 33.0169 56.5199C32.2364 60.5787 29.8167 63.2325 26.1092 64.8326C26.0701 64.8326 26.0311 64.8717 25.9921 64.8717C24.7432 65.34 24.2749 64.9887 24.2749 63.6618ZM26.5385 62.2569C27.5141 62.2959 28.8801 61.2422 29.9728 59.6421C30.4802 58.9006 30.9875 58.159 30.7924 57.1444C28.8801 57.4956 26.4994 60.3445 26.5385 62.2569Z" fill="black"/>
</svg>
