<svg width="176" height="84" viewBox="0 0 176 84" fill="none" xmlns="http://www.w3.org/2000/svg">
<g clip-path="url(#clip0_3423_10657)">
<path d="M25.6401 45.0377V47.4789H14V36.1621H16.91V45.0377H25.6401Z" fill="#232525"/>
<path d="M33.172 47.6401C30.7254 47.6401 28.9255 47.1497 27.7723 46.1689C26.6298 45.1881 26.0586 43.7331 26.0586 41.8039C26.0586 39.8854 26.6298 38.4412 27.7723 37.4712C28.9255 36.4904 30.7254 36 33.172 36C35.6078 36 37.4024 36.4904 38.5556 37.4712C39.7088 38.452 40.2854 39.8962 40.2854 41.8039C40.2854 43.7224 39.7088 45.1774 38.5556 46.1689C37.4024 47.1497 35.6078 47.6401 33.172 47.6401ZM33.172 45.199C34.6594 45.199 35.7318 44.9295 36.3892 44.3906C37.0466 43.8409 37.3754 42.9787 37.3754 41.8039C37.3754 40.6399 37.0466 39.7884 36.3892 39.2495C35.7425 38.7106 34.6701 38.4412 33.172 38.4412C31.6739 38.4412 30.5961 38.7106 29.9387 39.2495C29.292 39.7777 28.9686 40.6291 28.9686 41.8039C28.9686 42.9787 29.292 43.8409 29.9387 44.3906C30.5961 44.9295 31.6739 45.199 33.172 45.199Z" fill="#232525"/>
<path d="M55.9263 36.1621V47.4789H51.9654L44.2538 38.9913V47.4789H41.3438V36.1621H45.2885L53.0162 44.6659V36.1621H55.9263Z" fill="#232525"/>
<path d="M63.9064 41.4159H71.0846V47.4784H68.9343L68.805 45.7001C68.2446 46.3144 67.5332 46.7941 66.671 47.139C65.8087 47.4731 64.7956 47.6401 63.6316 47.6401C62.2413 47.6401 61.0395 47.4138 60.0264 46.9611C59.0241 46.5085 58.2535 45.851 57.7145 44.9887C57.1757 44.1157 56.9062 43.0595 56.9062 41.8201C56.9062 39.9447 57.526 38.5059 58.7654 37.5035C60.0049 36.5012 61.7886 36 64.1166 36C66.3261 36 68.0182 36.4042 69.193 37.2125C70.3678 38.0101 70.9983 39.131 71.0846 40.5752H68.126C68.0182 40.004 67.6625 39.5082 67.059 39.0879C66.4662 38.6567 65.4854 38.4412 64.1166 38.4412C62.4461 38.4412 61.309 38.7861 60.7054 39.4759C60.1126 40.1549 59.8162 40.9578 59.8162 41.8847C59.8162 42.8224 60.1126 43.6415 60.7054 44.3421C61.309 45.0426 62.4461 45.3929 64.1166 45.3929C64.9896 45.3929 65.7225 45.2852 66.3153 45.0696C66.9189 44.8541 67.3662 44.5846 67.6572 44.2612C67.9482 43.9379 68.1045 43.62 68.126 43.3074H63.9064V41.4159Z" fill="#232525"/>
</g>
<path d="M73.3672 40.6016H89.6156V43.0388H73.3672V40.6016Z" fill="#232525"/>
<path d="M115.119 36.1338L110.635 47.5076H106.59L103.243 38.9448L99.8802 47.5076H95.8511L91.3672 36.1338H94.5189L97.8819 45.0704L101.44 36.1338H105.03L108.604 45.0866L111.951 36.1338H115.119Z" fill="#232525"/>
<path d="M124.383 41.187L131.271 47.5076H127.226L122.222 42.7793L118.729 45.3304V47.5076H115.805V36.1338H118.729V42.032L126.836 36.1338H131.271L124.383 41.187Z" fill="#232525"/>
<path d="M146.533 36.1338V47.5076H142.553L134.803 38.9772V47.5076H131.879V36.1338H135.843L143.609 44.6804V36.1338H146.533Z" fill="#232525"/>
<path d="M156.089 36.1338C157.107 36.1338 158.033 36.345 158.867 36.7675C159.701 37.1899 160.367 37.829 160.865 38.6848C161.364 39.5405 161.613 40.5858 161.613 41.8207C161.613 43.0556 161.364 44.1009 160.865 44.9567C160.367 45.8124 159.701 46.4515 158.867 46.8739C158.033 47.2964 157.107 47.5076 156.089 47.5076H147.836V36.1338H156.089ZM154.984 45.0541C155.807 45.0541 156.479 44.9729 156.999 44.8104C157.529 44.6371 157.941 44.3176 158.233 43.8518C158.537 43.386 158.689 42.709 158.689 41.8207C158.689 40.9325 158.537 40.2555 158.233 39.7897C157.941 39.3239 157.529 39.0097 156.999 38.8473C156.479 38.6739 155.807 38.5873 154.984 38.5873H150.76V45.0541H154.984Z" fill="#232525"/>
<defs>
<clipPath id="clip0_3423_10657">
<rect width="57.6186" height="11.6401" fill="white" transform="translate(14 36)"/>
</clipPath>
</defs>
</svg>
