<svg width="176" height="84" viewBox="0 0 176 84" fill="none" xmlns="http://www.w3.org/2000/svg">
<path fill-rule="evenodd" clip-rule="evenodd" d="M50.6426 32.3772C50.6384 32.7817 50.4767 33.169 50.1912 33.4578C49.9058 33.7466 49.5189 33.9145 49.1115 33.9264C48.7047 33.9253 48.3148 33.7644 48.0271 33.4788C47.7394 33.1932 47.5773 32.8062 47.5762 32.4024C47.5759 32.2023 47.6167 32.0043 47.696 31.8204C47.7754 31.6365 47.8916 31.4705 48.0376 31.3327C48.1836 31.1948 48.3564 31.0879 48.5454 31.0184C48.7344 30.949 48.9356 30.9184 49.1369 30.9287C49.3333 30.9189 49.5296 30.9493 49.7137 31.018C49.8978 31.0867 50.0656 31.1922 50.2069 31.3281C50.3481 31.464 50.4597 31.6272 50.5346 31.8077C50.6096 31.9881 50.6463 32.182 50.6426 32.3772ZM103.318 31.3299C103.141 31.262 102.952 31.2301 102.762 31.2362C102.561 31.2159 102.357 31.2376 102.165 31.2998C101.973 31.3619 101.796 31.4633 101.646 31.5973C101.495 31.7314 101.375 31.8951 101.292 32.0781C101.209 32.2611 101.165 32.4593 101.164 32.6599C101.161 32.8604 101.198 33.0595 101.274 33.2454C101.349 33.4313 101.462 33.6001 101.605 33.7419C101.747 33.8837 101.918 33.9954 102.105 34.0706C102.292 34.1458 102.493 34.1828 102.695 34.1794C103.101 34.1729 103.489 34.0084 103.776 33.7213C104.062 33.4341 104.223 33.0472 104.225 32.6433C104.225 32.4546 104.187 32.2678 104.113 32.094C104.039 31.9203 103.93 31.7631 103.794 31.6318C103.657 31.5005 103.496 31.3979 103.318 31.3299ZM135.925 45.5648C135.854 46.7471 136.508 47.3466 137.409 47.8336C137.275 47.8723 137.149 47.9056 137.031 47.9372C136.817 47.9941 136.623 48.0457 136.432 48.1125C135.552 48.4206 134.889 48.9451 134.818 49.9442C134.782 50.3904 134.886 50.8367 135.116 51.2219C135.346 51.6071 135.69 51.9125 136.101 52.0964C136.451 52.2908 136.828 52.4312 137.221 52.5127C138.864 52.8883 140.579 52.812 142.182 52.292C144.375 51.5802 145.587 49.915 145.537 47.8336C145.569 47.2077 145.371 46.5916 144.979 46.1004C144.587 45.6092 144.027 45.2768 143.406 45.1652C142.679 45.03 141.932 45.03 141.205 45.1652C140.301 45.3156 139.386 45.3895 138.47 45.3858C137.653 45.365 137.271 45.032 137.359 44.4742C137.447 43.9164 138.03 43.6208 138.739 43.7707C138.833 43.791 138.927 43.8173 139.022 43.8437C139.121 43.8714 139.221 43.8992 139.322 43.9205C140.527 44.2197 141.8 44.0717 142.903 43.5042C144.773 42.5509 145.369 40.8025 144.53 38.9251C144.448 38.7676 144.389 38.5995 144.354 38.4255C144.342 38.2813 144.376 38.137 144.452 38.013C144.527 37.889 144.639 37.7916 144.773 37.7345C144.846 37.6805 144.934 37.6512 145.025 37.6512C145.116 37.6512 145.204 37.6805 145.277 37.7345C145.495 37.889 145.437 38.0695 145.377 38.2514C145.362 38.2997 145.346 38.3484 145.335 38.3964C145.184 39.1249 145.478 39.5745 146.145 39.6453C146.874 39.7285 147.348 39.4413 147.478 38.8377C147.659 37.9968 147.327 37.3265 146.602 37.1392C146.19 37.0203 145.753 37.0189 145.341 37.1352C144.928 37.2516 144.557 37.4809 144.27 37.7969C144.002 38.055 143.889 38.08 143.582 37.8511C141.762 36.4981 138.781 36.6605 137.103 38.1633C136.734 38.4652 136.441 38.8487 136.248 39.283C136.055 39.7172 135.967 40.1904 135.991 40.6645C136.015 41.1386 136.151 41.6005 136.387 42.0134C136.623 42.4262 136.953 42.7785 137.351 43.0422C137.411 43.0871 137.477 43.1236 137.545 43.1605C137.69 43.24 137.838 43.3212 137.929 43.4917C137.179 43.7383 136.54 44.2376 136.122 44.903C135.795 45.3861 135.366 45.7925 134.864 46.0935C134.331 46.4182 134.004 46.285 133.811 45.6772C133.738 45.3298 133.713 44.9741 133.736 44.6199C133.716 43.9595 133.726 43.2981 133.736 42.6365C133.753 41.5006 133.77 40.3644 133.635 39.2331C133.602 38.7624 133.416 38.315 133.105 37.9578C132.795 37.6007 132.376 37.3529 131.912 37.2516C130.876 36.9539 129.787 36.8913 128.724 37.0684C128.28 37.1313 127.854 37.2851 127.473 37.5202C127.092 37.7552 126.764 38.0664 126.51 38.4339C126.34 38.6564 126.227 38.9167 126.181 39.1924C126.135 39.468 126.157 39.7506 126.246 40.0158C126.377 40.3079 126.602 40.5486 126.886 40.7C127.17 40.8515 127.497 40.9051 127.814 40.8525C128.086 40.8361 128.341 40.7201 128.531 40.5269C128.721 40.3338 128.832 40.0773 128.842 39.8076C128.901 39.0958 128.548 38.7461 127.844 38.6795C127.441 38.642 127.475 38.3714 127.605 38.0925C127.772 37.8067 128.02 37.5757 128.318 37.4278C128.616 37.2799 128.951 37.2215 129.282 37.2599C129.611 37.2485 129.932 37.3531 130.19 37.5551C130.448 37.7571 130.626 38.0434 130.691 38.3631C130.844 39.2821 130.916 40.2125 130.905 41.1439C130.926 41.5477 130.792 41.6851 130.402 41.7309C129.418 41.8244 128.463 42.1072 127.588 42.5634C127.187 42.7413 126.837 43.0163 126.571 43.3633C126.305 43.7103 126.131 44.118 126.066 44.5491C126.041 44.7335 125.98 44.9112 125.885 45.0714C125.79 45.2316 125.663 45.3711 125.512 45.4816C125.439 45.5433 125.366 45.6079 125.293 45.6728C124.809 46.1023 124.312 46.5441 123.583 46.2476C122.744 45.9062 122.744 45.0861 122.744 44.3576C122.727 43.2699 122.721 42.1867 122.715 41.1009C122.709 40.126 122.704 39.1478 122.69 38.1633C122.686 37.7761 122.761 37.5971 123.201 37.6346C123.669 37.6637 124.138 37.6637 124.606 37.6346C124.658 37.6329 124.718 37.6371 124.78 37.6414C125.029 37.6587 125.316 37.6787 125.286 37.339C125.259 37.0389 125.05 37.1111 124.853 37.1792C124.771 37.2074 124.691 37.235 124.627 37.235L124.62 37.2351C123.389 37.2623 122.895 37.2732 122.699 37.0389C122.568 36.8822 122.57 36.6158 122.573 36.1712C122.574 35.9605 122.576 35.7097 122.564 35.4116V35.2784C122.556 35.221 122.561 35.1557 122.566 35.0904C122.578 34.9377 122.589 34.7843 122.442 34.7289C122.232 34.65 122.145 34.8179 122.064 34.9744C122.039 35.0241 122.014 35.0727 121.985 35.1119C121.113 36.2817 120.048 37.1392 118.513 37.2433C118.444 37.236 118.375 37.2523 118.317 37.2894C118.259 37.3265 118.216 37.3822 118.194 37.4473C118.264 37.5325 118.358 37.595 118.464 37.6269C118.571 37.6587 118.684 37.6585 118.79 37.6263C119.469 37.5347 119.654 37.8136 119.654 38.4838C119.631 39.9644 119.639 41.4432 119.646 42.9213V42.9232V42.925V42.9268V42.9287V42.9305C119.65 43.6686 119.654 44.4065 119.654 45.1444C119.654 46.3142 120.161 46.9178 121.331 47.1134C123.164 47.4215 124.803 47.0926 125.999 45.4982C126.489 46.7554 127.173 47.2675 128.339 47.2133C129.504 47.1592 130.289 46.4848 130.918 45.5274C131.396 46.9386 131.798 47.2009 133.191 47.1259C134.319 47.0676 135.145 46.4724 135.925 45.5648ZM138.11 48.0376L141.985 47.6213L142.165 47.6255C142.97 47.613 143.805 47.6504 144.178 48.483C144.355 48.8952 144.402 49.3508 144.312 49.7899C144.223 50.229 144.002 50.6311 143.679 50.9433C142.547 52.2421 139.867 52.6584 138.353 51.8258C137.233 51.1972 136.935 49.1074 137.829 48.1874C137.899 48.1027 138 48.0489 138.11 48.0376ZM141.855 38.4006C142.082 39.1647 142.181 39.9607 142.148 40.7567C142.157 41.4203 142.097 42.083 141.968 42.7341C141.925 43.0215 141.783 43.2852 141.566 43.4797C141.348 43.6742 141.069 43.7874 140.777 43.7998C140.464 43.8424 140.146 43.7804 139.873 43.6236C139.599 43.4668 139.386 43.2242 139.267 42.9339C139.039 42.3335 138.92 41.698 138.915 41.0565C138.826 40.1726 138.906 39.2801 139.15 38.4255C139.385 37.6679 139.875 37.2808 140.525 37.2808C141.268 37.2974 141.632 37.772 141.855 38.4006ZM130.897 42.6009C130.879 42.8406 130.879 43.0813 130.897 43.3211C130.895 43.9866 130.811 44.6494 130.645 45.2943C130.605 45.4925 130.495 45.6701 130.335 45.7958C130.176 45.9215 129.976 45.9871 129.773 45.9811C129.57 45.9876 129.371 45.9279 129.206 45.8114C129.041 45.6949 128.919 45.5278 128.859 45.3359C128.626 44.7319 128.645 44.0611 128.909 43.4705C129.174 42.8798 129.664 42.4174 130.272 42.1846C130.729 42.0098 130.993 41.9973 130.897 42.6009ZM101.139 39.3248C101.177 41.5186 101.177 43.7166 101.177 45.9105C101.181 45.9123 101.186 45.9141 101.192 45.9158C101.196 45.9173 101.2 45.9187 101.205 45.9201C101.269 45.9416 101.347 45.9674 101.34 46.0687C101.332 46.1852 101.244 46.1852 101.168 46.1852C101.03 46.6562 100.692 46.675 100.351 46.694C100.1 46.7079 99.8483 46.7219 99.671 46.9137C100.277 46.9212 100.883 46.9298 101.489 46.9385L101.491 46.9385L101.494 46.9386L101.496 46.9386L101.498 46.9386L101.5 46.9387C104.955 46.9881 108.428 47.0377 111.992 46.8679C111.922 46.7702 111.828 46.6925 111.718 46.6428C111.608 46.5931 111.487 46.5731 111.367 46.5848C110.922 46.564 110.751 46.3517 110.751 45.9021V39.508C110.73 39.2999 110.754 39.0898 110.823 38.8921C110.891 38.6944 111.002 38.5136 111.147 38.3623C111.293 38.2109 111.469 38.0925 111.665 38.015C111.861 37.9376 112.071 37.903 112.281 37.9136C113.099 37.9053 113.388 38.2466 113.472 39.3373C113.57 40.6276 113.56 41.9194 113.551 43.2109C113.545 44.0274 113.539 44.845 113.56 45.6607C113.573 46.3226 113.409 46.7472 112.629 46.6431C112.52 46.6306 112.407 46.6723 112.344 46.9637C112.949 46.9597 113.551 46.9632 114.153 46.9668C115.458 46.9744 116.766 46.9821 118.115 46.9137C118.076 46.8156 118.007 46.7318 117.919 46.6737C117.83 46.6156 117.726 46.586 117.62 46.589C116.596 46.4766 116.596 46.4766 116.596 45.4484C116.592 44.8494 116.591 44.2471 116.59 43.6445V43.6411V43.6393C116.588 42.3468 116.586 41.0517 116.555 39.7869C116.508 37.9303 115.569 36.9978 113.803 36.9603C113.2 36.9517 112.603 37.08 112.057 37.3354C111.511 37.5908 111.031 37.9665 110.654 38.434V37.3225C110.658 36.9104 110.503 36.7855 110.13 37.0103C109.087 37.5872 107.928 37.927 106.737 38.0052C106.666 38.013 106.577 38.0103 106.486 38.0075C106.238 37.9999 105.972 37.9918 105.991 38.1925C106.016 38.4636 106.292 38.4222 106.546 38.3842C106.631 38.3714 106.714 38.359 106.783 38.359L106.795 38.3596C107.268 38.3843 107.681 38.4058 107.681 39.0542V45.9146C107.685 46.3059 107.505 46.4516 107.131 46.5057C106.488 46.5931 105.839 46.6265 105.19 46.6057C104.28 46.5932 104.2 46.5141 104.2 45.6066V38.742C104.2 38.4304 104.175 38.1189 104.15 37.8063C104.134 37.6094 104.118 37.4121 104.108 37.2142C104.095 36.9728 104.007 36.9104 103.777 36.9978C102.073 37.668 100.274 37.6605 98.4749 37.6529C98.2851 37.6521 98.0952 37.6513 97.9055 37.6513C97.6496 37.6135 97.3884 37.6348 97.1422 37.7138C97.1528 37.7467 97.1595 37.7775 97.1652 37.8034C97.1754 37.8495 97.1821 37.8803 97.2009 37.8803C97.3458 37.9695 97.4891 37.9643 97.6442 37.9587C97.7496 37.9548 97.8605 37.9508 97.981 37.976C98.0142 37.983 98.0487 37.9894 98.0836 37.9958C98.3619 38.0469 98.6673 38.103 98.5555 38.5172C98.1135 40.1186 97.5227 41.6686 96.9053 43.2885C96.8197 43.513 96.7337 43.7389 96.6474 43.9664C95.8925 42.1306 95.2174 40.3947 94.6345 38.6255C94.4709 38.1634 94.6345 38.0468 95.0538 37.976C95.114 37.9666 95.1812 37.9696 95.2507 37.9727C95.457 37.9818 95.6842 37.9919 95.8129 37.6805C95.0827 37.6696 94.3624 37.6849 93.648 37.7C92.4503 37.7254 91.269 37.7504 90.0844 37.6513C90.0664 37.6497 90.0479 37.6472 90.0292 37.6447C89.908 37.6284 89.7796 37.6112 89.7615 37.8095C89.7405 38.0385 89.946 38.0385 90.0928 38.0385C90.9483 37.9344 91.225 38.4756 91.5018 39.1458C92.5838 41.7892 93.7035 44.4243 94.8316 47.0552C94.8421 47.0812 94.8528 47.1083 94.8638 47.136C94.9793 47.428 95.1241 47.7941 95.4229 47.7713C95.6832 47.7514 95.7655 47.4731 95.8412 47.2177C95.8606 47.1522 95.8795 47.088 95.9009 47.0303C96.2166 46.1738 96.5306 45.3164 96.8447 44.4589L96.8453 44.4571L96.8459 44.4555C97.516 42.6259 98.1864 40.7955 98.8742 38.971C99.1929 38.0968 99.7255 37.7887 100.552 37.9677C101.229 38.1145 101.19 38.5942 101.154 39.0399C101.147 39.1376 101.139 39.2343 101.139 39.3248ZM155.979 44.0871C156.012 44.261 156.006 44.4401 155.961 44.6114C155.916 44.7827 155.833 44.942 155.719 45.0778C154.482 47.255 151.844 47.8961 149.47 46.6098C147.193 45.3609 146.25 42.4469 147.331 39.9492C147.83 38.8183 148.738 37.9136 149.874 37.4129C151.011 36.9122 152.296 36.8517 153.475 37.2433C154.118 37.4154 154.694 37.776 155.127 38.2781C155.56 38.7801 155.831 39.4003 155.903 40.0574C155.97 40.4737 155.903 40.6485 155.413 40.6485C154.664 40.6485 153.914 40.6652 153.165 40.6818C152.415 40.6985 151.666 40.7151 150.917 40.7151C150.477 40.7151 150.363 40.865 150.33 41.2771C150.247 42.2297 150.316 43.1893 150.535 44.1204C150.854 45.4483 151.63 46.2434 152.695 46.3808C153.76 46.5182 154.884 45.8396 155.509 44.7157C155.542 44.6585 155.567 44.5926 155.593 44.5252C155.662 44.3422 155.737 44.1479 155.979 44.0871ZM151.722 40.2864H152.787C153.031 40.2864 153.177 40.2239 153.152 39.9533C153.154 39.3352 153.091 38.7185 152.964 38.1134C152.93 37.9065 152.831 37.7159 152.68 37.5696C152.528 37.4234 152.334 37.3294 152.125 37.3016C151.91 37.2711 151.69 37.3066 151.496 37.4033C151.302 37.5001 151.143 37.6534 151.039 37.8428C150.837 38.1586 150.694 38.5085 150.619 38.8752L150.616 38.8873C150.448 39.5851 150.364 39.9338 150.502 40.1081C150.641 40.2822 151.001 40.2822 151.722 40.2822V40.2864ZM52.1314 46.7234C52.0251 46.8545 51.8869 46.8395 51.7524 46.8249C51.7102 46.8203 51.6684 46.8157 51.6281 46.8157H40.5976C40.5466 46.8157 40.4937 46.8204 40.4404 46.8251C40.2507 46.8417 40.0553 46.8589 39.9166 46.6688C39.9182 46.622 39.9366 46.5773 39.9683 46.5427C40.0001 46.5081 40.0432 46.4858 40.09 46.4799L40.098 46.4786C41.1179 46.3119 41.1347 46.3092 41.122 45.2497C41.1138 44.5848 41.1198 43.9195 41.1257 43.254C41.1381 41.8604 41.1506 40.4661 41.0332 39.0738C40.9402 37.9989 40.6441 37.6631 39.7897 37.6841C39.5889 37.6746 39.3883 37.7067 39.2006 37.7783C39.0129 37.8499 38.8422 37.9594 38.6995 38.1C38.5567 38.2405 38.4449 38.409 38.3712 38.5947C38.2975 38.7804 38.2635 38.9793 38.2713 39.1787V45.7661C38.2575 45.8487 38.2629 45.9332 38.287 46.0134C38.3111 46.0936 38.3533 46.1672 38.4104 46.2288C38.4675 46.2903 38.538 46.3381 38.6165 46.3685C38.695 46.3989 38.7795 46.4112 38.8635 46.4043C38.8873 46.4043 38.9117 46.4035 38.9364 46.4026C39.0877 46.3975 39.2529 46.3918 39.3837 46.5722C39.2473 46.7935 39.0376 46.7784 38.837 46.7639C38.7826 46.76 38.7288 46.7561 38.6774 46.757C36.0847 46.7864 33.4962 46.8913 30.9078 47.1012C30.2974 47.1334 29.7045 47.3152 29.1821 47.6302C28.8269 47.8486 28.6619 47.836 28.6704 47.3657C28.6704 47.2882 28.681 47.2005 28.6918 47.1112C28.7207 46.8716 28.751 46.6209 28.5816 46.5261C28.3755 46.4281 28.2213 46.5989 28.0655 46.7714C27.9942 46.8504 27.9226 46.9296 27.8456 46.9837C27.3088 47.3983 26.6697 47.6626 25.9951 47.749C25.3204 47.8354 24.6348 47.7408 24.0095 47.4749C23.6076 47.3236 23.2587 47.0598 23.0049 46.7155C22.7512 46.3712 22.6035 45.9612 22.5799 45.5352C22.4805 44.4691 22.4929 43.4013 22.5052 42.3351C22.5117 41.768 22.5183 41.2013 22.508 40.6356C22.508 40.4036 22.5057 40.172 22.5033 39.9402C22.4986 39.4756 22.4939 39.0097 22.508 38.5363C22.508 38.0157 22.305 37.789 21.7932 37.8058C21.6823 37.8204 21.57 37.8204 21.4591 37.8058C21.4131 37.7949 21.3578 37.792 21.3014 37.7889C21.1399 37.7802 20.9697 37.771 20.9854 37.5749C21.002 37.3666 21.197 37.3874 21.368 37.4057C21.4141 37.4106 21.4585 37.4154 21.4972 37.4154H25.2149C25.6378 37.4154 25.7859 37.5035 25.7774 37.9612C25.7309 40.157 25.714 42.3486 25.714 44.5444C25.7166 45.0363 25.7748 45.5264 25.8874 46.0054C25.9093 46.1805 25.9747 46.3474 26.0776 46.4911C26.1805 46.6349 26.3178 46.7511 26.477 46.8294C26.6363 46.9076 26.8126 46.9454 26.9902 46.9393C27.1678 46.9333 27.3411 46.8836 27.4946 46.7948C27.8474 46.6677 28.1514 46.4342 28.3638 46.127C28.5761 45.8198 28.6863 45.4543 28.6788 45.0818V38.9016C28.6788 38.3783 28.6788 38.1138 28.5458 37.9751C28.4098 37.8333 28.1349 37.8228 27.5792 37.8016C27.4681 37.793 27.3578 37.7762 27.2493 37.7512C27.2232 37.7512 27.2011 37.7276 27.1708 37.6953C27.1568 37.6803 27.1411 37.6635 27.1224 37.6463C27.2485 37.4331 27.446 37.4435 27.6331 37.4534C27.6781 37.4558 27.7226 37.4582 27.7653 37.4573C28.958 37.4573 30.1549 37.4573 31.3477 37.4154C31.8044 37.4154 31.851 37.5749 31.851 37.957V45.4177C31.851 46.4631 31.9059 46.5177 32.9633 46.5177C33.4715 46.5177 33.9798 46.4834 34.4911 46.4489L34.5716 46.4435L34.6551 46.4379C34.7349 46.4404 34.8142 46.4257 34.8876 46.3947C34.961 46.3637 35.0268 46.3173 35.0803 46.2585C35.1338 46.1998 35.1738 46.1302 35.1975 46.0546C35.2213 45.979 35.2281 45.8992 35.2176 45.8207V38.7673C35.2176 38.3474 34.9935 38.1711 34.5917 38.1459C34.1882 38.1832 33.7812 38.1562 33.3863 38.0661C33.546 37.8089 33.7594 37.803 33.9489 37.7979C33.9851 37.7969 34.0206 37.7959 34.0545 37.7932C35.3222 37.7495 36.5613 37.4085 37.6708 36.7982C38.0937 36.5505 38.1868 36.752 38.1868 37.1299V38.0661C38.3545 38.1398 38.4239 38.0375 38.4886 37.942C38.5087 37.9123 38.5284 37.8833 38.5505 37.8604C38.9963 37.4095 39.549 37.0768 40.1578 36.8927C40.7666 36.7086 41.4123 36.679 42.0356 36.8066C43.3552 36.9997 44.0954 37.9402 44.1503 39.5188C44.1836 40.8619 44.1844 42.2137 44.1853 43.5556C44.1856 44.0928 44.186 44.6287 44.1884 45.1615C44.1884 45.785 44.1884 46.0999 44.3469 46.2624C44.5086 46.4283 44.8353 46.4356 45.4953 46.4505C45.6532 46.4505 45.8116 46.4435 45.97 46.4365C46.2867 46.4225 46.6035 46.4085 46.9164 46.4505C47.4578 46.5051 47.572 46.2406 47.5678 45.7955V42.5039C47.5678 42.0859 47.565 41.6642 47.5622 41.2407C47.5565 40.388 47.5508 39.5276 47.5678 38.6749C47.5678 38.0997 47.3901 37.7764 46.7557 37.8352C46.726 37.8352 46.6932 37.8375 46.6592 37.8399C46.5052 37.8508 46.3282 37.8634 46.3074 37.6673C46.286 37.4653 46.4753 37.4607 46.6417 37.4566C46.6726 37.4558 46.7026 37.4551 46.7303 37.4531C48.0246 37.4125 49.3034 37.1615 50.5157 36.71C50.6547 37.2856 50.7074 37.8783 50.6722 38.4692V45.1238C50.6722 46.5303 50.7737 46.5344 51.9411 46.5009C51.994 46.5009 52.047 46.5334 52.1 46.5659C52.1104 46.5723 52.1209 46.5787 52.1314 46.5849V46.5638L52.1628 46.6024C52.165 46.6036 52.1673 46.6047 52.1695 46.6058L52.1684 46.6093L52.2202 46.673L52.1314 46.7234ZM62.3879 52.408H64.6507C64.3901 52.0574 64.1433 52.0601 63.924 52.0624C63.8729 52.063 63.8232 52.0635 63.7752 52.0596C62.8997 51.9798 62.8278 51.921 62.8278 51.0393V45.7367V37.4741C62.8278 37.4307 62.8288 37.386 62.8298 37.3413C62.8384 36.9538 62.8469 36.5686 62.206 37.0542C62.0457 37.1607 61.864 37.2316 61.6735 37.2621C61.483 37.2925 61.2881 37.2817 61.1021 37.2305C60.878 37.1848 60.655 37.1319 60.4321 37.079C60.062 36.9912 59.6921 36.9035 59.3173 36.8485C57.2829 36.5378 55.4304 36.9115 54.0346 38.5279C53.3857 39.2594 52.9542 40.1556 52.7884 41.1164C52.6226 42.0772 52.729 43.0648 53.0957 43.9691C54.2207 47.1725 57.8962 47.9157 59.6726 46.1859C59.6781 46.1804 59.6924 46.1885 59.7117 46.1993C59.7368 46.2133 59.7702 46.2321 59.8037 46.2321V50.3802C59.7868 51.8907 59.7783 51.8916 58.2289 52.0593L58.2261 52.0596C58.2197 52.0603 58.2132 52.0609 58.2066 52.0615C58.2 52.0622 58.1933 52.0627 58.1865 52.0633C58.1791 52.0639 58.1715 52.0645 58.1639 52.0652C58.0209 52.0766 57.8567 52.0898 57.875 52.2611C57.8927 52.4258 58.0458 52.4179 58.1845 52.4108C58.212 52.4094 58.239 52.408 58.2641 52.408C59.6378 52.3367 61.0143 52.3367 62.3879 52.408ZM59.7149 38.276C59.8101 39.4013 59.8425 40.531 59.8121 41.6599C59.8418 42.7213 59.8178 43.7834 59.7402 44.8424C59.6303 45.7157 59.1523 46.358 58.3868 46.4588C57.6213 46.5596 57.0334 46.2027 56.695 45.3C56.069 43.6038 56.1367 41.8321 56.272 40.0687C56.3028 39.4195 56.4459 38.7804 56.695 38.1794C56.811 37.8866 57.0026 37.6292 57.2506 37.4331C57.4986 37.2371 57.7942 37.1093 58.1077 37.0626C59.0974 36.8989 59.5922 37.2851 59.7149 38.276ZM70.1364 37.1466C70.3691 37.0266 70.6336 36.9811 70.8935 37.0165C71.9762 37.0165 73.059 37.0165 74.1375 36.9787C74.6112 36.9787 74.7423 37.0962 74.7381 37.5707C74.7212 39.1662 74.7268 40.7637 74.7324 42.3605C74.7353 43.1587 74.7381 43.9567 74.7381 44.7543C74.7381 45.286 74.7381 45.5505 74.8712 45.6877C75.0031 45.8236 75.2654 45.8348 75.7876 45.8569L75.8251 45.8585C75.8844 45.8585 75.9551 45.8498 76.029 45.8408C76.2765 45.8105 76.5597 45.7758 76.5695 46.0474C76.5791 46.3158 76.3069 46.3021 76.057 46.2895C75.9786 46.2855 75.9024 46.2817 75.8377 46.2867C75.5969 46.3036 75.355 46.3143 75.1131 46.325C74.0295 46.3729 72.947 46.4208 71.972 47.0214C71.7351 47.1684 71.6463 47.0466 71.6463 46.8115V45.6443C70.9658 46.3409 70.0983 46.829 69.1467 47.0508C67.1292 47.4035 65.7081 46.3245 65.6616 44.3008C65.6193 42.3527 65.6277 40.4046 65.6616 38.4565C65.6616 37.768 65.5601 37.3104 64.7311 37.3775C64.6849 37.3886 64.6369 37.39 64.5901 37.3819C64.5433 37.3737 64.4987 37.3561 64.459 37.3301C64.4194 37.3041 64.3855 37.2703 64.3595 37.2308C64.3336 37.1913 64.3161 37.1469 64.3081 37.1004C64.3927 36.9685 64.5272 36.9774 64.6531 36.9858L64.665 36.9866L64.6719 36.9871C65.8877 37.0501 67.1061 37.0501 68.3219 36.9871C68.7153 36.9871 68.8083 37.1004 68.8041 37.4783C68.7703 39.6951 68.7548 41.9091 68.7576 44.1203C68.7646 44.5232 68.8142 44.9242 68.9056 45.3169C68.9279 45.497 68.9962 45.6686 69.104 45.8152C69.2118 45.9619 69.3555 46.0788 69.5215 46.1549C69.6875 46.231 69.8704 46.2638 70.0528 46.2501C70.2351 46.2364 70.4109 46.1768 70.5636 46.0768C70.8881 45.9434 71.1638 45.7146 71.3535 45.4211C71.5433 45.1277 71.6381 44.7836 71.6252 44.4352C71.6082 43.0916 71.6139 41.7481 71.6195 40.4058V40.404V40.4021V40.4003C71.6224 39.731 71.6252 39.0621 71.6252 38.3936C71.6252 37.4153 71.5956 37.3985 70.5932 37.3607C70.5621 37.3582 70.5289 37.3592 70.4951 37.3602C70.3588 37.3643 70.2109 37.3686 70.1364 37.1466ZM85.9853 44.3632C86.019 44.1935 86.0129 44.0184 85.9674 43.8515C85.7425 44.011 85.6527 44.2146 85.5686 44.4055C85.5309 44.491 85.4943 44.5739 85.4472 44.6492C84.7874 45.7576 83.6962 46.358 82.5923 46.1775C81.3784 45.9843 80.8497 45.0985 80.5325 44.0362C80.3065 43.0994 80.221 42.1345 80.2788 41.1729C80.2788 40.6817 80.4056 40.4843 80.9597 40.4843C81.7628 40.491 82.566 40.468 83.3691 40.445C84.0759 40.4248 84.7827 40.4046 85.4895 40.4046C85.8701 40.4046 85.997 40.329 85.9378 39.9091C85.8751 39.2469 85.6157 38.618 85.1926 38.1023C84.7694 37.5866 84.2015 37.2072 83.5608 37.0122C82.9381 36.7925 82.2777 36.6972 81.6177 36.7318C80.9577 36.7665 80.3111 36.9303 79.7151 37.214C79.1192 37.4977 78.5856 37.8956 78.1452 38.3848C77.7048 38.874 77.3662 39.4449 77.1489 40.0645C76.1677 42.9111 77.5127 45.871 80.1942 46.7821C82.5331 47.5756 84.6986 46.8198 85.7729 44.8298C85.8788 44.6925 85.9515 44.5329 85.9853 44.3632ZM82.7784 40.0729H81.7675L81.6999 40.0981C80.2238 40.1107 80.2195 40.1065 80.5833 38.6454C80.6614 38.1774 80.871 37.7408 81.1881 37.3859C81.3012 37.2522 81.4484 37.151 81.6142 37.0929C81.78 37.0347 81.9585 37.0217 82.1311 37.0551C82.3038 37.0885 82.4642 37.1672 82.5959 37.2829C82.7276 37.3987 82.8256 37.5473 82.8799 37.7133C83.101 38.3902 83.19 39.1026 83.1421 39.8126C83.1421 40.0729 82.9645 40.0729 82.7784 40.0729ZM45.9921 37.6808C46.0079 37.6955 46.024 37.7105 46.0367 37.726C46.1213 37.768 46.2228 37.7133 46.227 37.6588C46.23 37.6203 46.1909 37.5755 46.1528 37.5318C46.1368 37.5136 46.1211 37.4955 46.1086 37.4782C46.0156 37.4614 45.931 37.4867 45.931 37.5958C45.931 37.6237 45.9609 37.6517 45.9921 37.6808Z" fill="#232525"/>
</svg>
