<svg width="151" height="14" viewBox="0 0 151 14" fill="none" xmlns="http://www.w3.org/2000/svg">
<path fill-rule="evenodd" clip-rule="evenodd" d="M150.862 3.33424L149.194 3.92152C149.043 2.95535 148.228 1.62923 146.353 1.62923C144.837 1.62923 143.757 2.61434 143.757 3.86468C143.757 4.83085 144.345 5.56969 145.481 5.81597L147.489 6.25169C149.725 6.74425 150.975 8.14614 150.975 10.0217C150.975 12.1055 149.194 14 146.334 14C143.094 14 141.56 11.9161 141.314 10.0027L143.094 9.43437C143.227 10.931 144.288 12.3139 146.315 12.3139C148.171 12.3139 149.081 11.3478 149.081 10.1732C149.081 9.20704 148.418 8.37348 147.073 8.08931L145.159 7.67253C143.246 7.25575 141.882 6.00541 141.882 3.99729C141.882 1.89445 143.833 0 146.315 0C149.346 0 150.558 1.87551 150.862 3.33424ZM9.35859 9.96481L10.8173 13.7158H12.8254L7.48309 0.284157H5.34236L0 13.7158H1.98917L3.41001 9.96481H9.35859ZM4.07307 8.24086L6.36536 2.2165L8.69554 8.24086H4.07307ZM25.5895 13.7158H17.3865V0.284157H19.2431V11.9729H25.5895V13.7158ZM38.6298 13.7158H30.4269V0.284157H32.2834V11.9729H38.6298V13.7158ZM134.167 13.7158H136.1V0.284165H134.243V10.59L127.537 0.284165H125.055V13.7158H126.912V2.7659L134.167 13.7158ZM111.253 13.7158H119.418V11.9919H113.109V7.88092H118.83V6.13802H113.109V2.00812H119.418V0.284165H113.067L111.253 2.73391V13.7158ZM95.6356 13.7158H105.998V11.9729H97.8521L105.904 2.0839V0.284165H95.8251V2.00812H103.649L95.6356 11.8593V13.7158ZM90.2783 13.7158H88.3838V0.284165H90.2783V13.7158ZM79.2087 2.00812H83.6986V0.284165H72.8623V2.00812H77.3522V13.7158H79.2087V2.00812ZM68.168 13.7158H66.2736V0.284165H68.168V13.7158ZM48.418 6.99053C48.418 11.4804 51.6196 14 55.0865 14C58.1744 14 60.2962 12.2003 61.0161 9.68065L59.3679 9.07443C58.8186 10.912 57.3788 12.295 55.0865 12.295C52.6426 12.295 50.3125 10.4953 50.3125 6.99053C50.3125 3.48579 52.6426 1.70501 55.0865 1.70501C57.284 1.70501 58.7617 2.84168 59.2732 4.86874L60.9972 4.26252C60.3152 1.66712 58.1555 0 55.0865 0C51.7522 0 48.418 2.50068 48.418 6.99053Z" fill="#1D1D1B"/>
</svg>
