<svg width="176" height="84" viewBox="0 0 176 84" fill="none" xmlns="http://www.w3.org/2000/svg">
<path fill-rule="evenodd" clip-rule="evenodd" d="M36.1647 41.5564V52.4519C41.2968 51.7479 45.1482 47.2744 45.1482 41.9828C45.1482 41.8407 45.1457 41.6986 45.1399 41.5564H36.1647ZM47.3585 38.7222L47.3833 38.8214C47.6345 39.846 47.7609 40.9094 47.7609 41.9828C47.7568 49.2707 41.9281 55.2002 34.7699 55.2002C28.4446 55.2002 23.1415 50.668 22.0095 44.3824H24.68C25.6542 48.6593 29.09 51.8669 33.3784 52.4519V41.5564H21.793V41.4275C22.0929 34.3115 27.7927 28.7588 34.7699 28.7588C39.6607 28.7588 44.0385 31.488 46.2835 35.8971H43.246C41.2993 33.0836 38.1693 31.4153 34.7699 31.4153C30.2327 31.4153 26.2872 34.3429 24.8957 38.7181L47.3585 38.7222ZM58.2962 37.3671C56.8394 37.3671 56.1123 37.8579 56.1123 38.8379C56.1123 39.2759 56.2924 39.6064 56.6518 39.8361C57.0113 40.0658 57.859 40.4021 59.1852 40.8342C60.5172 41.2722 61.4493 41.7613 61.9814 42.3133C62.5169 42.8636 62.7829 43.7122 62.7829 44.8566C62.7829 46.3118 62.3491 47.4149 61.479 48.1618C60.609 48.9121 59.4753 49.2839 58.0739 49.2839C57.0319 49.2839 55.7545 49.1187 54.2448 48.7931L53.5218 48.651L53.8036 46.4663C55.5958 46.7109 56.9642 46.834 57.9144 46.834C59.3298 46.834 60.0388 46.2349 60.0388 45.0335C60.0388 44.5997 59.8736 44.2568 59.5463 44.0105C59.22 43.7659 58.5705 43.5007 57.5938 43.2148C56.0453 42.7686 54.948 42.2315 54.3167 41.6126C53.6813 40.9945 53.3624 40.1344 53.3624 39.0321C53.3624 37.6431 53.7772 36.6111 54.6068 35.9261C55.4364 35.2435 56.57 34.9048 58.016 34.9048C59.0076 34.9048 60.2619 35.0411 61.7856 35.3146L62.5086 35.4567L62.288 37.6844C60.4024 37.4762 59.0704 37.3671 58.297 37.3671H58.2962ZM123.272 37.6555V49.0501H120.508V37.6555H116.859V35.1642H126.882V37.6555H123.272ZM64.3653 35.1642H67.1358V49.0501H64.3661L64.3653 35.1642ZM80.4185 49.0501V38.305H80.1136L77.4497 48.4378H74.6799L72.0176 38.305H71.7176V49.0501H68.9496V35.1642H73.6619L76.0664 45.2905L78.4734 35.1642H83.1825V49.0501H80.4185ZM87.7626 42.5967H89.9895C91.362 42.5967 92.0527 41.7258 92.0552 39.9757C92.0552 39.1197 91.8834 38.5049 91.552 38.1298C91.219 37.758 90.6984 37.5696 89.9895 37.5696H87.7626V42.5967ZM84.9945 35.1642H90.0077C93.2418 35.1642 94.8597 36.7697 94.8497 39.9881C94.8497 41.6085 94.4407 42.8512 93.6194 43.7147C92.7981 44.5741 91.5908 45.0087 90.0019 45.0087H87.7585V49.0493H84.9945V35.1642ZM96.6618 49.0501V35.1642H99.4258V46.5588H104.417V49.0501H96.6618ZM115.048 49.0501V46.6001H108.993V43.271H113.845V40.859H108.993V37.6134H115.048V35.1642H106.229V49.0501H115.048ZM131.457 35.1642H128.693V49.0501H131.457V35.1642ZM138.605 41.9787C139.259 41.9787 139.747 41.7762 140.07 41.3672C140.393 40.9574 140.55 40.4203 140.55 39.7543C140.55 39.0899 140.38 38.5578 140.04 38.1628C139.699 37.7679 139.206 37.5696 138.564 37.5696H136.039V41.9795L138.605 41.9787ZM138.558 35.1642C141.766 35.1642 143.37 36.6904 143.37 39.7378C143.376 41.5465 142.707 42.8851 141.369 43.7428L143.314 49.0517H140.287L138.701 44.3964H136.033V49.0501H133.269V35.1642H138.558ZM154 46.6001V49.0501H145.181V35.1642H154V37.6134H147.945V40.859H152.799V43.2718H147.945V46.6001H154Z" fill="#232525"/>
</svg>
