<svg width="176" height="84" viewBox="0 0 176 84" fill="none" xmlns="http://www.w3.org/2000/svg">
<g clip-path="url(#clip0_3423_10685)">
<mask id="mask0_3423_10685" style="mask-type:luminance" maskUnits="userSpaceOnUse" x="26" y="30" width="122" height="23">
<path d="M147.996 30.459H26.9961V52.5393H147.996V30.459Z" fill="white"/>
</mask>
<g mask="url(#mask0_3423_10685)">
<path d="M136.987 32.0198C135.118 32.0198 133.29 32.5757 131.736 33.6173C130.182 34.6589 128.971 36.1394 128.255 37.8715C127.54 39.6037 127.353 41.5097 127.717 43.3485C128.082 45.1873 128.982 46.8763 130.304 48.2021C131.626 49.5278 133.31 50.4306 135.143 50.7964C136.976 51.1621 138.877 50.9744 140.604 50.2569C142.331 49.5395 143.807 48.3245 144.845 46.7656C145.884 45.2067 146.438 43.374 146.438 41.4991C146.436 38.9858 145.439 36.5762 143.667 34.799C141.895 33.0218 139.493 32.0223 136.987 32.0198ZM136.987 52.5393C134.81 52.5399 132.681 51.893 130.871 50.6802C129.06 49.4675 127.649 47.7435 126.815 45.7262C125.982 43.709 125.763 41.4891 126.188 39.3473C126.612 37.2055 127.66 35.238 129.199 33.6937C130.739 32.1494 132.7 31.0976 134.835 30.6714C136.97 30.2451 139.184 30.4636 141.195 31.2991C143.207 32.1346 144.926 33.5496 146.136 35.3652C147.345 37.1808 147.991 39.3155 147.991 41.4991C147.988 44.4264 146.828 47.233 144.764 49.3029C142.701 51.3728 139.902 52.5368 136.984 52.5393" fill="#232525"/>
<path d="M132.721 45.7733C132.288 45.3358 132.034 44.7515 132.009 44.1356C131.984 43.5196 132.189 42.9164 132.585 42.4447C132.598 42.432 132.607 42.4157 132.61 42.3979C132.613 42.3801 132.611 42.3617 132.604 42.3451C132.597 42.3285 132.585 42.3145 132.569 42.305C132.554 42.2954 132.536 42.2908 132.518 42.2918L130.956 42.3204C130.907 42.3208 130.859 42.3355 130.819 42.3627C130.778 42.3898 130.746 42.4283 130.727 42.4733C130.406 43.2453 130.33 44.0978 130.509 44.9147C130.689 45.7316 131.115 46.4731 131.731 47.0378C132.524 47.7405 133.557 48.1105 134.615 48.0714C135.673 48.0323 136.675 47.587 137.415 46.8276C138.955 45.2732 141.252 42.9511 141.931 42.2758C142.36 41.849 141.931 41.9 141.931 41.9L140.413 41.8809C140.308 41.8803 140.204 41.9009 140.107 41.9414C140.01 41.9819 139.922 42.0414 139.848 42.1166L136.208 45.7765C135.98 46.0056 135.709 46.1873 135.411 46.3114C135.112 46.4354 134.793 46.4992 134.47 46.4992C134.147 46.4992 133.827 46.4354 133.529 46.3114C133.23 46.1873 132.959 46.0056 132.731 45.7765L132.721 45.7733Z" fill="#232525"/>
<path d="M141.26 37.2216C141.693 37.6597 141.947 38.2447 141.972 38.8615C141.997 39.4782 141.79 40.0818 141.393 40.5534C141.381 40.5664 141.373 40.5827 141.37 40.6002C141.368 40.6178 141.37 40.6357 141.378 40.6518C141.385 40.6679 141.397 40.6814 141.413 40.6905C141.428 40.6996 141.445 40.704 141.463 40.7031L143.025 40.6744C143.074 40.6747 143.121 40.6606 143.162 40.634C143.203 40.6074 143.235 40.5694 143.254 40.5247C143.576 39.7528 143.652 38.9001 143.473 38.0831C143.293 37.2661 142.866 36.5247 142.251 35.9602C141.457 35.2575 140.424 34.8875 139.366 34.9266C138.308 34.9658 137.306 35.411 136.566 36.1704C135.026 37.7248 132.726 40.0437 132.05 40.719C131.621 41.149 132.05 41.098 132.05 41.098L133.568 41.1172C133.78 41.1168 133.983 41.032 134.133 40.8814L137.776 37.2216C138.237 36.7596 138.863 36.5002 139.515 36.5002C140.167 36.5002 140.792 36.7596 141.253 37.2216H141.26Z" fill="#232525"/>
<path d="M135.229 43.2675C135.366 43.4048 135.459 43.5796 135.496 43.7699C135.534 43.9601 135.514 44.1573 135.44 44.3364C135.366 44.5156 135.241 44.6687 135.08 44.7764C134.919 44.8841 134.73 44.9416 134.537 44.9416C134.343 44.9416 134.154 44.8841 133.994 44.7764C133.833 44.6687 133.707 44.5156 133.633 44.3364C133.559 44.1573 133.54 43.9601 133.577 43.7699C133.615 43.5796 133.708 43.4048 133.844 43.2675C133.935 43.1762 134.043 43.1038 134.162 43.0544C134.281 43.0049 134.408 42.9795 134.537 42.9795C134.665 42.9795 134.793 43.0049 134.911 43.0544C135.03 43.1038 135.138 43.1762 135.229 43.2675Z" fill="#232525"/>
<path d="M140.139 38.3424C140.276 38.4796 140.369 38.6545 140.406 38.8447C140.444 39.035 140.424 39.2321 140.35 39.4113C140.276 39.5904 140.151 39.7436 139.99 39.8513C139.829 39.959 139.64 40.0165 139.447 40.0165C139.254 40.0165 139.064 39.959 138.904 39.8513C138.743 39.7436 138.617 39.5904 138.543 39.4113C138.469 39.2321 138.45 39.035 138.487 38.8447C138.525 38.6545 138.618 38.4796 138.755 38.3424C138.938 38.1587 139.187 38.0557 139.447 38.0557C139.706 38.0557 139.955 38.1587 140.139 38.3424Z" fill="#232525"/>
<path d="M31.7183 47.2002C30.9446 47.1988 30.1995 46.906 29.6308 46.3798C29.062 45.8536 28.711 45.1324 28.6474 44.3589C28.6462 44.3365 28.6386 44.315 28.6253 44.2969C28.6121 44.2789 28.5939 44.2651 28.5729 44.2573C28.552 44.2495 28.5292 44.248 28.5075 44.2531C28.4857 44.2581 28.4659 44.2694 28.4505 44.2856L27.0849 45.7063C27.0427 45.7502 27.014 45.8054 27.0021 45.8653C26.9903 45.9251 26.9959 45.9871 27.0182 46.0439C27.4174 47.0163 28.1057 47.8417 28.9893 48.4076C29.873 48.9736 30.909 49.2527 31.9565 49.2069C34.7067 49.0858 36.8408 46.7033 36.8218 43.948C36.8027 41.1927 36.7996 35.5867 36.8059 34.3922C36.8059 33.6309 36.4725 34.0514 36.4725 34.0514L35.1069 35.3892C35.0126 35.4829 34.9378 35.5946 34.8871 35.7176C34.8364 35.8407 34.8107 35.9727 34.8115 36.1059V44.1041C34.8124 44.5111 34.7333 44.9143 34.5787 45.2906C34.4242 45.6669 34.1973 46.0091 33.911 46.2975C33.6246 46.5858 33.2845 46.8148 32.9099 46.9714C32.5353 47.1279 32.1336 47.2089 31.7279 47.2097L31.7183 47.2002Z" fill="#232525"/>
<path d="M43.9429 40.4261H49.5863C49.6656 40.4395 49.7389 40.4774 49.7958 40.5345C49.8527 40.5915 49.8905 40.665 49.9039 40.7446V41.8467C49.89 41.9261 49.8521 41.9993 49.7953 42.0563C49.7384 42.1133 49.6655 42.1513 49.5863 42.1652H43.9429V40.4261ZM41.8565 46.6724H50.5581C50.6374 46.6858 50.7107 46.7237 50.7676 46.7808C50.8245 46.8379 50.8622 46.9113 50.8756 46.9909V48.093C50.8622 48.1726 50.8245 48.246 50.7676 48.3031C50.7107 48.3602 50.6374 48.3981 50.5581 48.4115H40.1161C40.0448 48.4071 39.9776 48.3769 39.9268 48.3265C39.876 48.2762 39.8451 48.209 39.8398 48.1376V34.9187C39.845 34.8469 39.8758 34.7794 39.9265 34.7285C39.9772 34.6776 40.0446 34.6468 40.1161 34.6416H50.3294C50.4086 34.6555 50.4816 34.6935 50.5384 34.7505C50.5952 34.8075 50.6332 34.8807 50.647 34.9601V36.0622C50.6332 36.1416 50.5952 36.2148 50.5384 36.2719C50.4816 36.3289 50.4086 36.3669 50.3294 36.3808H41.8565V46.6724Z" fill="#232525"/>
<path d="M56.723 38.9532C56.3997 38.6135 56.1084 38.2446 55.8528 37.8511H55.783V48.1427C55.7785 48.2139 55.7483 48.281 55.698 48.3314C55.6477 48.3818 55.5808 48.4122 55.5099 48.4167H54.0426C53.9717 48.4122 53.9048 48.3818 53.8545 48.3314C53.8042 48.281 53.774 48.2139 53.7695 48.1427V34.9175C53.774 34.8463 53.8042 34.7792 53.8545 34.7288C53.9048 34.6784 53.9717 34.6481 54.0426 34.6436H55.1415L64.1543 43.8681C64.5368 44.2591 64.8814 44.6857 65.1832 45.1422H65.2753V34.9175C65.2798 34.8463 65.3101 34.7792 65.3603 34.7288C65.4106 34.6784 65.4775 34.6481 65.5485 34.6436H67.0125C67.0835 34.6481 67.1503 34.6784 67.2006 34.7288C67.2509 34.7792 67.2811 34.8463 67.2856 34.9175V48.1427C67.2811 48.2139 67.2509 48.281 67.2006 48.3314C67.1503 48.3818 67.0835 48.4122 67.0125 48.4167H65.9359L56.723 38.9532Z" fill="#232525"/>
<path d="M71.8946 43.78C72.1455 43.78 72.2122 43.8947 72.2122 44.0986C72.2122 45.7995 73.4031 46.9016 76.5185 46.9016C79.3577 46.9016 80.3676 45.7071 80.3676 44.261C80.3676 43.4328 79.8848 42.5633 78.0302 42.4231L74.2193 42.1492C71.4341 41.9262 70.186 40.6776 70.186 38.7409C70.186 36.6514 71.9962 34.3994 76.0041 34.3994C80.2628 34.3994 81.7967 36.352 81.7967 38.7186C81.7967 38.8333 81.7046 38.948 81.4537 38.948H80.1008C79.8721 38.948 79.7832 38.8811 79.7578 38.5594C79.6435 37.3649 78.6812 36.1449 76.0041 36.1449C73.6445 36.1449 72.1931 37.2725 72.1931 38.7409C72.1931 39.5691 72.7457 40.2794 74.3717 40.3941L78.1255 40.6712C81.2631 40.9228 82.3619 42.4645 82.3619 44.2546C82.3619 46.1148 80.8058 48.6408 76.4995 48.6408C72.3106 48.6408 70.1797 46.6659 70.1797 44.2546V44.0253C70.1797 43.8629 70.2496 43.7737 70.4528 43.7737L71.8946 43.78Z" fill="#232525"/>
<path d="M105.028 38.9532C104.707 38.6133 104.418 38.2443 104.165 37.8511H104.095V48.1427C104.09 48.2139 104.06 48.281 104.01 48.3314C103.959 48.3818 103.893 48.4122 103.822 48.4167H102.354C102.283 48.4122 102.216 48.382 102.165 48.3317C102.114 48.2813 102.083 48.2142 102.078 48.1427V34.9175C102.083 34.846 102.114 34.7789 102.165 34.7285C102.216 34.6782 102.283 34.648 102.354 34.6436H103.453L112.453 43.8808C112.837 44.2713 113.183 44.6979 113.485 45.1549H113.574V34.9175C113.58 34.846 113.611 34.7789 113.661 34.7285C113.712 34.6782 113.779 34.648 113.851 34.6436H115.315C115.387 34.6465 115.456 34.676 115.508 34.7265C115.56 34.777 115.592 34.845 115.597 34.9175V48.1427C115.592 48.2142 115.561 48.2813 115.51 48.3317C115.46 48.382 115.392 48.4122 115.321 48.4167H114.248L105.028 38.9532Z" fill="#232525"/>
<path d="M86.5254 41.5282C86.5254 44.9651 89.0375 47.0387 92.064 47.0387C95.1413 47.0387 97.6057 44.9651 97.6057 41.5282C97.6057 38.0435 95.1635 36.0177 92.064 36.0177C89.0375 36.0177 86.5254 38.0435 86.5254 41.5282ZM99.6731 41.5282C99.6731 46.0959 96.2655 48.8288 92.0513 48.8288C87.837 48.8288 84.4453 46.0959 84.4453 41.5282C84.4453 36.9605 87.872 34.2275 92.0513 34.2275C96.2782 34.2275 99.6731 36.9605 99.6731 41.5282Z" fill="#232525"/>
<path d="M118.708 45.153C118.686 45.1515 118.666 45.1423 118.651 45.1271C118.636 45.1119 118.626 45.0917 118.625 45.0702V44.3025C118.626 44.2811 118.636 44.2609 118.651 44.2456C118.666 44.2304 118.686 44.2212 118.708 44.2197H120.765C122.093 44.2197 122.798 45.0575 122.798 46.3188C122.798 47.5802 122.093 48.4179 120.765 48.4179H118.708C118.686 48.4164 118.666 48.4072 118.651 48.392C118.636 48.3768 118.626 48.3566 118.625 48.3351V47.5674C118.626 47.546 118.636 47.5258 118.651 47.5105C118.666 47.4953 118.686 47.4861 118.708 47.4846H120.759C121.607 47.4846 122.029 47.0674 122.029 46.3188C122.029 45.5703 121.62 45.153 120.759 45.153H118.708Z" fill="#232525"/>
<path d="M121.348 42.7102C121.346 42.6944 121.346 42.6783 121.35 42.6628C121.354 42.6472 121.36 42.6326 121.37 42.6198C121.379 42.607 121.391 42.5963 121.405 42.5883C121.419 42.5802 121.434 42.5751 121.45 42.5732C121.799 42.5063 122.018 42.2101 122.018 41.5603C122.018 40.9105 121.774 40.6047 121.479 40.6047C121.288 40.6047 121.117 40.7417 121.082 41.1557L120.999 42.2228C120.932 43.0605 120.548 43.4969 119.932 43.4969C119.221 43.4969 118.566 42.8599 118.566 41.659C118.566 40.4582 119.148 39.8562 119.802 39.8562C119.818 39.8561 119.835 39.8595 119.85 39.8662C119.865 39.8729 119.879 39.8827 119.89 39.895C119.901 39.9074 119.909 39.9219 119.914 39.9377C119.919 39.9535 119.921 39.9702 119.919 39.9868V40.6652C119.922 40.6802 119.921 40.6955 119.917 40.7101C119.913 40.7247 119.906 40.7383 119.896 40.75C119.886 40.7617 119.874 40.7712 119.861 40.778C119.848 40.7848 119.833 40.7887 119.818 40.7894C119.576 40.8308 119.344 41.0634 119.344 41.6654C119.344 42.2674 119.57 42.5636 119.872 42.5636C120.056 42.5636 120.189 42.4426 120.221 42.0635L120.31 40.9997C120.392 40.0441 120.869 39.665 121.437 39.665C122.072 39.665 122.8 40.2193 122.8 41.5507C122.8 42.8025 122.203 43.4969 121.529 43.4969H121.475C121.459 43.4969 121.442 43.4935 121.426 43.4869C121.411 43.4803 121.397 43.4705 121.386 43.4583C121.374 43.4461 121.365 43.4316 121.359 43.4158C121.353 43.4 121.351 43.3832 121.352 43.3663L121.348 42.7102Z" fill="#232525"/>
<path d="M121.296 37.6897V36.3328L120.537 36.7023C120.298 36.811 120.055 36.9067 119.806 36.989V37.0304C120.054 37.1144 120.298 37.2112 120.537 37.3202L121.296 37.6897ZM122.02 36.0175V38.0178L122.655 38.314C122.737 38.3554 122.744 38.3746 122.744 38.4574V39.2728C122.745 39.2797 122.744 39.2868 122.742 39.2935C122.74 39.3002 122.737 39.3065 122.732 39.3119C122.728 39.3173 122.722 39.3217 122.716 39.3248C122.71 39.3279 122.703 39.3298 122.696 39.3301C122.667 39.3254 122.639 39.3157 122.614 39.3015L118.641 37.368V36.6545L122.588 34.7211C122.614 34.7068 122.642 34.6971 122.671 34.6924C122.677 34.6928 122.684 34.6945 122.69 34.6975C122.696 34.7004 122.701 34.7045 122.706 34.7095C122.71 34.7146 122.714 34.7204 122.716 34.7268C122.718 34.7331 122.719 34.7398 122.718 34.7465V35.5556C122.718 35.6384 122.718 35.6575 122.629 35.6989L122.02 36.0175Z" fill="#232525"/>
</g>
</g>
<defs>
<clipPath id="clip0_3423_10685">
<rect width="121" height="22.0803" fill="white" transform="translate(27 30.46)"/>
</clipPath>
</defs>
</svg>
