<svg width="94" height="37" viewBox="0 0 94 37" fill="none" xmlns="http://www.w3.org/2000/svg">
<g clip-path="url(#clip0_3698_5835)">
<mask id="mask0_3698_5835" style="mask-type:luminance" maskUnits="userSpaceOnUse" x="10" y="8" width="73" height="20">
<path d="M83 8.5835H10.3359V27.403H83V8.5835Z" fill="white"/>
</mask>
<g mask="url(#mask0_3698_5835)">
<path d="M26.0033 12.8776H23.2028V10.0734C23.2028 9.25027 22.5369 8.5835 21.7149 8.5835H11.8238C11.0018 8.5835 10.3359 9.25027 10.3359 10.0734V24.2717C10.3359 25.0948 11.0018 25.7616 11.8238 25.7616H24.6317L26.0176 27.1493C26.1801 27.312 26.3984 27.403 26.6277 27.403C27.1041 27.403 27.4912 27.0169 27.4912 26.5384V14.3675C27.4912 13.5444 26.8253 12.8776 26.0033 12.8776ZM26.0622 24.3291H11.7649V10.0143H21.7722V12.8776H16.1122C15.2902 12.8776 14.6244 13.5444 14.6244 14.3675V19.9776C14.6244 20.8007 15.2902 21.4674 16.1122 21.4674H21.7149C22.5369 21.4674 23.2028 20.8007 23.2028 19.9776V14.3101H26.0622V24.3307V24.3291ZM21.7738 14.3085V20.035H16.0549V14.3085H21.7738Z" fill="#D6E4E2"/>
<path d="M49.1837 13.3242C48.607 12.959 47.9267 12.7739 47.1637 12.7739C46.4006 12.7739 45.7204 12.959 45.1438 13.3242C44.5671 13.6896 44.1131 14.208 43.7913 14.8668C43.4711 15.5239 43.3086 16.3008 43.3086 17.1781C43.3086 18.0554 43.4711 18.8211 43.7913 19.4735C44.1131 20.1291 44.5687 20.646 45.1438 21.0112C45.7204 21.3765 46.4006 21.5615 47.1637 21.5615C47.9267 21.5615 48.607 21.3765 49.1837 21.0112C49.7603 20.646 50.2143 20.1291 50.5361 19.4735C50.8564 18.8211 51.0188 18.049 51.0188 17.1781C51.0188 16.3071 50.8564 15.5224 50.5361 14.8668C50.2143 14.208 49.7588 13.6896 49.1837 13.3242ZM49.3223 18.7063C49.1502 19.1688 48.8826 19.5469 48.5273 19.8308C48.1737 20.1116 47.7149 20.2551 47.1637 20.2551C46.6125 20.2551 46.1537 20.1132 45.8001 19.8308C45.4432 19.5469 45.1756 19.1688 45.0052 18.7063C44.8315 18.2388 44.7439 17.7252 44.7439 17.1781C44.7439 16.631 44.8315 16.1158 45.0052 15.6452C45.1772 15.1794 45.4448 14.7966 45.8016 14.5095C46.1553 14.2255 46.6141 14.0803 47.1653 14.0803C47.7165 14.0803 48.1753 14.2239 48.5289 14.5095C48.8857 14.7966 49.1534 15.1778 49.3254 15.6452C49.4991 16.1158 49.5867 16.6326 49.5867 17.1781C49.5867 17.7237 49.4991 18.2388 49.3254 18.7063H49.3223Z" fill="#D6E4E2"/>
<path d="M56.0567 14.0844L56.0472 12.8402C56.0472 12.7939 56.0089 12.7572 55.9643 12.7556C55.8592 12.754 55.7684 12.7524 55.6919 12.7524C55.179 12.7524 54.7122 12.8864 54.3028 13.1512C53.9412 13.3841 53.6751 13.684 53.5095 14.0429V12.9678C53.5095 12.9215 53.4712 12.8832 53.425 12.8832H52.2016C52.1554 12.8832 52.1172 12.9215 52.1172 12.9678V21.3551C52.1172 21.4013 52.1554 21.4396 52.2016 21.4396H53.4681C53.5143 21.4396 53.5525 21.4013 53.5525 21.3551V16.0257C53.5525 15.6651 53.6401 15.3398 53.8153 15.0574C53.9906 14.7751 54.2327 14.5501 54.5354 14.3891C54.8396 14.228 55.1917 14.145 55.582 14.145C55.7126 14.145 55.84 14.153 55.9611 14.1673C56.0121 14.1737 56.0551 14.1354 56.0551 14.0844H56.0567Z" fill="#D6E4E2"/>
<path d="M65.9167 12.8838H67.1834C67.2294 12.8838 67.2675 12.9221 67.2675 12.9683V21.3891C67.2675 21.4353 67.2294 21.4736 67.1834 21.4736H65.9167C65.8707 21.4736 65.832 21.4353 65.832 21.3891V12.9683C65.832 12.9221 65.8707 12.8838 65.9167 12.8838Z" fill="#D6E4E2"/>
<path d="M66.5633 9.75146C66.2941 9.75146 66.0599 9.84398 65.867 10.029C65.673 10.2141 65.5742 10.439 65.5742 10.699C65.5742 10.959 65.673 11.1839 65.867 11.3689C66.0599 11.5524 66.2941 11.6465 66.5633 11.6465C66.8325 11.6465 67.0667 11.554 67.2596 11.3689C67.4536 11.1839 67.5524 10.959 67.5524 10.699C67.5524 10.439 67.4536 10.2141 67.2596 10.029C67.0667 9.84558 66.8325 9.75146 66.5633 9.75146Z" fill="#D6E4E2"/>
<path d="M74.1036 13.2684C73.7691 13.069 73.4204 12.935 73.0618 12.8696C72.71 12.8058 72.3942 12.7739 72.1218 12.7739C71.6984 12.7739 71.2603 12.8329 70.8238 12.9478C70.3821 13.0642 69.9712 13.27 69.6016 13.5603C69.2498 13.8363 68.9612 14.2175 68.7448 14.6945C68.7239 14.7392 68.7464 14.7934 68.7924 14.8093L69.9937 15.2496C70.0334 15.264 70.0763 15.2464 70.0972 15.2081C70.2373 14.9401 70.4636 14.6833 70.7742 14.4441C71.1056 14.1872 71.574 14.058 72.1663 14.058C72.7591 14.058 73.159 14.2 73.4329 14.4807C73.7084 14.7615 73.847 15.1634 73.847 15.6771V15.7201C73.847 15.8988 73.7884 16.0185 73.6656 16.0886C73.5286 16.1668 73.3054 16.2226 73.0011 16.2561C72.6859 16.2896 72.2698 16.3406 71.7648 16.406C71.378 16.4571 70.9874 16.5257 70.6053 16.6119C70.2185 16.698 69.8598 16.8304 69.5394 17.0026C69.2148 17.1781 68.9502 17.4238 68.7558 17.7332C68.5597 18.0427 68.4609 18.4494 68.4609 18.9408C68.4609 19.4975 68.5932 19.9792 68.8546 20.3732C69.1144 20.7656 69.4709 21.0702 69.9121 21.276C70.3523 21.4818 70.8458 21.5855 71.3842 21.5855C71.8782 21.5855 72.3017 21.5105 72.6477 21.3621C72.9917 21.2138 73.2719 21.0304 73.4805 20.8182C73.6352 20.6603 73.7581 20.5087 73.8485 20.3636V21.3653C73.8485 21.4084 73.8836 21.4419 73.9254 21.4419H75.2077C75.2506 21.4419 75.284 21.4068 75.284 21.3653V15.8111C75.284 15.1379 75.1711 14.5908 74.9495 14.1856C74.7263 13.7805 74.4413 13.4726 74.1036 13.27V13.2684ZM73.8485 18.2867C73.8485 18.6201 73.7612 18.9408 73.5908 19.2438C73.4188 19.5453 73.1621 19.7957 72.826 19.9871C72.4899 20.1786 72.0711 20.2758 71.5803 20.2758C71.0894 20.2758 70.6785 20.1658 70.3617 19.9489C70.0496 19.7351 69.898 19.4272 69.898 19.0045C69.898 18.6999 69.979 18.4574 70.1401 18.2819C70.3058 18.1017 70.529 17.9645 70.8029 17.8736C71.0847 17.7795 71.3921 17.7109 71.7204 17.6678C71.8573 17.6503 72.0377 17.6263 72.2604 17.5992C72.4836 17.5721 72.7162 17.5386 72.9536 17.5003C73.1925 17.462 73.4073 17.4158 73.5924 17.3615C73.6975 17.3312 73.7816 17.2993 73.8485 17.2643V18.2867Z" fill="#D6E4E2"/>
<path d="M82.4291 17.4972C82.0548 17.1175 81.4813 16.8304 80.7265 16.6469L79.4886 16.3423C79.0092 16.2226 78.6537 16.0711 78.4321 15.894C78.2188 15.7233 78.1137 15.4952 78.1137 15.1986C78.1137 14.8636 78.2684 14.594 78.5884 14.3739C78.912 14.1505 79.326 14.0373 79.8184 14.0373C80.1765 14.0373 80.4745 14.0947 80.7008 14.208C80.9288 14.3212 81.1102 14.4664 81.2409 14.6403C81.3569 14.7934 81.451 14.9529 81.5195 15.114C81.5373 15.1539 81.5786 15.1746 81.6199 15.1634L82.7574 14.8316C82.8034 14.8173 82.8306 14.7662 82.8149 14.72C82.6074 14.1521 82.2712 13.6864 81.8112 13.3338C81.3266 12.9622 80.6559 12.7739 79.8184 12.7739C79.224 12.7739 78.684 12.8808 78.2156 13.0914C77.7441 13.3019 77.3667 13.5986 77.0943 13.9703C76.8204 14.3452 76.6798 14.7806 76.6798 15.2671C76.6798 15.8605 76.8664 16.363 77.236 16.757C77.6009 17.1494 78.179 17.4413 78.9548 17.6248L80.3454 17.9517C80.75 18.0458 81.0511 18.1878 81.2424 18.3745C81.4322 18.5579 81.5226 18.7796 81.5226 19.0508C81.5226 19.3858 81.3601 19.6665 81.0255 19.909C80.6878 20.1531 80.2246 20.2775 79.6459 20.2775C79.1394 20.2775 78.7269 20.169 78.4164 19.9537C78.1278 19.7542 77.9239 19.4559 77.8095 19.0652C77.7969 19.0221 77.7519 18.995 77.7091 19.0062L76.5031 19.306C76.4586 19.3172 76.4299 19.3635 76.4393 19.4081C76.6019 20.0956 76.9621 20.63 77.513 20.9937C78.0802 21.3701 78.8053 21.5615 79.6684 21.5615C80.325 21.5615 80.9079 21.4499 81.405 21.2282C81.9037 21.0065 82.2984 20.697 82.5791 20.311C82.8609 19.9217 83.0041 19.4751 83.0041 18.9822C83.0041 18.3808 82.8112 17.88 82.4338 17.4955L82.4291 17.4972Z" fill="#D6E4E2"/>
<path d="M37.3556 19.6717C36.6403 19.6717 36.3583 19.4883 36.3583 19.0353C36.3583 18.485 37.0752 18.2138 37.0752 18.2138C37.5499 18.394 38.1091 18.4833 38.7128 18.4833C40.7471 18.4833 42.1968 17.4082 42.1968 15.6918C42.1968 15.3218 42.0741 14.6917 41.5723 14.0807H43.1143C43.1605 14.0807 43.1987 14.0425 43.1987 13.9962V12.9674C43.1987 12.9211 43.1605 12.8828 43.1143 12.8828H38.7128C36.6977 12.8828 35.2671 13.9579 35.2671 15.6918C35.2671 16.5963 35.6622 17.3316 36.3408 17.8229C35.6064 18.1436 35.0983 18.6525 35.0983 19.3686C35.0983 19.9333 35.377 20.4358 35.9935 20.7086C35.7259 20.7772 34.4961 21.1967 34.4961 22.5191C34.4961 24.0472 36.3408 24.7443 38.5631 24.7443C41.0116 24.7443 43.3087 23.9515 43.3087 21.8969C43.3087 20.6144 42.3672 19.6717 40.5782 19.6717H37.3556ZM38.7192 14.0824C39.9745 14.0824 40.7455 14.655 40.7455 15.7014C40.7455 16.7478 39.9761 17.2854 38.7192 17.2854C37.4623 17.2854 36.7136 16.7127 36.7136 15.7014C36.7136 14.6901 37.483 14.0824 38.7192 14.0824ZM38.5647 23.5304C37.0147 23.5304 35.9425 23.1045 35.9425 22.1283C35.9425 21.294 36.6897 21.0276 37.5499 21.0276H40.2485C41.225 21.0276 41.8559 21.2764 41.8559 21.9863C41.8559 23.1045 40.4779 23.5304 38.5647 23.5304Z" fill="#D6E4E2"/>
<path d="M58.758 19.6717C58.0427 19.6717 57.7607 19.4883 57.7607 19.0353C57.7607 18.485 58.4775 18.2138 58.4775 18.2138C58.9523 18.394 59.5114 18.4833 60.1152 18.4833C62.1495 18.4833 63.5991 17.4082 63.5991 15.6918C63.5991 15.3218 63.4763 14.6917 62.9744 14.0807H64.5166C64.5631 14.0807 64.6012 14.0425 64.6012 13.9962V12.9674C64.6012 12.9211 64.5631 12.8828 64.5166 12.8828H60.1152C58.1 12.8828 56.6695 13.9579 56.6695 15.6918C56.6695 16.5963 57.0646 17.3316 57.7432 17.8229C57.0088 18.1436 56.5006 18.6525 56.5006 19.3686C56.5006 19.9333 56.7794 20.4358 57.3959 20.7086C57.1283 20.7772 55.8984 21.1967 55.8984 22.5191C55.8984 24.0472 57.7432 24.7443 59.9654 24.7443C62.4139 24.7443 64.711 23.9515 64.711 21.8969C64.711 20.6144 63.7695 19.6717 61.9806 19.6717H58.758ZM60.1216 14.0824C61.3768 14.0824 62.1479 14.655 62.1479 15.7014C62.1479 16.7478 61.3785 17.2854 60.1216 17.2854C58.8646 17.2854 58.1159 16.7127 58.1159 15.7014C58.1159 14.6901 58.8853 14.0824 60.1216 14.0824ZM59.967 23.5304C58.417 23.5304 57.3449 23.1045 57.3449 22.1283C57.3449 21.294 58.0921 21.0276 58.9523 21.0276H61.6509C62.6273 21.0276 63.2583 21.2764 63.2583 21.9863C63.2583 23.1045 61.8803 23.5304 59.967 23.5304Z" fill="#D6E4E2"/>
</g>
</g>
<defs>
<clipPath id="clip0_3698_5835">
<rect width="72.6641" height="19.3422" fill="white" transform="translate(10.3359 8.29102)"/>
</clipPath>
</defs>
</svg>
