<svg width="804" height="83" viewBox="0 0 804 83" fill="none" xmlns="http://www.w3.org/2000/svg">
<rect width="83" height="83" rx="12" fill="white"/>
<g clip-path="url(#clip0_3302_24202)">
<path d="M41.5031 44.3926C47.9343 44.3926 53.35 39.2692 53.35 32.8237C53.35 26.5435 48.1036 21.2549 41.5031 21.2549C34.9027 21.2549 29.6562 26.3782 29.6562 32.8237C29.6562 39.2692 35.072 44.3926 41.5031 44.3926Z" fill="#FFCD00"/>
<path d="M41.5027 50.1775C33.2099 50.1775 26.271 44.7236 24.4093 37.1212C23.7323 34.8075 21.8707 32.8242 19.5013 32.8242H12.0547C12.0547 48.6901 25.2555 61.5811 41.5027 61.5811V50.1775Z" fill="#00ECBB"/>
<path d="M41.5 50.1775C49.7928 50.1775 56.7317 44.7236 58.5934 37.1212C59.2703 34.8075 61.132 32.8242 63.5014 32.8242H70.948C70.948 48.6901 57.7472 61.5811 41.5 61.5811V50.1775Z" fill="#AF64FF"/>
<path d="M62.3209 53.3169C57.0744 58.4403 49.6278 61.7457 41.5042 61.7457C33.3806 61.7457 25.934 58.6056 20.6875 53.3169L28.9803 45.2188C32.1959 48.3589 36.5962 50.3421 41.5042 50.3421C46.4122 50.3421 50.8125 48.3589 54.028 45.2188L62.3209 53.3169Z" fill="#7131FF"/>
</g>
<rect x="103" width="83" height="83" rx="12" fill="white"/>
<g clip-path="url(#clip1_3302_24202)">
<path d="M166.495 19.4927H137.17V34.164H122.508V63.5068H151.833V48.8357H166.495V19.4927Z" fill="white"/>
<path d="M122.508 48.835V34.1633H137.171H122.508V48.835" fill="#AEE5F5"/>
<path d="M151.833 63.5068H137.171V48.8357H122.508L122.508 34.164H137.171H137.171V48.8357H151.833V63.5068Z" fill="white"/>
<path d="M151.833 63.5068H137.171V48.8357H122.508L122.508 34.164H137.171H137.171V48.8357H151.833V63.5068Z" fill="#AEE5F5"/>
<path d="M122.508 63.5068H137.17V48.8357H122.508V63.5068Z" fill="#457DC8"/>
<path d="M166.497 48.835L166.497 34.1633H166.497V48.835ZM151.835 19.4921H137.172H137.172H151.835Z" fill="#34BDE9"/>
<path d="M166.497 48.835H151.834V34.1633H137.172V19.4921H151.834V34.1633H166.497L166.497 48.835" fill="white"/>
<path d="M166.497 48.835H151.834V34.1633H137.172V19.4921H151.834V34.1633H166.497L166.497 48.835" fill="#34BDE9"/>
<path d="M137.172 48.835H151.834V34.1634H137.172V48.835Z" fill="white"/>
<path d="M137.172 48.835H151.834V34.1634H137.172V48.835Z" fill="#34BDE9"/>
<path d="M166.498 34.1641H151.836V19.4928H166.498V34.1641Z" fill="#457DC8"/>
</g>
<rect x="206" width="83" height="83" rx="12" fill="white"/>
<g clip-path="url(#clip2_3302_24202)">
<path d="M264.03 16.1738H230.946C226.108 16.1738 222.18 20.1018 222.18 24.9403V58.0243C222.18 62.8628 226.108 66.7908 230.946 66.7908H234.642H246.015V59.5419C246.015 52.5609 245.158 47.1867 239.963 45.6513V39.9379C248.408 40.6878 252.603 46.9725 252.603 57.3101V66.8265H259.477H264.048C268.887 66.8265 272.814 62.8985 272.814 58.06V24.9403C272.797 20.1018 268.869 16.1738 264.03 16.1738ZM247.747 34.4566C245.069 34.4566 242.891 32.2784 242.891 29.6003C242.891 26.9221 245.069 24.7439 247.747 24.7439C250.425 24.7439 252.586 26.9221 252.586 29.6181C252.586 32.2963 250.425 34.4566 247.747 34.4566Z" fill="black"/>
</g>
<rect x="309" width="83" height="83" rx="12" fill="white"/>
<g clip-path="url(#clip3_3302_24202)">
<path d="M350.498 14.7451C335.693 14.7451 323.742 26.6958 323.742 41.5005C323.742 56.3051 335.693 68.2558 350.498 68.2558C365.302 68.2558 377.253 56.3051 377.253 41.5005C377.253 26.6958 365.302 14.7451 350.498 14.7451ZM350.498 61.121C339.617 61.121 330.877 52.381 330.877 41.5005C330.877 30.62 339.617 21.8799 350.498 21.8799C361.378 21.8799 370.118 30.62 370.118 41.5005C370.118 52.381 361.378 61.121 350.498 61.121ZM362.627 34.9008C362.627 37.9331 360.129 40.4302 357.097 40.4302C354.065 40.4302 351.568 37.9331 351.568 34.9008C351.568 31.8685 354.065 29.3714 357.097 29.3714C360.129 29.3714 362.627 31.8685 362.627 34.9008ZM362.627 48.1001C362.627 51.1324 360.129 53.6295 357.097 53.6295C354.065 53.6295 351.568 51.1324 351.568 48.1001C351.568 45.0678 354.065 42.5707 357.097 42.5707C360.129 42.5707 362.627 45.0678 362.627 48.1001ZM349.427 48.1001C349.427 51.1324 346.93 53.6295 343.898 53.6295C340.866 53.6295 338.368 51.1324 338.368 48.1001C338.368 45.0678 340.866 42.5707 343.898 42.5707C346.93 42.5707 349.427 45.0678 349.427 48.1001ZM349.427 34.9008C349.427 37.9331 346.93 40.4302 343.898 40.4302C340.866 40.4302 338.368 37.9331 338.368 34.9008C338.368 31.8685 340.866 29.3714 343.898 29.3714C346.93 29.3714 349.427 31.8685 349.427 34.9008Z" fill="#F22F46"/>
</g>
<rect x="412" width="83" height="83" rx="12" fill="white"/>
<path d="M476.238 16.3076H430.756C429.402 16.3076 428.305 17.4052 428.305 18.7591V64.2414C428.305 65.5953 429.402 66.6928 430.756 66.6928H476.238C477.592 66.6928 478.69 65.5953 478.69 64.2414V18.7591C478.69 17.4052 477.592 16.3076 476.238 16.3076Z" fill="#E7EDF7"/>
<path fill-rule="evenodd" clip-rule="evenodd" d="M457.595 30.9355L446.905 45.7919L440.592 42.1508L439.68 43.7275L448.239 50.7653L459.175 31.8469L457.595 30.9355ZM465.732 31.4241L455.04 46.2787L453.462 45.3691L452.096 47.7332L456.374 51.2522L467.31 32.3337L465.732 31.4241Z" fill="#0042E4"/>
<rect x="515" width="83" height="83" rx="12" fill="white"/>
<rect width="50.0506" height="50.0506" transform="translate(531.477 16.4746)" fill="#F9436B"/>
<path d="M549.759 33.7656C551.698 33.7656 553.143 34.5897 554.374 35.5593C554.946 36.0102 555.416 36.5531 555.833 37.1494C555.891 37.2318 555.906 37.2997 555.853 37.3821C555.436 38.085 555.213 38.8558 555.038 39.646C555.033 39.6751 555.019 39.7042 555.009 39.7284C555.009 39.7332 554.994 39.7381 554.985 39.7381C553.972 36.524 550.728 35.186 548.082 35.8647C545.318 36.5725 543.626 38.8946 543.694 41.5948C543.767 44.5326 545.847 46.7431 548.557 47.1552C551.48 47.5964 554.064 45.9384 554.975 43.214C555.038 43.2721 555.043 43.3497 555.057 43.4224C555.358 44.8622 556.012 46.1226 556.953 47.2473C557.792 48.2508 558.81 49.0168 559.988 49.5791C560.089 49.6276 560.245 49.6664 560.279 49.7488C560.317 49.8457 560.172 49.933 560.109 50.0251C559.256 51.2274 558.233 52.2648 557.089 53.1907C556.977 53.2828 556.861 53.3701 556.749 53.4719C556.672 53.5446 556.609 53.5494 556.517 53.4816C555.542 52.735 554.66 51.8963 553.87 50.9559C553.288 50.2626 552.76 49.5306 552.318 48.7404C552.27 48.6532 552.222 48.6289 552.125 48.6677C551.048 49.1137 549.914 49.2107 548.77 49.1428C547.829 49.0846 546.937 48.8083 546.094 48.3962C544.499 47.6158 543.302 46.4232 542.521 44.8283C541.993 43.7472 541.731 42.6031 541.76 41.3912C541.779 40.6398 541.847 39.9029 542.09 39.1855C542.24 38.7346 542.419 38.2983 542.531 37.8378C542.88 36.4513 542.652 35.1618 541.881 33.9595C541.842 33.8965 541.804 33.8286 541.77 33.7656C544.688 33.7656 546.85 33.7656 549.759 33.7656Z" fill="#F5FFFE"/>
<path d="M571.522 33.7656C571.304 34.1534 571.057 34.517 570.902 34.9388C570.509 36.0441 570.49 37.1445 570.863 38.2595C571.047 38.8073 571.275 39.3406 571.377 39.9175C571.542 40.8531 571.605 41.7887 571.435 42.7292C571.14 44.3726 570.412 45.793 569.215 46.9565C567.974 48.1635 566.486 48.9004 564.76 49.1137C563.107 49.3173 561.531 49.0265 560.077 48.1926C558.046 47.0292 556.766 45.3131 556.281 43.0152C556.126 42.2783 556.058 41.5269 556.131 40.7755C556.213 39.9369 556.412 39.1273 556.761 38.3613C557.488 36.7713 558.632 35.5642 560.15 34.7061C561.086 34.1773 562.42 33.7656 563.655 33.7656C566.728 33.7656 571.522 33.7656 571.522 33.7656ZM558.075 41.4785C558.075 44.7362 560.702 47.3637 564.11 47.2231C567.106 47.097 569.7 44.678 569.608 41.2555C569.53 38.3225 567.145 35.6563 563.727 35.7047C560.726 35.7484 558.075 38.1141 558.075 41.4785Z" fill="#F5FFFE"/>
<path d="M550.921 42.2489C550.746 42.2732 550.591 42.2586 550.431 42.2586C550.339 42.2586 550.291 42.2392 550.276 42.1277C550.228 41.7496 549.825 41.4297 549.437 41.4345C549.045 41.4394 548.686 41.7545 548.638 42.1471C548.628 42.2247 548.604 42.2538 548.526 42.2538C548.187 42.2538 547.847 42.2538 547.513 42.2538C547.435 42.2538 547.406 42.2199 547.416 42.1423C547.489 41.2358 548.143 40.4843 549.045 40.2807C550.058 40.048 551.313 40.7704 551.459 41.9678C551.493 42.2538 551.498 42.2538 551.202 42.2538C551.1 42.2538 550.998 42.2538 550.916 42.2538L550.921 42.2489Z" fill="#F5FFFE"/>
<path d="M565.263 42.249C565.098 42.249 564.928 42.249 564.763 42.249C564.691 42.249 564.662 42.2296 564.652 42.1472C564.613 41.7691 564.254 41.4491 563.857 41.4346C563.445 41.42 563.076 41.706 563.018 42.1132C562.999 42.2344 562.96 42.2587 562.849 42.2587C562.548 42.2538 562.243 42.2538 561.942 42.2587C561.83 42.2587 561.797 42.2199 561.806 42.1084C561.879 41.3037 562.31 40.7365 563.028 40.4165C563.75 40.0917 564.453 40.1984 565.088 40.688C565.568 41.0564 565.801 41.5606 565.878 42.1472C565.888 42.2296 565.864 42.2538 565.786 42.2538C565.617 42.2538 565.442 42.2538 565.272 42.2538L565.263 42.249Z" fill="#F5FFFE"/>
<rect x="618" width="83" height="83" rx="12" fill="white"/>
<g clip-path="url(#clip4_3302_24202)">
<mask id="mask0_3302_24202" style="mask-type:luminance" maskUnits="userSpaceOnUse" x="640" y="16" width="39" height="51">
<path d="M640.82 16.2588L678.177 16.3596L677.975 66.7404L640.82 66.6396V16.2588Z" fill="white"/>
</mask>
<g mask="url(#mask0_3302_24202)">
<path fill-rule="evenodd" clip-rule="evenodd" d="M668.08 46.5881C666.464 48.0995 663.94 48.6033 661.921 47.4949C660.306 46.5881 659.094 44.7743 659.094 42.8599C659.094 41.4492 659.599 40.2401 660.306 39.0309C661.113 37.5195 662.022 36.3104 662.931 34.7989C663.637 33.2875 664.344 31.7761 664.445 30.1639C664.849 27.3426 663.94 24.5212 662.83 22.0022C662.325 21.0953 661.82 20.0877 661.315 19.1809C660.911 18.6771 660.609 17.9717 660.205 17.4679C659.7 16.8634 659.296 16.2588 658.69 16.2588C658.387 16.2588 658.185 16.3596 658.084 16.4603C657.782 16.6618 657.58 16.9641 657.58 17.4679C657.58 17.9717 657.681 18.4755 657.681 18.9794C657.681 19.4832 657.681 19.987 657.58 20.4908C657.479 21.4984 657.176 22.506 656.974 23.4129C656.671 24.3197 656.166 25.3273 655.762 26.1334C655.358 26.8388 654.955 27.5441 654.349 28.1487C651.926 31.0708 648.695 32.8845 646.07 35.605C642.132 39.6355 640.214 45.6812 641.022 51.4246C641.123 52.13 641.325 52.936 641.527 53.5406C644.454 55.2536 647.887 56.3619 651.522 56.3619C660.003 56.3619 667.575 51.0216 670.301 43.2629C669.695 44.5728 668.989 45.6812 668.08 46.5881Z" fill="#E88323"/>
<path fill-rule="evenodd" clip-rule="evenodd" d="M668.08 46.5881C666.464 48.0995 663.94 48.6033 661.921 47.4949C660.306 46.5881 659.094 44.7743 659.094 42.8599C659.094 41.4492 659.599 40.2401 660.306 39.0309C661.113 37.5195 662.022 36.3104 662.931 34.7989C663.637 33.2875 664.344 31.7761 664.445 30.1639C664.849 27.3426 663.94 24.5212 662.83 22.0022C662.325 21.0953 661.82 20.0877 661.315 19.1809C660.911 18.6771 660.609 17.9717 660.205 17.4679C659.7 16.8634 659.296 16.2588 658.69 16.2588C658.387 16.2588 658.185 16.3596 658.084 16.4603C657.782 16.6618 657.58 16.9641 657.58 17.4679C657.58 17.9717 657.681 18.4755 657.681 18.9794C657.681 19.4832 657.681 19.987 657.58 20.4908C657.479 21.4984 657.176 22.506 656.974 23.4129C656.671 24.3197 656.166 25.3273 655.762 26.1334C655.358 26.8388 654.955 27.5441 654.349 28.1487C651.926 31.0708 648.695 32.8845 646.07 35.605C642.132 39.6355 640.214 45.6812 641.022 51.4246C641.123 52.13 641.325 52.936 641.527 53.5406C644.454 55.2536 647.887 56.3619 651.522 56.3619C660.003 56.3619 667.575 51.0216 670.301 43.2629C669.695 44.5728 668.989 45.6812 668.08 46.5881Z" fill="url(#paint0_linear_3302_24202)" fill-opacity="0.2"/>
<path fill-rule="evenodd" clip-rule="evenodd" d="M677.469 45.6812C677.267 44.2705 676.964 42.8599 676.358 41.55C675.955 40.6431 675.551 39.837 675.046 38.9302C674.642 38.4264 674.339 37.9226 673.935 37.4187C673.531 37.0157 673.33 36.4111 672.623 36.4111C671.916 36.4111 671.613 36.9149 671.512 37.5195C671.209 39.2325 671.007 41.1469 670.301 42.7591C667.575 50.5178 660.103 55.8581 651.32 55.8581C647.685 55.8581 644.252 54.9513 641.324 53.2383C641.526 53.9437 641.829 54.649 642.031 55.3543C643.646 59.1833 646.675 62.4076 650.31 64.4229C656.469 67.748 664.445 67.1434 670.099 63.0122C671.916 61.7023 673.531 59.9894 674.743 58.1757C675.955 56.3619 676.762 54.2459 677.267 52.13C677.772 50.1147 677.873 47.7972 677.469 45.6812Z" fill="#F8981D"/>
<path fill-rule="evenodd" clip-rule="evenodd" d="M677.469 45.6812C677.267 44.2705 676.964 42.8599 676.358 41.55C675.955 40.6431 675.551 39.837 675.046 38.9302C674.642 38.4264 674.339 37.9226 673.935 37.4187C673.531 37.0157 673.33 36.4111 672.623 36.4111C671.916 36.4111 671.613 36.9149 671.512 37.5195C671.209 39.2325 671.007 41.1469 670.301 42.7591C667.575 50.5178 660.103 55.8581 651.32 55.8581C647.685 55.8581 644.252 54.9513 641.324 53.2383C641.526 53.9437 641.829 54.649 642.031 55.3543C643.646 59.1833 646.675 62.4076 650.31 64.4229C656.469 67.748 664.445 67.1434 670.099 63.0122C671.916 61.7023 673.531 59.9894 674.743 58.1757C675.955 56.3619 676.762 54.2459 677.267 52.13C677.772 50.1147 677.873 47.7972 677.469 45.6812Z" fill="url(#paint1_linear_3302_24202)" fill-opacity="0.4"/>
</g>
</g>
<rect x="721" width="83" height="83" rx="12" fill="white"/>
<g clip-path="url(#clip5_3302_24202)">
<path d="M741.035 28.2071C741.164 25.884 743.226 23.819 745.739 24.0126C746.513 24.1417 747.286 24.1417 748.575 25.1096C754.375 30.143 757.791 39.1773 756.824 46.8564C756.695 47.3081 756.373 47.1791 756.18 46.8564C754.633 41.3713 749.284 34.9828 744.45 33.1114C742.13 32.1434 740.841 30.4011 741.035 28.2071Z" fill="black"/>
<path d="M782.221 27.755C782.221 24.1412 779.256 21.0438 775.067 21.1728C766.947 21.3664 755.862 42.4679 762.242 61.5044C762.371 61.9561 762.693 61.8271 762.693 61.3753C763.531 48.0821 771.651 37.5636 778.676 33.6918C781.447 32.143 782.221 30.2716 782.221 27.755Z" fill="black"/>
<path d="M737.429 46.9849C737.622 49.6307 739.749 50.8567 741.94 50.8567C746.645 50.8567 752.381 53.0508 755.861 55.8901C756.183 56.2128 756.183 56.0192 755.99 55.4384C754.636 50.5986 747.096 42.4678 741.811 42.4678C738.976 42.5968 737.3 44.9199 737.429 46.9849Z" fill="black"/>
<path d="M787.568 46.9849C787.439 49.6307 785.248 50.9213 783.057 50.9213C778.352 50.9213 772.616 53.1153 769.136 55.9546C768.814 56.2773 768.814 56.0837 769.007 55.5029C770.36 50.5986 777.901 42.4678 783.185 42.4678C786.15 42.5968 787.697 44.9199 787.568 46.9849Z" fill="black"/>
</g>
<defs>
<linearGradient id="paint0_linear_3302_24202" x1="655.53" y1="16.2588" x2="655.53" y2="56.3615" gradientUnits="userSpaceOnUse">
<stop stop-color="white"/>
<stop offset="1" stop-color="white" stop-opacity="0"/>
</linearGradient>
<linearGradient id="paint1_linear_3302_24202" x1="659.599" y1="36.4476" x2="659.599" y2="66.583" gradientUnits="userSpaceOnUse">
<stop stop-color="white"/>
<stop offset="1" stop-color="white" stop-opacity="0"/>
</linearGradient>
<clipPath id="clip0_3302_24202">
<rect width="58.896" height="40.491" fill="white" transform="translate(12.0547 21.2549)"/>
</clipPath>
<clipPath id="clip1_3302_24202">
<rect width="46.8603" height="44.0145" fill="white" transform="translate(121.07 19.4932)"/>
</clipPath>
<clipPath id="clip2_3302_24202">
<rect width="50.6526" height="50.6526" fill="white" transform="translate(222.172 16.1738)"/>
</clipPath>
<clipPath id="clip3_3302_24202">
<rect width="53.5107" height="53.5107" fill="white" transform="translate(323.742 14.7451)"/>
</clipPath>
<clipPath id="clip4_3302_24202">
<rect width="37.3564" height="50.4816" fill="white" transform="translate(640.82 16.2588)"/>
</clipPath>
<clipPath id="clip5_3302_24202">
<rect width="50.1402" height="40.6542" fill="white" transform="translate(737.43 21.1729)"/>
</clipPath>
</defs>
</svg>
