<svg width="804" height="83" viewBox="0 0 804 83" fill="none" xmlns="http://www.w3.org/2000/svg">
<rect width="83" height="83" rx="12" fill="white"/>
<g clip-path="url(#clip0_3302_24129)">
<path d="M36.5381 36.1245V34.1498C35.8581 34.0571 35.1679 34 34.4637 34C25.9762 34 19.0703 40.8823 19.0703 49.3421C19.0703 54.5327 21.672 59.1255 25.6426 61.9023C23.0804 59.161 21.509 55.4895 21.509 51.4564C21.509 43.1184 28.2187 36.3186 36.5394 36.1245H36.5381Z" fill="#25F4EE"/>
<path d="M36.9018 58.4629C40.689 58.4629 43.7784 55.4603 43.9184 51.7203L43.9325 18.3177H50.0552C49.9278 17.6311 49.8578 16.9255 49.8578 16.2021H41.4951L41.4811 49.6047C41.341 53.3447 38.2516 56.3474 34.4644 56.3474C33.2878 56.3474 32.1786 56.0542 31.2031 55.5428C32.4804 57.3081 34.5561 58.4629 36.9018 58.4629Z" fill="#25F4EE"/>
<path d="M61.4929 29.6549V27.7982C59.1574 27.7982 56.9811 27.1065 55.1562 25.9199C56.7812 27.7791 58.988 29.1206 61.4929 29.6549Z" fill="#25F4EE"/>
<path d="M55.1561 25.9195C53.3758 23.8826 52.2947 21.2239 52.2947 18.3164H50.0547C50.6443 21.4917 52.5354 24.2164 55.1561 25.9195Z" fill="#FE2C55"/>
<path d="M34.4643 42.3354C30.5879 42.3354 27.4336 45.4789 27.4336 49.342C27.4336 52.0325 28.9655 54.3702 31.203 55.5428C30.3689 54.3905 29.8722 52.9818 29.8722 51.4563C29.8722 47.5932 33.0266 44.4497 36.9029 44.4497C37.6262 44.4497 38.3203 44.569 38.9774 44.7733V36.264C38.2973 36.1714 37.6071 36.1143 36.9029 36.1143C36.7807 36.1143 36.661 36.1206 36.54 36.1231V42.6577C35.8829 42.4534 35.1889 42.3341 34.4655 42.3341L34.4643 42.3354Z" fill="#FE2C55"/>
<path d="M61.4919 29.6543V36.1317C57.1558 36.1317 53.1368 34.7497 49.8564 32.4032V49.3417C49.8564 57.8015 42.9505 64.6825 34.463 64.6825C31.1826 64.6825 28.1417 63.652 25.6406 61.9019C28.4524 64.911 32.4586 66.7968 36.9004 66.7968C45.3892 66.7968 52.2938 59.9145 52.2938 51.456V34.5187C55.5742 36.8653 59.5932 38.2473 63.9292 38.2473V29.9119C63.0926 29.9119 62.2776 29.8218 61.4919 29.6543Z" fill="#FE2C55"/>
<path d="M49.8572 49.3419V32.4033C53.1376 34.7499 57.1566 36.1319 61.4926 36.1319V29.6545C58.9878 29.1202 56.7809 27.78 55.156 25.9195C52.5352 24.2164 50.6442 21.4929 50.0546 18.3164H43.9319L43.9179 51.7189C43.7778 55.4589 40.6884 58.4616 36.9012 58.4616C34.5555 58.4616 32.4798 57.3067 31.2025 55.5414C28.9651 54.3675 27.4331 52.0299 27.4331 49.3406C27.4331 45.4775 30.5875 42.334 34.4638 42.334C35.1871 42.334 35.8812 42.4533 36.5383 42.6576V36.123C28.2176 36.3172 21.5078 43.117 21.5078 51.455C21.5078 55.4881 23.0792 59.1596 25.6414 61.9009C28.1412 63.6497 31.1834 64.6814 34.4638 64.6814C42.9513 64.6814 49.8572 57.7992 49.8572 49.3406V49.3419Z" fill="black"/>
</g>
<rect x="103" width="83" height="83" rx="12" fill="white"/>
<path d="M144.497 64.8049C157.526 64.8049 168.088 54.371 168.088 41.5001C168.088 28.6292 157.526 18.1953 144.497 18.1953C131.468 18.1953 120.906 28.6292 120.906 41.5001C120.906 54.371 131.468 64.8049 144.497 64.8049Z" fill="#2CA01C"/>
<path d="M127.457 41.4997C127.457 46.5044 131.564 50.5633 136.632 50.5633H137.943V47.1949H136.632C133.452 47.1949 130.865 44.6403 130.865 41.4997C130.865 38.3575 133.452 35.8029 136.632 35.8029H139.781V53.4108C139.781 55.2698 141.306 56.7758 143.189 56.7758V32.4362H136.632C131.564 32.4362 127.457 36.4934 127.457 41.4997ZM152.364 32.4362H151.053V35.8046H152.364C155.544 35.8046 158.131 38.3592 158.131 41.4997C158.131 44.642 155.544 47.1966 152.364 47.1966H149.215V29.5886C149.215 27.7297 147.69 26.2236 145.805 26.2236V50.5633H152.364C157.43 50.5633 161.539 46.5061 161.539 41.4997C161.539 36.4968 157.43 32.4362 152.364 32.4362Z" fill="white"/>
<rect x="206" width="83" height="83" rx="12" fill="white"/>
<g clip-path="url(#clip1_3302_24129)">
<path d="M276.871 33.3377C276.919 33.3377 276.992 33.3377 277.016 33.265C277.041 33.2408 277.041 33.2166 277.041 33.1924C277.041 33.1442 277.016 33.0955 276.968 33.0712C276.919 33.047 276.871 33.047 276.798 33.047H276.75V33.3132H276.871M276.798 32.9261C276.919 32.9261 276.992 32.9261 277.041 32.9504C277.21 32.9988 277.21 33.1681 277.21 33.2166C277.21 33.2408 277.21 33.265 277.21 33.289C277.21 33.3377 277.186 33.4101 277.089 33.4586C277.089 33.4586 277.065 33.4828 277.041 33.4828L277.258 33.8699H277.041L276.871 33.5068H276.75V33.8699H276.557V32.9261H276.798ZM276.871 34.2572C277.331 34.2572 277.718 33.8941 277.718 33.4101C277.718 32.9261 277.355 32.563 276.871 32.563C276.411 32.563 276.024 32.9504 276.024 33.4101C276.024 33.8699 276.411 34.2572 276.871 34.2572ZM276.218 33.4101C276.218 33.047 276.508 32.7568 276.895 32.7568C277.258 32.7568 277.548 33.047 277.548 33.4101C277.548 33.7732 277.258 34.0637 276.895 34.0637C276.508 34.0879 276.218 33.7732 276.218 33.4101ZM270.337 38.8066C269.224 38.8066 268.28 38.0564 267.99 37.04H274.161L275.008 35.7092H267.99C268.28 34.6928 269.224 33.9426 270.337 33.9426H274.572L275.419 32.6115H270.24C268.159 32.6115 266.489 34.3057 266.489 36.3625C266.489 38.4438 268.183 40.1135 270.24 40.1135H274.693L275.54 38.7827H270.337M252.671 40.1135H257.148L257.995 38.7827H252.792C251.437 38.7827 250.348 37.6936 250.348 36.3625C250.348 35.0074 251.437 33.9426 252.792 33.9426H257.027L257.874 32.6115H252.696C250.614 32.6115 248.92 34.3057 248.92 36.3625C248.92 38.4438 250.614 40.1135 252.671 40.1135ZM225.253 38.8066H221.066C219.736 38.8066 218.646 37.7178 218.646 36.3867C218.646 35.0317 219.736 33.9668 221.066 33.9668H225.229C226.584 33.9668 227.673 35.0556 227.673 36.3867C227.673 37.7178 226.584 38.8066 225.253 38.8066ZM220.969 40.1135H225.326C227.407 40.1135 229.076 38.4438 229.076 36.3625C229.076 34.2815 227.407 32.6115 225.326 32.6115H220.969C218.913 32.6115 217.219 34.3057 217.219 36.3625C217.219 38.4438 218.913 40.1135 220.969 40.1135ZM236.191 37.6936C237.595 37.6936 238.732 36.5563 238.732 35.1525C238.732 33.7488 237.595 32.6115 236.191 32.6115H229.875V40.1135H231.327V33.9426H236.095C236.772 33.9426 237.304 34.475 237.304 35.1525C237.304 35.8303 236.772 36.3625 236.095 36.3625H232.029L236.337 40.1135H238.442L235.538 37.6693H236.191M260.076 38.8066V32.6115H258.624V39.4117C258.624 39.6053 258.697 39.7746 258.842 39.92C258.987 40.0653 259.181 40.1377 259.375 40.1377H265.957L266.804 38.8066H260.076ZM242.411 37.4758H246.258L244.226 34.1846L240.474 40.1135H238.756L243.306 32.9988C243.5 32.7084 243.838 32.5391 244.202 32.5391C244.564 32.5391 244.879 32.7084 245.073 32.9988L249.646 40.1377H247.953L247.154 38.8066H243.258L242.411 37.4758Z" fill="black"/>
<path d="M217.922 44.6396H219.833L222.156 49.5037V44.6396H223.392V50.8342H221.575L219.18 45.6787V50.8096H217.922V44.6396Z" fill="black"/>
<path d="M224.793 44.6396H228.932V45.656H226.123V47.1322H228.762V48.1486H226.123V49.8179H229.029V50.8342H224.793V44.6396Z" fill="black"/>
<path d="M231.594 45.656H229.754V44.6396H234.788V45.656H232.949V50.8342H231.618V45.656H231.594Z" fill="black"/>
<path d="M236.387 49.0195C236.412 49.455 236.46 50.2537 237.888 50.2537C239.17 50.2537 239.34 49.455 239.34 49.1406C239.34 48.4389 238.783 48.3178 237.912 48.1C236.968 47.858 236.557 47.7611 236.242 47.5433C235.734 47.2044 235.589 46.7447 235.589 46.3334C235.589 45.075 236.775 44.5186 237.936 44.5186C238.348 44.5186 239.17 44.591 239.679 45.1234C240.017 45.5107 240.042 45.9221 240.066 46.1883H239.17C239.122 45.4136 238.469 45.2443 237.864 45.2443C237.017 45.2443 236.484 45.6316 236.484 46.2365C236.484 46.7931 236.847 46.9624 237.597 47.1562C239.074 47.5433 239.243 47.5675 239.606 47.8095C240.187 48.1969 240.211 48.7775 240.211 49.0437C240.211 50.1326 239.364 50.9797 237.767 50.9797C237.307 50.9797 236.339 50.9072 235.855 50.2779C235.492 49.8182 235.492 49.3342 235.492 49.0195H236.387Z" fill="#1A1919"/>
<path d="M242.435 44.6396V48.4631C242.435 49.1166 242.58 49.4068 242.701 49.5764C243.088 50.0846 243.693 50.1812 244.104 50.1812C245.774 50.1812 245.774 48.8746 245.774 48.4149V44.6396H246.597V48.4631C246.597 48.802 246.597 49.4795 246.089 50.1086C245.484 50.8833 244.54 50.9557 244.08 50.9557C243.499 50.9557 242.459 50.7864 241.902 49.9637C241.709 49.6973 241.539 49.3344 241.539 48.4149V44.6396H242.435Z" fill="black"/>
<path d="M248.391 50.8342H249.237V44.6396H248.391V50.8342Z" fill="black"/>
<path d="M252.574 50.8342V45.3645H250.492V44.6396H255.477V45.3645H253.397V50.8342H252.574Z" fill="black"/>
<path d="M256.52 44.6396H260.392V45.3645H257.367V47.3007H260.246V48.0274H257.367V50.0847H260.464V50.8342H256.52V44.6396Z" fill="black"/>
</g>
<rect x="309" width="83" height="83" rx="12" fill="white"/>
<g clip-path="url(#clip2_3302_24129)">
<path d="M350.476 16.8389C336.683 16.8389 325.512 27.8577 325.512 41.5001C325.512 55.1425 336.683 66.1614 350.476 66.1614C364.269 66.1614 375.439 55.1425 375.439 41.5001C375.492 27.8577 364.269 16.8389 350.476 16.8389Z" fill="#13B5EA"/>
<path d="M343.817 40.4517C344.289 38.7201 345.862 37.4608 347.645 37.4608C349.481 37.4608 351.054 38.6677 351.474 40.4517H343.817ZM352.89 41.5536C353.152 41.2387 353.257 40.819 353.152 40.3992C352.837 38.8251 351.946 37.5658 350.687 36.7263C349.795 36.1491 348.746 35.8867 347.698 35.8867C346.491 35.8867 345.39 36.254 344.446 36.9361C342.978 37.9855 342.086 39.7171 342.086 41.5536C342.086 42.0258 342.138 42.4456 342.243 42.9178C342.82 45.1216 344.708 46.8006 347.016 47.1155C347.226 47.1679 347.435 47.1679 347.698 47.1679C348.17 47.1679 348.589 47.1155 349.061 47.0105C349.638 46.7482 350.162 46.4858 350.687 46.171C351.159 45.8562 351.631 45.4364 352.103 44.8068L352.155 44.7543C352.313 44.5444 352.365 44.282 352.365 44.0722C352.313 43.8623 352.208 43.6524 352.051 43.5475C351.893 43.4425 351.683 43.3376 351.526 43.3376C351.369 43.3376 351.106 43.39 350.844 43.7049C350.792 43.8098 350.687 43.9147 350.582 44.0197C350.267 44.387 349.9 44.6493 349.481 44.9117C348.904 45.2265 348.274 45.3839 347.645 45.3839C345.6 45.3839 344.394 44.0197 343.869 42.7604C343.817 42.5505 343.764 42.3406 343.712 42.1307V42.0783H351.578C352.155 42.0783 352.627 41.8684 352.89 41.5536Z" fill="white"/>
<path d="M364.377 39.9268C363.59 39.9268 362.961 40.5564 362.961 41.3435C362.961 42.1305 363.59 42.7602 364.377 42.7602C365.164 42.7602 365.793 42.1305 365.793 41.3435C365.793 40.6089 365.164 39.9268 364.377 39.9268Z" fill="white"/>
<path d="M359.131 36.7255C359.131 36.2533 358.764 35.9385 358.292 35.9385H358.082C357.401 35.9385 356.719 36.1484 356.194 36.5681C356.09 36.2533 355.775 35.9909 355.408 35.9909C354.936 35.9909 354.621 36.3582 354.621 36.778V46.1178C354.621 46.5376 354.988 46.9049 355.408 46.9049C355.88 46.9049 356.194 46.5376 356.194 46.1178V40.3985C356.194 38.562 356.352 37.775 357.978 37.5651C358.135 37.5651 358.24 37.5651 358.292 37.5651C358.817 37.5126 359.131 37.1978 359.131 36.7255Z" fill="white"/>
<path d="M337.838 41.4486L342.034 37.251C342.191 37.0935 342.296 36.8837 342.296 36.6738C342.296 36.2015 341.929 35.8867 341.457 35.8867C341.247 35.8867 341.037 35.9917 340.88 36.1491L336.684 40.3467L332.489 36.1491C332.331 35.9917 332.121 35.9392 331.912 35.9392C331.44 35.9392 331.125 36.3065 331.125 36.7263C331.125 36.9361 331.23 37.146 331.387 37.3034L335.583 41.5011L331.387 45.6988C331.23 45.8562 331.125 46.066 331.125 46.2759C331.125 46.6957 331.492 47.063 331.912 47.063C332.121 47.063 332.331 46.9581 332.489 46.8531L336.684 42.6555L340.88 46.8006C341.037 46.9581 341.247 47.063 341.457 47.063C341.929 47.063 342.296 46.6957 342.296 46.2759C342.296 46.066 342.191 45.8562 342.034 45.6988L337.838 41.4486Z" fill="white"/>
<path d="M364.373 45.2785C362.223 45.2785 360.44 43.5469 360.44 41.3432C360.44 39.1919 362.223 37.4078 364.373 37.4078C366.524 37.4078 368.307 39.1394 368.307 41.3432C368.307 43.5469 366.524 45.2785 364.373 45.2785ZM364.373 35.7812C361.279 35.7812 358.762 38.2998 358.762 41.3432C358.762 44.4389 361.279 46.9051 364.373 46.9051C367.468 46.9051 369.985 44.3865 369.985 41.3432C369.985 38.2998 367.468 35.7812 364.373 35.7812Z" fill="white"/>
</g>
<rect x="412" width="83" height="83" rx="12" fill="white"/>
<g clip-path="url(#clip3_3302_24129)">
<path d="M452.344 40.3378H430.117V18.1143H452.344V40.3378Z" fill="#F1511B"/>
<path d="M476.885 40.3378H454.656V18.1143H476.883V40.3378H476.885Z" fill="#80CC28"/>
<path d="M452.344 64.8846H430.117V42.6611H452.344V64.8846Z" fill="#00ADEF"/>
<path d="M476.885 64.8846H454.656V42.6611H476.883V64.8846H476.885Z" fill="#FBBC09"/>
</g>
<rect x="515" width="83" height="83" rx="12" fill="white"/>
<g clip-path="url(#clip4_3302_24129)">
<path fill-rule="evenodd" clip-rule="evenodd" d="M530.5 55.4286H559.043L586.966 27.5723H530.5V55.4286Z" fill="url(#paint0_linear_3302_24129)"/>
<path fill-rule="evenodd" clip-rule="evenodd" d="M564.005 33.1439H558.42V46.2054L553.58 33.1439H548.74L544.583 44.1007C544.149 41.3151 541.232 40.3865 538.998 39.6437C537.509 39.1485 535.896 38.4675 535.958 37.6628C535.958 37.0438 536.827 36.4247 538.502 36.4866C539.619 36.5485 540.612 36.6105 542.597 37.6009L544.521 34.2581C542.721 33.3296 540.239 32.7725 538.254 32.7725C535.896 32.7725 533.91 33.5153 532.669 34.8153C531.801 35.6819 531.366 36.7962 531.366 38.0342C531.366 39.7056 531.987 40.9437 533.29 41.9341C534.407 42.7389 535.834 43.296 537.075 43.6674C538.626 44.1626 539.867 44.534 539.867 45.4626C539.867 45.7721 539.743 46.0816 539.495 46.3292C539.123 46.7007 538.502 46.8864 537.695 46.8864C536.02 46.8245 534.841 46.5768 532.98 45.5245L531.242 48.9292C533.104 49.9815 535.089 50.5386 537.323 50.5386H537.82C539.743 50.4767 541.356 50.0434 542.597 49.053C542.659 48.9911 542.721 48.9292 542.784 48.8673L542.659 49.8577H547.375L548.244 47.6911C549.113 48.0006 550.167 48.1863 551.222 48.1863C552.277 48.1863 553.27 48.0006 554.139 47.753L554.697 49.8577H563.136V44.9674H564.935C569.279 44.9674 571.823 42.7389 571.823 39.0866C571.823 34.9391 569.279 33.1439 564.005 33.1439ZM551.16 44.3483C550.54 44.3483 549.919 44.2245 549.361 44.0388L551.098 38.4675H551.16L552.898 44.0388C552.401 44.2245 551.781 44.3483 551.16 44.3483ZM564.315 41.1294H563.074V36.6724H564.315C565.928 36.6724 567.231 37.2295 567.231 38.9009C567.231 40.5722 565.928 41.1294 564.315 41.1294Z" fill="white"/>
</g>
<rect x="618" width="83" height="83" rx="12" fill="white"/>
<g clip-path="url(#clip5_3302_24129)">
<path d="M636.94 25.166C640.564 25.166 643.511 27.6723 643.579 31.1605C643.613 32.1424 642.901 32.6847 642.122 32.6847C641.377 32.6847 640.734 32.1432 640.7 31.2283C640.666 29.2636 639.007 27.8072 636.906 27.8072C634.941 27.8072 633.452 29.1958 633.452 31.0926C633.452 33.1583 634.84 34.0732 637.719 35.1231C640.801 36.2408 643.613 37.5614 643.613 41.4901C643.613 44.9112 640.937 47.6542 637.212 47.6542C633.554 47.6542 630.539 45.0801 630.539 41.5919C630.539 39.4243 631.589 37.9001 632.605 37.9001C633.486 37.9001 634.027 38.4755 634.027 39.2546C634.027 39.9319 633.452 40.2366 633.452 41.4561C633.452 43.6237 635.213 45.0123 637.212 45.0123C639.311 45.0123 640.7 43.5559 640.7 41.7948C640.7 39.6272 639.311 38.7131 636.432 37.6964C633.215 36.5462 630.539 35.157 630.539 31.3302C630.539 27.8759 633.316 25.166 636.94 25.166Z" fill="#00D639"/>
<path d="M651.721 47.6552C648.063 47.6552 645.016 44.7085 645.016 40.9828C645.016 37.122 648.097 34.2432 651.823 34.2432C655.82 34.2432 658.63 37.2238 658.63 41.2882V46.2328C658.63 47.0798 657.953 47.6552 657.174 47.6552C656.361 47.6552 655.684 47.0798 655.684 46.2328V41.3893C655.684 38.7133 654.16 36.8844 651.755 36.8844C649.622 36.8844 647.928 38.6794 647.928 40.9828C647.928 43.1164 649.588 44.9454 651.688 44.9454C652.467 44.9454 652.806 44.7425 653.28 44.7425C653.924 44.7425 654.601 45.284 654.601 46.0631C654.6 47.1129 653.347 47.6552 651.721 47.6552Z" fill="#00D639"/>
<path d="M666.974 57.7481C663.181 57.7481 660.031 55.0382 660.031 51.516C660.031 50.3304 660.708 49.789 661.488 49.789C662.267 49.789 662.91 50.2973 662.944 51.2792C662.978 53.4808 664.739 55.1061 666.941 55.1061C669.278 55.1061 670.801 53.6158 670.801 51.6849C670.801 49.4834 669.108 48.5693 666.229 47.6545C662.876 46.5707 660.031 45.0804 660.031 40.9488C660.031 37.1551 662.944 34.2432 666.737 34.2432C670.564 34.2432 673.714 37.0201 673.714 40.6781C673.714 42.9135 672.8 44.6407 671.546 44.6407C670.7 44.6407 670.124 44.0313 670.124 43.2861C670.124 42.507 670.801 42.1684 670.801 40.7799C670.801 38.4426 668.972 36.8852 666.771 36.8852C664.637 36.8852 662.944 38.5112 662.944 40.6449C662.944 43.0493 664.671 44.066 667.516 45.014C670.801 46.0978 673.714 47.4524 673.714 51.415C673.714 54.971 670.903 57.7481 666.974 57.7481Z" fill="#00D639"/>
<path d="M682.026 47.6545C678.233 47.6545 675.117 44.6739 675.117 40.9488C675.117 37.223 678.132 34.2432 681.857 34.2432C685.617 34.2432 688.461 36.8512 688.461 40.1705C688.461 41.4572 687.547 42.2363 686.057 42.2363H682.162C681.383 42.2363 680.808 41.6947 680.808 40.9828C680.808 40.3055 681.383 39.7632 682.162 39.7632H685.075C685.346 39.7632 685.549 39.6274 685.549 39.3567C685.549 38.3747 684.296 36.8504 681.959 36.8504C679.792 36.8504 678.031 38.7133 678.031 40.9488C678.031 43.2182 679.826 45.0133 682.061 45.0133C684.635 45.0133 685.482 43.489 686.532 43.489C687.413 43.489 687.887 44.0645 687.887 44.7086C687.887 45.318 687.48 45.8602 686.464 46.5036C685.447 47.1461 683.923 47.6545 682.026 47.6545Z" fill="#00D639"/>
</g>
<rect x="721" width="83" height="83" rx="12" fill="white"/>
<path d="M775.645 39.98C776.049 39.9312 776.436 39.9301 776.791 39.98C776.997 39.5072 777.033 38.6935 776.848 37.8079C776.572 36.4904 776.2 35.6933 775.431 35.8173C774.662 35.9413 774.633 36.8956 774.909 38.2131C775.064 38.9537 775.338 39.588 775.645 39.98Z" fill="black"/>
<path d="M769.038 41.0227C769.589 41.264 769.926 41.4245 770.059 41.2851C770.144 41.1976 770.119 41.0315 769.987 40.8168C769.716 40.3728 769.156 39.9233 768.564 39.6698C767.351 39.1473 765.905 39.3211 764.789 40.1237C764.421 40.3939 764.072 40.768 764.122 40.995C764.139 41.0681 764.193 41.1234 764.322 41.1422C764.625 41.1766 765.687 40.6407 766.91 40.5655C767.773 40.5123 768.488 40.7813 769.038 41.0227Z" fill="black"/>
<path d="M767.935 41.6554C767.218 41.7683 766.823 42.0052 766.568 42.2255C766.352 42.4148 766.218 42.6241 766.219 42.7713L766.274 42.9019L766.393 42.9473C766.554 42.9473 766.917 42.8023 766.917 42.8023C767.915 42.4447 768.574 42.4879 769.226 42.5621C769.586 42.603 769.757 42.6252 769.835 42.5012C769.859 42.4657 769.887 42.3894 769.815 42.272C769.647 41.9997 768.923 41.5391 767.936 41.6565L767.935 41.6554Z" fill="black"/>
<path d="M773.418 43.9753C773.905 44.2144 774.44 44.1203 774.615 43.765C774.79 43.4096 774.537 42.928 774.05 42.6889C773.563 42.4497 773.027 42.5438 772.852 42.8992C772.677 43.2546 772.931 43.7362 773.418 43.9753Z" fill="black"/>
<path d="M776.545 41.2403C776.15 41.2337 775.822 41.6676 775.813 42.2112C775.804 42.7537 776.117 43.1987 776.512 43.2054C776.907 43.212 777.236 42.778 777.245 42.2356C777.254 41.6931 776.94 41.2481 776.545 41.2403Z" fill="black"/>
<path d="M749.977 51.0245C749.879 50.9016 749.717 50.9392 749.561 50.9746C749.452 51.0001 749.328 51.0289 749.193 51.0267C748.902 51.0211 748.655 50.8971 748.517 50.6846C748.336 50.4078 748.347 49.9949 748.545 49.5221L748.638 49.3107C748.956 48.5988 749.486 47.4065 748.891 46.2718C748.443 45.4171 747.71 44.8846 746.83 44.7728C745.986 44.6654 745.116 44.9787 744.562 45.5909C743.686 46.5563 743.55 47.8704 743.719 48.3354C743.781 48.5058 743.879 48.5523 743.948 48.5623C744.098 48.5822 744.317 48.4737 744.455 48.1029L744.495 47.9822C744.557 47.7862 744.671 47.4209 744.858 47.1275C745.084 46.7744 745.436 46.5308 745.85 46.4422C746.27 46.3526 746.701 46.4323 747.06 46.6681C747.673 47.07 747.909 47.8206 747.648 48.5379C747.513 48.9088 747.293 49.6174 747.341 50.1997C747.44 51.3787 748.165 51.8525 748.816 51.9024C749.449 51.9267 749.891 51.5702 750.003 51.3101C750.069 51.1562 750.013 51.0632 749.977 51.0222V51.0245Z" fill="black"/>
<path d="M786.526 48.8678C786.502 48.7826 786.345 48.208 786.129 47.5161L785.69 46.3371C786.555 45.0407 786.571 43.8816 786.455 43.2251C786.333 42.4114 785.994 41.7172 785.311 41.0009C784.628 40.2836 783.233 39.5496 781.271 38.9993L780.242 38.7137C780.236 38.6716 780.187 36.2859 780.143 35.2618C780.111 34.5212 780.047 33.3665 779.688 32.2273C779.261 30.6863 778.517 29.339 777.588 28.4765C780.152 25.8184 781.752 22.8891 781.748 20.3772C781.74 15.5459 775.81 14.0834 768.5 17.1113L766.952 17.7689C766.945 17.7622 764.152 15.0211 764.11 14.9846C755.777 7.71327 729.721 36.6855 738.052 43.7221L739.872 45.2654C739.4 46.4887 739.215 47.8914 739.366 49.3992C739.561 51.3355 740.559 53.1921 742.178 54.6269C743.715 55.9886 745.735 56.851 747.695 56.8488C750.936 64.3227 758.343 68.9071 767.028 69.165C776.344 69.4418 784.165 65.0689 787.442 57.213C787.656 56.6617 788.566 54.1774 788.566 51.9843C788.566 49.7801 787.321 48.8667 786.527 48.8667L786.526 48.8678ZM748.411 54.7498C748.128 54.7985 747.839 54.8173 747.548 54.8107C744.734 54.7354 741.695 52.2013 741.393 49.1955C741.059 45.8743 742.755 43.317 745.76 42.7114C746.118 42.6394 746.553 42.5974 747.021 42.6217C748.704 42.7136 751.184 44.0067 751.751 47.6744C752.252 50.9226 751.456 54.2305 748.411 54.7498ZM745.269 40.7242C743.399 41.0884 741.751 42.1479 740.743 43.6125C740.141 43.1099 739.018 42.1368 738.82 41.7582C737.211 38.7015 740.576 32.7587 742.927 29.4032C748.736 21.1089 757.835 14.8318 762.048 15.9699C762.733 16.1636 765.001 18.794 765.001 18.794C765.001 18.794 760.79 21.1311 756.886 24.3892C751.625 28.4422 747.65 34.3319 745.269 40.7242ZM774.804 53.5076C774.864 53.4822 774.906 53.4113 774.9 53.3427C774.891 53.2574 774.815 53.1954 774.729 53.2043C774.729 53.2043 770.322 53.8575 766.157 52.3319C766.611 50.8573 767.817 51.3898 769.64 51.537C772.926 51.733 775.87 51.2525 778.046 50.6281C779.932 50.0867 782.408 49.0195 784.333 47.5006C784.981 48.9265 785.211 50.4953 785.211 50.4953C785.211 50.4953 785.713 50.4056 786.132 50.6635C786.529 50.9082 786.82 51.4152 786.621 52.7282C786.216 55.1804 785.175 57.1698 783.424 59.0009C782.359 60.149 781.065 61.1465 779.584 61.8716C778.799 62.2845 777.961 62.6421 777.077 62.9311C770.477 65.0877 763.719 62.7163 761.542 57.6248C761.368 57.2418 761.221 56.841 761.104 56.4226C760.176 53.067 760.964 49.0417 763.427 46.5076C763.579 46.3459 763.734 46.1555 763.734 45.9164C763.734 45.716 763.607 45.5057 763.497 45.3562C762.635 44.1063 759.65 41.9752 760.25 37.8513C760.681 34.8888 763.27 32.803 765.685 32.927L766.297 32.9624C767.343 33.0244 768.256 33.1584 769.118 33.1949C770.56 33.2569 771.855 33.0477 773.39 31.7679C773.908 31.3361 774.323 30.9619 775.026 30.8424C775.1 30.8302 775.284 30.7638 775.65 30.7815C776.025 30.8014 776.382 30.9044 776.703 31.118C777.933 31.9373 778.108 33.9223 778.172 35.3737C778.209 36.2029 778.308 38.2078 778.343 38.7824C778.421 40.0987 778.766 40.2836 779.466 40.5149C779.86 40.6445 780.225 40.7408 780.763 40.8924C782.392 41.3497 783.358 41.8146 783.968 42.4103C784.331 42.7833 784.5 43.1786 784.552 43.5572C784.745 44.9599 783.464 46.6913 780.075 48.2656C776.369 49.986 771.875 50.4211 768.77 50.0757L767.682 49.9528C765.198 49.6184 763.781 52.8301 765.272 55.0299C766.233 56.448 768.85 57.3702 771.468 57.3713C777.472 57.3724 782.086 54.8073 783.803 52.5921L783.94 52.3961C784.024 52.2688 783.954 52.1991 783.849 52.271C782.447 53.2308 776.218 57.0425 769.555 55.8956C769.555 55.8956 768.745 55.7627 768.007 55.4749C767.419 55.2468 766.191 54.6811 766.041 53.4191C771.418 55.083 774.804 53.5098 774.804 53.5098V53.5076ZM766.286 52.5013L766.287 52.5024L766.288 52.5046L766.286 52.5013ZM755.999 29.3677C758.064 26.9798 760.607 24.904 762.885 23.7382C762.964 23.6984 763.048 23.7836 763.004 23.8611C762.824 24.1888 762.476 24.8907 762.365 25.4221C762.347 25.5051 762.438 25.5671 762.508 25.5195C763.924 24.5531 766.39 23.5179 768.552 23.3851C768.645 23.3796 768.689 23.498 768.616 23.5556C768.288 23.808 767.928 24.1567 767.666 24.5099C767.621 24.5697 767.663 24.656 767.738 24.6571C769.256 24.6682 771.396 25.1996 772.791 25.9823C772.885 26.0354 772.818 26.2181 772.712 26.1937C770.602 25.71 767.147 25.3424 763.558 26.2181C760.354 26.9997 757.908 28.2064 756.124 29.505C756.035 29.5703 755.926 29.453 755.999 29.3677Z" fill="black"/>
<defs>
<linearGradient id="paint0_linear_3302_24129" x1="558.722" y1="27.5723" x2="558.722" y2="55.4286" gradientUnits="userSpaceOnUse">
<stop stop-color="#00AEEF"/>
<stop offset="0.212" stop-color="#0097DC"/>
<stop offset="0.519" stop-color="#007CC5"/>
<stop offset="0.792" stop-color="#006CB8"/>
<stop offset="1" stop-color="#0066B3"/>
</linearGradient>
<clipPath id="clip0_3302_24129">
<rect width="44.8608" height="50.5949" fill="white" transform="translate(19.0703 16.2021)"/>
</clipPath>
<clipPath id="clip1_3302_24129">
<rect width="60.5638" height="60.5638" fill="white" transform="translate(217.219 11.2178)"/>
</clipPath>
<clipPath id="clip2_3302_24129">
<rect width="49.9802" height="49.3225" fill="white" transform="translate(325.512 16.8389)"/>
</clipPath>
<clipPath id="clip3_3302_24129">
<rect width="46.7706" height="46.7706" fill="white" transform="translate(430.117 18.1143)"/>
</clipPath>
<clipPath id="clip4_3302_24129">
<rect width="56.4656" height="27.8564" fill="white" transform="translate(530.5 27.5723)"/>
</clipPath>
<clipPath id="clip5_3302_24129">
<rect width="57.9232" height="32.6687" fill="white" transform="translate(630.539 25.166)"/>
</clipPath>
</defs>
</svg>
