<svg width="804" height="83" viewBox="0 0 804 83" fill="none" xmlns="http://www.w3.org/2000/svg">
<rect width="83" height="83" rx="12" fill="white"/>
<rect x="12.7852" y="12.7842" width="57.4315" height="57.4315" rx="7.39379" fill="white"/>
<path d="M27.3968 37.2735H24.668V34.8154H27.3968V34.0379C27.3968 26.8811 32.4681 25.9697 34.8862 25.9697C35.7091 25.9697 36.2296 26.0533 36.2296 26.0533V28.687C36.2296 28.687 35.8434 28.6034 35.1885 28.6034C33.5428 28.6034 30.3355 29.2053 30.3355 34.0379V34.8154H35.877V37.2735H30.3355V56.5117H27.3968V37.2735Z" fill="black"/>
<path d="M40.4544 29.6823C40.4544 29.0803 40.1101 28.7375 39.5056 28.7375H37.6836V26.1875H40.7566C42.6206 26.1875 43.4015 26.9651 43.4015 28.8211V36.6719C43.4015 37.6669 43.3175 38.436 43.3175 38.436H43.4015C43.4015 38.436 45.2234 34.2975 50.807 34.2975C56.6508 34.2975 60.2947 38.9544 60.2947 45.6848C60.2947 52.5407 56.1806 57.0304 50.4627 57.0304C45.2654 57.0304 43.3175 52.85 43.3175 52.85H43.2335C43.2335 52.85 43.3175 53.5858 43.3175 54.6142V56.5121H40.4628V29.6823H40.4544ZM50.2444 54.4386C54.0983 54.4386 57.2637 51.203 57.2637 45.6848C57.2637 40.3841 54.409 36.9729 50.3787 36.9729C46.7432 36.9729 43.3175 39.5647 43.3175 45.7266C43.3091 50.0826 45.5593 54.4386 50.2444 54.4386Z" fill="black"/>
<rect x="103" width="83" height="83" rx="12" fill="white"/>
<g clip-path="url(#clip0_3302_24077)">
<path d="M139.472 27.6879C132.127 30.2429 129.492 36.5504 136.359 41.6602C138.674 36.3907 141.469 29.6041 146.259 26.9693C145.7 26.8895 145.061 26.8895 144.423 26.8895C142.746 26.8097 141.069 27.129 139.472 27.6879ZM150.331 28.0073C145.141 30.2429 142.347 38.3867 140.351 43.9756C145.54 46.5306 151.688 47.8879 157.357 48.5266C158.555 46.4507 159.193 43.9756 159.193 41.4207C159.114 35.5124 155.521 30.3227 150.331 28.0073ZM135.321 54.0357C137.796 55.8721 140.83 56.91 144.103 56.91C148.654 56.91 153.046 54.1156 155.76 50.842C150.411 49.9638 144.582 48.6065 139.472 46.4507C138.514 48.846 136.758 51.88 135.321 54.0357ZM118.953 41.5005C118.953 55.6325 130.371 67.0499 144.503 67.0499C158.635 67.0499 170.052 55.6325 170.052 41.5005C170.052 27.3685 158.635 15.9512 144.503 15.9512C130.371 15.9512 118.953 27.3685 118.953 41.5005ZM132.686 57.0697C131.568 56.2713 130.051 54.8341 129.412 53.7962C129.173 53.397 129.173 52.9978 129.492 52.6784C131.568 49.9638 133.644 47.4887 135.161 44.3749C124.382 38.227 126.698 28.3267 135.8 24.0152C138.435 22.7377 141.389 22.0191 144.503 22.0191C155.281 22.0191 164.064 30.8017 164.064 41.5804C164.064 52.359 155.281 61.0618 144.503 61.0618C140.271 61.0618 136.279 59.7045 133.085 57.3891L132.686 57.0697Z" fill="black"/>
</g>
<rect x="206" width="83" height="83" rx="12" fill="white"/>
<g clip-path="url(#clip1_3302_24077)">
<path d="M271.949 17.0527H223.055V65.947H271.949V17.0527Z" fill="#00EAB6"/>
<path d="M247.501 22.4443C244.176 22.4443 241.051 23.2994 238.33 24.799C238.33 24.799 247.481 24.799 247.501 24.799C256.712 24.799 264.204 32.2919 264.204 41.5025C264.204 50.7131 256.712 58.206 247.501 58.206C238.29 58.206 230.797 50.7106 230.797 41.5C230.797 39.8525 231.041 38.2601 231.49 36.7555H229.042C228.653 38.2727 228.445 39.8625 228.445 41.5C228.445 52.0247 236.976 60.5557 247.501 60.5557C258.026 60.5557 266.557 52.0247 266.557 41.5C266.557 30.9754 258.026 22.4443 247.501 22.4443Z" fill="black"/>
<path d="M234.86 27.249C234.05 27.9687 233.301 28.7536 232.621 29.6012H247.502C254.062 29.6012 259.4 34.94 259.4 41.5C259.4 48.0601 254.062 53.3989 247.502 53.3989C240.941 53.3989 235.603 48.0601 235.603 41.5C235.603 39.8149 235.956 38.21 236.593 36.7556H234.066C233.539 38.2401 233.251 39.835 233.251 41.5C233.251 49.3716 239.63 55.7511 247.502 55.7511C255.373 55.7511 261.753 49.3716 261.753 41.5C261.753 33.6285 255.373 27.249 247.502 27.249H234.86Z" fill="black"/>
<path d="M247.502 34.3557C251.442 34.3557 254.647 37.5605 254.647 41.5C254.647 45.4395 251.442 48.6443 247.502 48.6443C243.563 48.6443 240.358 45.4395 240.358 41.5C240.358 39.6769 241.05 38.0194 242.176 36.7555H239.282C238.472 38.1523 238.003 39.7697 238.003 41.5C238.003 46.746 242.256 50.999 247.502 50.999C252.748 50.999 257.001 46.746 257.001 41.5C257.001 36.254 252.748 32.001 247.502 32.001H230.987C230.553 32.7558 230.167 33.5407 229.836 34.3532H247.502V34.3557Z" fill="black"/>
</g>
<rect x="309" width="83" height="83" rx="12" fill="white"/>
<g clip-path="url(#clip2_3302_24077)">
<path fill-rule="evenodd" clip-rule="evenodd" d="M365.834 26.3574L363.702 27.4243C367.863 30.792 369.905 35.1366 370.277 40.3939C369.956 50.5484 365.179 57.0782 356.959 59.8675C347.456 62.7339 341.445 60.4202 335.615 54.4689L335.242 56.7569L337.605 59.2248C345.837 67.8112 359.502 68.094 368.081 59.8546C376.66 51.6153 376.942 37.9388 368.71 29.3524L365.834 26.3574Z" fill="#FEEF7C"/>
<path fill-rule="evenodd" clip-rule="evenodd" d="M334.072 55.4973L335.498 54.2505C329.552 45.8055 329.308 33.4657 337.437 26.666C343.473 21.6273 355.443 19.018 365.01 27.4501L365.73 26.1904L363.392 23.761C355.16 15.1747 341.495 14.8919 332.916 23.1312C324.337 31.3705 324.055 45.0471 332.287 53.6335L334.072 55.4973Z" fill="#5CD3CB"/>
<path d="M350.524 61.4106C361.476 61.4106 370.354 52.525 370.354 41.5642C370.354 30.6033 361.476 21.7178 350.524 21.7178C339.573 21.7178 330.695 30.6033 330.695 41.5642C330.695 52.525 339.573 61.4106 350.524 61.4106Z" fill="white"/>
<path d="M328.922 41.5636C328.922 53.5049 338.592 63.1838 350.523 63.1838C362.454 63.1838 372.125 53.5049 372.125 41.5636C372.125 29.6223 362.454 19.9434 350.523 19.9434C338.592 19.9434 328.922 29.6223 328.922 41.5636ZM343.948 45.4712C344.179 44.7514 343.922 43.9673 343.319 43.5174C341.726 42.322 338.567 39.9697 336.448 38.3887C336.139 38.1573 336.011 37.7588 336.139 37.3989C336.255 37.039 336.602 36.7948 336.974 36.7948H345.181C345.938 36.7948 346.619 36.3064 346.863 35.5737C347.505 33.6199 348.79 29.7252 349.65 27.1544C349.766 26.7945 350.112 26.5503 350.485 26.5503C350.87 26.5503 351.204 26.7945 351.332 27.1544C352.193 29.738 353.49 33.6199 354.145 35.5865C354.389 36.3064 355.057 36.7948 355.827 36.7948C357.767 36.7948 361.504 36.7948 364.06 36.7948C364.445 36.7948 364.779 37.039 364.894 37.3989C365.01 37.7588 364.894 38.1573 364.586 38.3887C362.48 39.9826 359.321 42.3605 357.728 43.556C357.124 44.0058 356.88 44.7899 357.112 45.5097C357.728 47.4635 358.961 51.3711 359.796 54.0062C359.911 54.3789 359.77 54.7774 359.462 54.9959C359.141 55.2144 358.717 55.2144 358.409 54.9702C356.29 53.3378 353.195 50.9598 351.564 49.713C350.921 49.2245 350.035 49.2245 349.406 49.713C347.801 50.9598 344.744 53.3249 342.638 54.9445C342.33 55.1759 341.906 55.1887 341.585 54.9702C341.264 54.7517 341.135 54.3404 341.251 53.9805C342.098 51.3454 343.331 47.425 343.948 45.4712Z" fill="black"/>
</g>
<rect x="412" width="83" height="83" rx="12" fill="white"/>
<rect width="49.2507" height="49.2507" transform="translate(428.875 16.875)" fill="#14854D"/>
<path d="M448.522 54.8082C453.452 54.8082 456.332 51.8042 456.332 46.6264V26.5078H451.598V46.3892C451.598 49.1165 450.612 50.4208 448.561 50.4208C446.51 50.4208 445.405 49.156 445.405 46.5078V39.4722H440.672V46.7449C440.672 52.0018 443.394 54.8082 448.522 54.8082Z" fill="white"/>
<path d="M467.431 36.627L466.897 41.4466L471.76 40.081L472.188 43.3745L467.752 43.6958L470.665 47.5784L467.699 49.1581L465.668 45.0613L463.878 49.1314L460.804 47.5784L463.69 43.6958L459.281 43.3477L459.789 40.081L464.545 41.4466L464.011 36.627H467.431Z" fill="white"/>
<rect x="515" width="83" height="83" rx="12" fill="white"/>
<g clip-path="url(#clip3_3302_24077)">
<path fill-rule="evenodd" clip-rule="evenodd" d="M575.485 23.817C573.57 24.0422 571.654 24.8306 570.077 25.9569C566.021 21.0012 560.049 17.8477 553.401 17.8477C541.006 17.8477 531.091 28.4347 531.091 41.4996C531.091 42.288 531.091 43.0764 531.203 43.8648C530.414 46.1173 530.527 48.3699 531.429 48.933C531.654 49.0457 531.879 49.0457 532.217 49.0457C535.147 58.3938 543.485 65.1515 553.401 65.1515C565.682 65.1515 575.711 54.5645 575.711 41.4996C575.711 40.9364 575.711 40.3733 575.598 39.8102C578.302 38.346 580.781 35.7555 581.795 32.4893C583.598 27.1958 580.443 23.3664 575.485 23.817ZM553.175 20.5507C559.147 20.5507 564.443 23.3664 568.049 27.7589C566.809 29.1105 565.795 30.6873 565.232 32.2641C564.781 33.503 564.668 34.7419 564.781 35.8682L553.401 44.8784C553.063 44.4279 552.612 44.09 552.161 43.8648C552.274 42.7385 552.387 41.4996 552.499 40.2607C552.612 36.2061 551.598 32.4893 548.781 31.0252C549.457 28.3221 548.668 26.52 546.978 26.6327C545.401 26.7453 543.598 28.66 542.471 31.0252C539.429 32.3767 537.288 35.1924 535.936 37.445C535.485 38.2334 535.034 38.9091 534.696 39.6975C534.358 39.6975 534.133 39.8102 533.795 40.0354C534.246 29.1105 542.809 20.5507 553.175 20.5507ZM551.147 51.2982C550.471 53.1003 549.006 54.2266 547.879 53.6634C546.865 53.2129 546.527 51.4109 547.091 49.7214C547.654 48.032 549.006 46.9057 550.133 47.2436C551.372 47.6941 551.823 49.4962 551.147 51.2982ZM546.527 31.9262C545.964 33.3903 544.95 34.5166 544.048 34.404C543.26 34.2914 543.034 33.1651 543.485 31.9262C543.936 30.5746 545.063 29.4484 545.851 29.4484C546.753 29.4484 546.978 30.5746 546.527 31.9262ZM532.33 46.4552C531.879 46.23 531.767 45.1037 532.217 43.9774C532.668 42.8511 533.344 42.0627 533.907 42.1753C534.471 42.288 534.471 43.5269 534.02 44.6532C533.682 45.8921 532.893 46.6805 532.33 46.4552ZM553.175 62.1105C544.161 62.1105 536.612 55.6907 534.358 47.0184C534.696 46.4552 535.034 45.7795 535.26 45.1037C535.936 43.189 536.048 41.4996 535.71 40.4859C535.936 40.0354 536.274 39.4723 536.612 38.9091C538.077 36.5439 539.767 34.9671 541.57 34.1787C541.344 35.8682 541.908 37.2197 543.034 37.3323C544.274 37.5576 545.851 36.3187 547.091 34.5166C548.556 35.6429 549.457 37.8955 549.344 41.4996C549.344 42.288 549.232 43.189 549.119 43.9774C547.429 44.7658 545.851 46.5679 545.063 48.933C543.823 52.4245 544.386 56.1412 546.527 57.3802C548.894 58.7317 552.274 56.4791 553.739 52.3119C554.189 51.073 554.415 49.8341 554.415 48.7078L566.471 39.6975C567.26 40.3733 568.274 40.9364 569.626 41.0491C570.64 41.1617 571.654 41.1617 572.781 40.8238C572.781 40.9364 572.781 41.0491 572.781 41.2743C572.781 52.875 563.992 62.1105 553.175 62.1105ZM576.612 32.4893C575.823 34.8545 573.345 36.6566 571.204 36.4313C569.175 36.3187 568.274 34.404 568.95 32.3767C569.626 30.2368 571.88 28.5473 573.908 28.4347C576.161 28.3221 577.401 30.1241 576.612 32.4893Z" fill="#1C8CD7"/>
</g>
<rect x="618" width="83" height="83" rx="12" fill="white"/>
<g clip-path="url(#clip4_3302_24077)">
<path d="M672.143 26.8176C672.143 19.7059 666.422 13.9707 659.328 13.9707C652.234 13.9707 646.398 19.7059 646.398 26.8176C646.398 33.9293 652.119 39.5498 659.213 39.5498C666.422 39.5498 672.143 33.8146 672.143 26.8176Z" fill="black"/>
<path d="M682.326 47.4646C682.097 46.7764 681.525 46.0881 679.923 47.0058L679.58 47.2352C673.516 50.9057 666.651 52.741 659.557 52.741C652.463 52.741 645.598 50.791 639.533 47.2352L639.19 47.0058C637.474 46.0881 637.016 46.8911 636.787 47.4646C636.559 47.8087 636.559 48.1528 636.559 48.3822C637.817 60.9997 649.145 70.1761 661.845 68.7996C672.715 67.6526 681.296 59.1644 682.44 48.3822C682.44 48.1528 682.44 47.8087 682.326 47.4646Z" fill="black"/>
</g>
<rect x="721" width="83" height="83" rx="12" fill="white"/>
<g clip-path="url(#clip5_3302_24077)">
<path d="M786.601 41.5001C786.601 28.1893 775.811 17.3987 762.5 17.3987C749.189 17.3987 738.398 28.1893 738.398 41.5001C738.398 53.5297 747.212 63.5005 758.734 65.3086V48.4669H752.614V41.5001H758.734V36.1902C758.734 30.1498 762.332 26.8133 767.837 26.8133C770.474 26.8133 773.232 27.2841 773.232 27.2841V33.2152H770.193C767.199 33.2152 766.266 35.0731 766.266 36.979V41.5001H772.95L771.881 48.4669H766.266V65.3086C777.788 63.5005 786.601 53.5297 786.601 41.5001Z" fill="#1877F2"/>
<path d="M771.884 48.467L772.953 41.5002H766.268V36.9792C766.268 35.0732 767.202 33.2154 770.196 33.2154H773.235V27.2842C773.235 27.2842 770.477 26.8135 767.84 26.8135C762.335 26.8135 758.737 30.15 758.737 36.1904V41.5002H752.617V48.467H758.737V65.3088C759.964 65.5013 761.221 65.6016 762.502 65.6016C763.784 65.6016 765.041 65.5013 766.268 65.3088V48.467H771.884Z" fill="white"/>
</g>
<defs>
<clipPath id="clip0_3302_24077">
<rect width="51.0988" height="51.0988" fill="white" transform="translate(118.953 15.9512)"/>
</clipPath>
<clipPath id="clip1_3302_24077">
<rect width="48.8943" height="48.8943" fill="white" transform="translate(223.055 17.0527)"/>
</clipPath>
<clipPath id="clip2_3302_24077">
<rect width="48.417" height="48.7419" fill="white" transform="translate(326.289 17.1289)"/>
</clipPath>
<clipPath id="clip3_3302_24077">
<rect width="51.7189" height="47.3038" fill="white" transform="translate(530.641 17.8477)"/>
</clipPath>
<clipPath id="clip4_3302_24077">
<rect width="45.8818" height="55.0582" fill="white" transform="translate(636.559 13.9707)"/>
</clipPath>
<clipPath id="clip5_3302_24077">
<rect width="48.2026" height="48.2026" fill="white" transform="translate(738.398 17.3984)"/>
</clipPath>
</defs>
</svg>
