<svg width="139" height="51" viewBox="0 0 139 51" fill="none" xmlns="http://www.w3.org/2000/svg">
<g clip-path="url(#clip0_3499_5496)">
<path d="M24.4601 31.3804V19.2559H22.0117V31.3804H24.4601Z" fill="#D6E4E2"/>
<path d="M33.7746 31.3804H36.223V19.2559H33.7746V27.2182L27.8078 19.2559H25.3594V31.3804H27.8078V23.418L33.7746 31.3804Z" fill="#D6E4E2"/>
<path d="M39.3133 19.2559H36.6836L41.7073 31.3804H44.1557L49.1793 19.2559H46.5497L42.9225 28.1049L39.3133 19.2559Z" fill="#D6E4E2"/>
<path d="M49.6406 19.2559V31.3804H57.5842V29.1183H52.089V26.2591H57.5842V23.9971H52.089V21.5179H57.5842V19.2559H49.6406Z" fill="#D6E4E2"/>
<path d="M57.4844 21.5179H61.692V31.3804H64.1403V21.5179H68.3479V19.2559H57.4844V21.5179Z" fill="#D6E4E2"/>
<path d="M69.2656 19.2559V31.3804H77.2092V29.1183H71.714V26.2591H77.2092V23.9971H71.714V21.5179H77.2092V19.2559H69.2656Z" fill="#D6E4E2"/>
<path d="M78.1172 31.3804H80.5658V26.802H81.6538L84.8639 31.3804H87.7658L84.3561 26.7115C86.2786 26.3677 87.5843 24.9381 87.5843 23.038C87.5843 20.794 85.8433 19.2559 83.4131 19.2559H78.1172V31.3804ZM83.4131 21.5179C84.465 21.5179 85.136 22.1151 85.136 23.038C85.136 23.9428 84.465 24.54 83.4131 24.54H80.5658V21.5179H83.4131Z" fill="#D6E4E2"/>
<path d="M97.6278 31.3804H100.258L95.2338 19.2559H92.7855L87.7617 31.3804H90.3916L91.2983 29.1545H96.7211L97.6278 31.3804ZM92.2233 26.8925L94.0187 22.5313L95.796 26.8925H92.2233Z" fill="#D6E4E2"/>
<path d="M97.2656 21.5179H101.473V31.3804H103.922V21.5179H108.129V19.2559H97.2656V21.5179Z" fill="#D6E4E2"/>
<path d="M109.043 19.2559V31.3804H116.987V29.1183H111.491V26.2591H116.987V23.9971H111.491V21.5179H116.987V19.2559H109.043Z" fill="#D6E4E2"/>
</g>
<defs>
<clipPath id="clip0_3499_5496">
<rect width="95" height="12.144" fill="white" transform="translate(22 19.2559)"/>
</clipPath>
</defs>
</svg>
