<svg width="139" height="51" viewBox="0 0 139 51" fill="none" xmlns="http://www.w3.org/2000/svg">
<g clip-path="url(#clip0_3499_5497)">
<path d="M75.4751 17.9686C75.9013 17.9686 76.3138 17.8031 76.6163 17.5134C76.9188 17.2237 77.0975 16.8098 77.1112 16.396C77.1112 15.9683 76.9325 15.5545 76.63 15.251C76.3276 14.9475 75.9151 14.7682 75.4889 14.7682C75.0626 14.782 74.6639 14.9475 74.3614 15.2648C74.059 15.5683 73.894 15.9821 73.9077 16.396C73.9077 16.8098 74.0727 17.2099 74.3752 17.5134C74.6639 17.7893 75.0626 17.9548 75.4751 17.9686ZM86.5568 19.486H90.489V19.8033C90.269 19.8447 90.0628 19.9137 89.8703 20.024C89.5128 20.1896 88.7979 21.0035 88.2342 22.3692C87.2993 24.7281 86.3231 27.5285 85.2919 30.7289L84.9069 31.9428C84.7419 32.4946 84.5907 32.8533 84.522 33.0602C84.4532 33.2809 84.357 33.612 84.192 34.0121C84.0957 34.3155 83.972 34.619 83.8208 34.8949C83.6283 35.2536 83.2708 35.9847 82.9821 36.2054C82.5283 36.5917 81.8546 37.0193 81.016 36.9504C79.3798 36.9504 78.1562 35.7364 78.1424 34.3017C78.1424 33.3223 78.7611 32.674 79.6961 32.674C80.3698 32.674 80.961 33.0326 80.961 33.7913C80.961 34.3431 80.411 34.9087 80.411 35.1984C80.411 35.9433 80.8372 36.2882 81.6759 36.2882C82.3496 36.2882 82.8996 35.8606 83.312 35.0053C83.862 34.0258 83.917 32.9498 83.4495 31.7497L79.9985 22.6451C79.2011 20.5482 78.6099 19.8585 77.8674 19.7757V19.4584H83.312V19.7757C82.6658 19.8447 82.3359 20.231 82.3359 20.9207C82.3359 21.4173 82.5283 22.1898 82.8858 23.1693L83.532 24.935C84.2745 26.8525 84.8794 28.5217 85.1819 29.5701C85.8831 27.3905 86.5293 25.4868 87.148 23.8176C87.6017 22.5761 87.8217 21.6932 87.8217 21.169C87.8217 20.231 87.313 19.8033 86.5568 19.8033V19.486ZM48.7058 31.1151C48.0046 30.991 47.4134 30.3702 47.4134 29.0597V13.2231L43.4537 14.0784V14.4095C44.1274 14.3405 44.8011 14.9337 44.8011 16.2028V29.0597C44.8011 30.3012 44.1274 31.0186 43.4537 31.1151C43.385 31.1289 43.33 31.1289 43.2612 31.1427C42.9175 31.1703 42.5738 31.1013 42.2575 30.9634C41.7213 30.7289 41.2814 30.315 40.9101 29.708L39.0815 26.7973C38.6966 26.1766 38.1191 25.7075 37.4454 25.4454C36.7717 25.1833 36.0293 25.1419 35.3281 25.3351L37.3904 23.0589C38.944 21.3345 40.3877 20.2447 41.7488 19.7895V19.4722H37.2117V19.7895C38.3803 20.2447 38.3116 21.2518 36.9642 22.8244L34.0769 26.1903V13.2231L30.1172 14.0784V14.4095C30.7909 14.4095 31.4646 15.0717 31.4646 16.2442V29.0459C31.4646 30.4668 30.8046 31.0186 30.1172 31.1151V31.4324H35.3693V31.1151C34.5031 30.991 34.0769 30.3288 34.0769 29.0597V26.7008L35.2043 25.4592L37.9266 29.9288C38.5728 31.0048 39.1778 31.4324 40.1265 31.4324H49.2558V31.1841C49.2695 31.1841 49.0083 31.1703 48.7058 31.1151ZM59.595 29.6115V24.2591C59.54 20.769 58.0689 19.1687 54.7004 19.1687C53.628 19.155 52.583 19.5136 51.7306 20.1758C50.8369 20.8517 50.4107 21.6104 50.4107 22.4933C50.4107 23.3486 50.8919 23.997 51.6756 23.997C52.5143 23.997 53.1193 23.5141 53.1193 22.852C53.1193 22.3554 52.7893 21.6518 52.7893 21.1828C52.7893 20.3275 53.4355 19.5826 54.5629 19.5826C56.0065 19.5826 57.0377 20.6586 57.0377 23.0451V24.4798L55.8416 24.7695C55.2228 24.8936 54.6866 25.0178 54.2879 25.1281C53.8754 25.2523 53.353 25.4178 52.7343 25.6523C51.4831 26.1352 50.8232 26.5904 50.2457 27.4457C49.957 27.8595 49.8195 28.3561 49.8195 28.8528C49.8195 30.8392 51.2081 31.7497 53.1468 31.7497C54.6866 31.7497 56.309 30.9358 57.0515 29.4046C57.0652 29.8874 57.1752 30.3564 57.3952 30.7978C58.2064 32.4394 60.9012 31.4738 60.9012 31.4738V31.1565C59.6913 31.3358 59.595 29.9426 59.595 29.6115ZM57.0377 27.9561C57.0377 28.7424 56.749 29.3908 56.1715 29.846C55.6216 30.3012 55.0441 30.5357 54.4392 30.5357C53.2705 30.5357 52.5005 29.777 52.5005 28.3561C52.5005 27.694 52.8718 27.0732 53.1742 26.7146C53.4217 26.4662 53.6967 26.2593 54.0129 26.1214C54.4254 25.9007 54.6179 25.7903 54.9066 25.6661L56.0065 25.2661C56.5565 25.0454 56.8865 24.935 57.0377 24.866V27.9561ZM109.999 19.486H100.677V13.2231H109.999L108.046 16.3546L109.999 19.486ZM91.039 29.9012C89.8841 28.7148 89.2379 27.1146 89.2654 25.4454C89.2516 24.6315 89.4028 23.8176 89.7053 23.0589C90.0078 22.3002 90.4615 21.6104 91.039 21.0173C92.2214 19.7757 93.6513 19.155 95.3424 19.155C96.9923 19.155 98.4359 19.7757 99.6183 21.0173C100.196 21.5966 100.663 22.2864 100.966 23.0451C101.282 23.8038 101.433 24.6177 101.419 25.4454C101.433 26.2731 101.282 27.087 100.966 27.8457C100.65 28.6045 100.196 29.308 99.6183 29.8874C98.4359 31.1013 97.006 31.7359 95.3424 31.7359C93.665 31.7497 92.2214 31.1289 91.039 29.9012ZM97.501 21.2242C97.0335 20.2999 96.4011 19.7619 95.6724 19.6102C94.1875 19.3067 92.8813 20.8379 92.3864 23.252C92.1801 24.3418 92.1251 25.4454 92.2351 26.5352C92.3451 27.6388 92.6476 28.701 93.1426 29.6943C93.6238 30.6185 94.2425 31.1565 94.9712 31.3083C96.4561 31.6117 97.8035 30.0253 98.2984 27.5836C98.7109 25.542 98.5047 23.0589 97.501 21.2242Z" fill="#D6E4E2"/>
<path d="M76.8637 29.0596V19.486H68.4219V19.7757C69.5493 19.9412 70.0855 20.7965 69.5768 22.1622C66.937 29.3079 67.102 28.9906 66.937 29.5562C66.772 29.0044 66.387 27.6525 65.7683 25.9558C65.1496 24.259 64.7371 23.1416 64.5721 22.6312C63.9259 20.6447 64.1459 19.9136 65.1909 19.7895V19.4722H59.7188V19.7895C60.5299 19.955 61.2586 20.893 61.8498 22.5622L62.6885 24.7418C63.6097 27.087 64.6959 30.3288 65.0534 31.4323H66.8682C67.4594 29.7356 69.7968 22.9485 70.113 22.2587C70.4567 21.4724 70.8417 20.8792 71.2679 20.4654C71.4741 20.2447 71.7216 20.0653 72.0104 19.955C72.2853 19.8446 72.5878 19.7757 72.8903 19.7895C72.8903 19.7895 74.2102 19.7895 74.2102 21.0586V29.0734C74.2102 30.4115 73.564 31.0323 72.8903 31.1289V31.4461H78.1149V31.1289C77.4412 31.0185 76.8637 30.3977 76.8637 29.0596Z" fill="#D6E4E2"/>
</g>
<defs>
<clipPath id="clip0_3499_5497">
<rect width="79.8817" height="23.7272" fill="white" transform="translate(30.1172 13.2231)"/>
</clipPath>
</defs>
</svg>
