<svg width="139" height="51" viewBox="0 0 139 51" fill="none" xmlns="http://www.w3.org/2000/svg">
<path d="M57.4238 26.7053C56.7137 26.3115 56.34 25.9928 56.34 25.5427C56.34 24.9615 56.8445 24.6052 57.648 24.6052C58.5823 24.6052 59.4045 24.999 59.4045 24.999L60.0585 22.9927C60.0585 22.9927 59.4606 22.5239 57.6854 22.5239C55.2189 22.5239 53.4997 23.949 53.4997 25.9365C53.4997 27.0615 54.3032 27.924 55.3683 28.5428C56.2279 29.0303 56.5269 29.3866 56.5269 29.8928C56.5269 30.4366 56.0971 30.8679 55.2936 30.8679C54.0977 30.8679 52.9765 30.2491 52.9765 30.2491L52.2852 32.2554C52.2852 32.2554 53.3316 32.9492 55.0694 32.9492C57.6107 32.9492 59.4232 31.6929 59.4232 29.4428C59.4606 28.2053 58.5263 27.3428 57.4238 26.7053Z" fill="#D6E4E2"/>
<path d="M67.55 22.4864C66.298 22.4864 65.3264 23.0864 64.5602 23.9865L64.5229 23.9677L65.6067 18.2676H62.7664L60.0195 32.7616H62.8411L63.7754 27.8115C64.1491 25.9365 65.1021 24.7927 65.9991 24.7927C66.6344 24.7927 66.8773 25.224 66.8773 25.8427C66.8773 26.2365 66.8399 26.7053 66.7465 27.099L65.6814 32.7804H68.503L69.6055 26.9303C69.7363 26.3115 69.811 25.5802 69.811 25.074C69.8484 23.4427 69.0262 22.4864 67.55 22.4864Z" fill="#D6E4E2"/>
<path d="M76.24 22.4868C72.8391 22.4868 70.5781 25.5619 70.5781 28.9932C70.5781 31.187 71.9235 32.9683 74.4648 32.9683C77.8096 32.9683 80.0519 29.9682 80.0519 26.4619C80.0706 24.4181 78.8934 22.4868 76.24 22.4868ZM74.8572 30.7745C73.8856 30.7745 73.4931 29.9495 73.4931 28.9182C73.4931 27.2869 74.334 24.6431 75.8663 24.6431C76.8753 24.6431 77.193 25.5056 77.193 26.3494C77.193 28.1119 76.3521 30.7745 74.8572 30.7745Z" fill="#D6E4E2"/>
<path d="M87.3065 22.4868C85.4006 22.4868 84.3168 24.1744 84.3168 24.1744H84.2794L84.4476 22.6556H81.9436C81.8128 23.6868 81.5886 25.2431 81.3644 26.4244L79.4023 36.7746H82.2239L83.0087 32.5745H83.0648C83.0648 32.5745 83.6441 32.9495 84.7279 32.9495C88.054 32.9495 90.2216 29.537 90.2216 26.0869C90.2216 24.1931 89.3807 22.4868 87.3065 22.4868ZM84.6157 30.8307C83.887 30.8307 83.4572 30.4182 83.4572 30.4182L83.9244 27.7744C84.2607 26.0119 85.1763 24.8306 86.148 24.8306C87.0076 24.8306 87.2692 25.6369 87.2692 26.3869C87.2692 28.2057 86.1854 30.8307 84.6157 30.8307Z" fill="#D6E4E2"/>
<path d="M94.2507 18.418C93.3538 18.418 92.625 19.1305 92.625 20.068C92.625 20.9118 93.1482 21.493 93.9517 21.493H93.9891C94.8673 21.493 95.6335 20.893 95.6521 19.843C95.6708 18.9992 95.1102 18.418 94.2507 18.418Z" fill="#D6E4E2"/>
<path d="M90.2891 32.7616H93.1293L95.054 22.7114H92.195L90.2891 32.7616Z" fill="#D6E4E2"/>
<path d="M102.23 22.6927H100.268L100.362 22.2239C100.53 21.2489 101.091 20.3864 102.043 20.3864C102.548 20.3864 102.94 20.5364 102.94 20.5364L103.501 18.3238C103.501 18.3238 103.015 18.0801 101.969 18.0801C100.96 18.0801 99.9693 18.3613 99.2032 19.0176C98.2315 19.8426 97.7831 21.0239 97.5588 22.2239L97.4841 22.6927H96.1761L95.765 24.8302H97.073L95.5781 32.7616H98.3997L99.8946 24.8302H101.838L102.23 22.6927Z" fill="#D6E4E2"/>
<path d="M109.029 22.7114C109.029 22.7114 107.254 27.174 106.469 29.6116H106.432C106.376 28.8241 105.74 22.7114 105.74 22.7114H102.769L104.47 31.9366C104.507 32.1429 104.488 32.2741 104.414 32.4054C104.077 33.0429 103.535 33.6617 102.881 34.1117C102.358 34.5054 101.76 34.7492 101.293 34.9179L102.078 37.318C102.657 37.1867 103.834 36.718 104.843 35.7805C106.133 34.5617 107.329 32.7054 108.543 30.1553L112 22.7114H109.029Z" fill="#D6E4E2"/>
<path d="M42.5422 16.1864C42.5422 16.1864 42.2806 16.2614 41.8508 16.3926C41.7761 16.1489 41.6639 15.8676 41.5145 15.5676C41.0286 14.6301 40.2999 14.1238 39.4403 14.1238C39.3842 14.1238 39.3282 14.1238 39.2534 14.1426C39.2348 14.1051 39.1974 14.0863 39.1787 14.0488C38.805 13.6363 38.3191 13.4488 37.7399 13.4676C36.6187 13.5051 35.4976 14.3114 34.6006 15.7551C33.9653 16.7677 33.4795 18.0427 33.3487 19.0365C32.0593 19.4302 31.1624 19.7115 31.1437 19.7302C30.4897 19.9365 30.471 19.9552 30.3963 20.574C30.3402 21.0428 28.6211 34.243 28.6211 34.243L42.7477 36.6993V16.1676C42.6356 16.1676 42.5796 16.1864 42.5422 16.1864ZM39.2721 17.1989C38.5247 17.4239 37.7025 17.6864 36.899 17.9302C37.1232 17.0489 37.5717 16.1676 38.0949 15.5864C38.3005 15.3801 38.5807 15.1364 38.8984 14.9864C39.2161 15.6614 39.2908 16.5802 39.2721 17.1989ZM37.7399 14.2364C38.0015 14.2364 38.2257 14.2926 38.4126 14.4051C38.1136 14.5551 37.8146 14.7989 37.5343 15.0801C36.8243 15.8489 36.2824 17.0489 36.0581 18.1927C35.3854 18.3989 34.7127 18.6052 34.0961 18.7927C34.5072 16.9927 36.0208 14.2739 37.7399 14.2364ZM35.5723 24.5491C35.647 25.7491 38.805 26.0116 38.9918 28.8429C39.1226 31.0742 37.8146 32.593 35.9273 32.7055C33.6476 32.8555 32.3957 31.5055 32.3957 31.5055L32.8815 29.4429C32.8815 29.4429 34.1335 30.3992 35.1425 30.3242C35.7965 30.2867 36.0394 29.7429 36.0208 29.3679C35.9273 27.7929 33.3487 27.8867 33.1805 25.2991C33.031 23.124 34.4511 20.9302 37.5904 20.724C38.805 20.649 39.4216 20.949 39.4216 20.949L38.7115 23.6491C38.7115 23.6491 37.908 23.2741 36.9551 23.3491C35.5723 23.4428 35.5536 24.3241 35.5723 24.5491ZM40.0196 16.9739C40.0196 16.4114 39.9448 15.6051 39.6832 14.9301C40.5428 15.0989 40.9539 16.0551 41.1407 16.6364C40.8044 16.7302 40.4307 16.8427 40.0196 16.9739Z" fill="#D6E4E2"/>
<path d="M43.1758 36.6618L49.0432 35.1992C49.0432 35.1992 46.5206 18.0801 46.5019 17.9676C46.4832 17.8551 46.3898 17.7801 46.2963 17.7801C46.2029 17.7801 44.5585 17.7426 44.5585 17.7426C44.5585 17.7426 43.5495 16.7676 43.1758 16.3926V36.6618Z" fill="#D6E4E2"/>
</svg>
