<svg width="139" height="51" viewBox="0 0 139 51" fill="none" xmlns="http://www.w3.org/2000/svg">
<g clip-path="url(#clip0_3499_5501)">
<path d="M91.6751 22.7604C92.5929 23.7706 93.0526 25.1438 93.0526 26.8813V27.4828C93.0526 27.6465 92.9926 27.7874 92.8743 27.906C92.7555 28.0252 92.6151 28.0842 92.453 28.0842H84.8131V28.2184C84.8426 29.198 85.1429 29.9665 85.7125 30.5234C86.2821 31.0802 87.0189 31.3587 87.9221 31.3587C88.6622 31.3587 89.2362 31.2623 89.6432 31.0697C90.0501 30.8764 90.4171 30.6013 90.7424 30.2449C90.8607 30.1263 90.9684 30.0444 91.065 29.9999C91.1605 29.9559 91.2904 29.9336 91.4531 29.9336H92.1193C92.297 29.9336 92.4452 29.9926 92.5634 30.1113C92.6822 30.2304 92.7333 30.3713 92.7189 30.535C92.66 30.9355 92.4413 31.3481 92.0638 31.7708C91.6868 32.194 91.1455 32.5504 90.4427 32.84C89.7392 33.1296 88.8993 33.2749 87.9221 33.2749C86.9744 33.2749 86.1306 33.055 85.3905 32.6172C84.6505 32.1795 84.0614 31.5742 83.625 30.8018C83.1881 30.03 82.9255 29.1612 82.8367 28.1961C82.8067 27.7506 82.7923 27.4087 82.7923 27.1715C82.7923 26.9337 82.8067 26.5923 82.8367 26.1462C82.9255 25.2263 83.1881 24.3943 83.625 23.6514C84.0614 22.9091 84.6466 22.3227 85.3794 21.8916C86.1128 21.4611 86.9595 21.2456 87.9221 21.2456C89.5061 21.2456 90.7574 21.7507 91.6751 22.7604ZM91.0534 26.2131V26.1462C91.0534 25.2407 90.768 24.5168 90.1984 23.9744C89.6288 23.4325 88.8693 23.1619 87.9221 23.1619C87.0633 23.1619 86.3343 23.4364 85.7347 23.9855C85.1351 24.5352 84.8276 25.2552 84.8131 26.1462V26.2131H91.0534ZM98.1725 30.2778C98.297 30.4024 98.3596 30.5509 98.3596 30.7223V32.289C98.3596 32.4609 98.297 32.6088 98.1725 32.7334C98.0474 32.8586 97.8995 32.9211 97.7281 32.9211H96.1612C95.9899 32.9211 95.8414 32.8586 95.7169 32.7334C95.5917 32.6088 95.5292 32.4609 95.5292 32.289V30.7223C95.5292 30.5509 95.5917 30.4024 95.7169 30.2778C95.8414 30.1527 95.9899 30.0907 96.1612 30.0907H97.7281C97.8995 30.0907 98.0474 30.1527 98.1725 30.2778ZM117.111 27.2823C117.111 27.6387 117.096 27.9806 117.067 28.3075C116.933 29.8217 116.41 31.0285 115.498 31.9273C114.586 32.8255 113.351 33.2749 111.792 33.2749C110.235 33.2749 109 32.8255 108.088 31.9273C107.176 31.0285 106.653 29.8217 106.519 28.3075C106.504 28.1438 106.497 27.8024 106.497 27.2823C106.497 26.7332 106.504 26.3768 106.519 26.2131C106.638 24.6983 107.157 23.4921 108.077 22.5933C108.996 21.695 110.235 21.2456 111.792 21.2456C113.351 21.2456 114.589 21.695 115.509 22.5933C116.429 23.4921 116.948 24.6983 117.067 26.2131C117.096 26.5399 117.111 26.8964 117.111 27.2823ZM114.096 24.0301C113.554 23.4509 112.787 23.1613 111.792 23.1613C110.799 23.1613 110.031 23.4509 109.49 24.0301C108.948 24.6092 108.633 25.3744 108.544 26.3244C108.529 26.5026 108.521 26.8223 108.521 27.2823C108.521 27.7283 108.529 28.0324 108.544 28.1956C108.633 29.1467 108.948 29.9113 109.49 30.4905C110.031 31.0697 110.799 31.3587 111.792 31.3587C112.787 31.3587 113.554 31.0697 114.096 30.4905C114.637 29.9113 114.953 29.1467 115.042 28.1956C115.071 27.8692 115.086 27.5646 115.086 27.2823C115.086 27.0005 115.071 26.6808 115.042 26.3244C114.953 25.3744 114.637 24.6092 114.096 24.0301ZM103.265 32.7417C103.146 32.8617 103.005 32.9211 102.841 32.9211H102.016C101.852 32.9211 101.711 32.8617 101.592 32.7417C101.473 32.6223 101.414 32.4805 101.414 32.3157V21.8666C101.414 21.7023 101.473 21.5599 101.592 21.44C101.711 21.3206 101.852 21.2611 102.016 21.2611H102.841C103.005 21.2611 103.146 21.3206 103.265 21.44C103.384 21.5599 103.443 21.7023 103.443 21.8666V32.3157C103.443 32.4805 103.384 32.6223 103.265 32.7417ZM103.064 19.4891H101.792C101.629 19.4891 101.487 19.4297 101.369 19.3097C101.25 19.1903 101.19 19.0484 101.19 18.8836V17.6055C101.19 17.4412 101.25 17.2994 101.369 17.1794C101.487 17.06 101.629 17 101.792 17H103.064C103.228 17 103.369 17.06 103.488 17.1794C103.607 17.2994 103.667 17.4412 103.667 17.6055V18.8836C103.667 19.0484 103.607 19.1903 103.488 19.3097C103.369 19.4297 103.228 19.4891 103.064 19.4891ZM79.7758 32.7417C79.6509 32.8617 79.5033 32.9211 79.3318 32.9211H78.4691C78.2975 32.9211 78.15 32.8617 78.0257 32.7417C77.9009 32.6223 77.839 32.4805 77.839 32.3157V17.6055C77.839 17.4412 77.9009 17.2994 78.0257 17.1794C78.15 17.06 78.2975 17 78.4691 17H79.3318C79.5033 17 79.6509 17.06 79.7758 17.1794C79.9 17.2994 79.9619 17.4412 79.9619 17.6055V32.3157C79.9619 32.4805 79.9 32.6223 79.7758 32.7417ZM40.5645 24.5869C40.5645 23.9783 40.7319 23.4214 41.0672 22.9163C41.402 22.4118 41.9014 22.0069 42.5641 21.7023C43.2269 21.3982 44.0382 21.2456 44.998 21.2456C45.9424 21.2456 46.7577 21.3793 47.4433 21.6466C48.1289 21.9139 48.6505 22.248 49.0088 22.6495C49.3664 23.0499 49.5458 23.4364 49.5458 23.8079C49.5458 23.956 49.4847 24.0863 49.3624 24.1971C49.2413 24.3085 49.0962 24.3648 48.9288 24.3648H48.1746C47.885 24.3648 47.6564 24.2606 47.489 24.0523C47.0165 23.4587 46.1864 23.1613 44.998 23.1613C44.297 23.1613 43.7297 23.2877 43.2954 23.54C42.8612 23.7928 42.6441 24.1414 42.6441 24.5869C42.6441 24.9584 42.7504 25.2407 42.9641 25.434C43.1772 25.6267 43.4971 25.7826 43.9239 25.9012C44.3501 26.0204 45.1043 26.1986 46.1864 26.4358C47.5273 26.7182 48.4791 27.1492 49.043 27.7283C49.6064 28.3075 49.8886 29.0125 49.8886 29.844C49.8886 30.4532 49.6938 31.0173 49.3059 31.5369C48.9173 32.057 48.3609 32.4764 47.6376 32.7954C46.9137 33.1145 46.0721 33.2749 45.1123 33.2749C44.1673 33.2749 43.3331 33.1296 42.6098 32.84C41.886 32.5504 41.3261 32.1979 40.9301 31.7819C40.5336 31.3665 40.3359 30.9728 40.3359 30.6013C40.3359 30.4532 40.3965 30.3229 40.5188 30.2121C40.6405 30.1001 40.785 30.0444 40.953 30.0444H41.7757C41.9122 30.0444 42.0345 30.0595 42.1413 30.089C42.2476 30.1191 42.347 30.2004 42.4384 30.334C42.9412 31.0173 43.8325 31.3587 45.1123 31.3587C45.8282 31.3587 46.4566 31.2139 46.9977 30.9243C47.5382 30.6347 47.809 30.275 47.809 29.844C47.809 29.4875 47.6753 29.2019 47.4085 28.9863C47.1422 28.7714 46.7577 28.5932 46.2549 28.4517C45.7522 28.3108 44.9672 28.1287 43.9011 27.906C41.6763 27.446 40.5645 26.3395 40.5645 24.5869ZM55.9555 21.3117C56.4019 21.032 56.9967 20.8918 57.7411 20.8918C59.4821 20.8918 60.7025 21.55 61.4017 22.8665C61.833 22.2309 62.3241 21.743 62.8748 21.4025C63.4256 21.0621 64.1477 20.8918 65.0399 20.8918C66.4986 20.8918 67.5805 21.3384 68.2881 22.2309C68.994 23.1235 69.3478 24.3871 69.3478 26.0213V32.3083C69.3478 32.4751 69.2886 32.6187 69.1698 32.7396C69.0503 32.861 68.9086 32.9211 68.7451 32.9211H67.9193C67.7552 32.9211 67.6146 32.861 67.4957 32.7396C67.3763 32.6187 67.3166 32.4751 67.3166 32.3083V26.2483C67.3166 23.9786 66.4383 22.8438 64.6834 22.8438C63.8793 22.8438 63.2398 23.1161 62.7632 23.6608C62.2873 24.2056 62.049 25.0147 62.049 26.0894V32.3083C62.049 32.4751 61.9893 32.6187 61.871 32.7396C61.7516 32.861 61.6104 32.9211 61.4463 32.9211H60.6205C60.4564 32.9211 60.3152 32.861 60.1969 32.7396C60.0775 32.6187 60.0178 32.4751 60.0178 32.3083V26.2483C60.0178 23.9786 59.1395 22.8438 57.3846 22.8438C56.5805 22.8438 55.941 23.1161 55.4644 23.6608C54.9885 24.2056 54.7502 25.0147 54.7502 26.0894V32.3083C54.7502 32.4751 54.6905 32.6187 54.5722 32.7396C54.4528 32.861 54.3116 32.9211 54.1475 32.9211H53.3217C53.1576 32.9211 53.0165 32.861 52.8982 32.7396C52.7787 32.6187 52.719 32.4751 52.719 32.3083V21.7316C52.719 21.5654 52.7787 21.4212 52.8982 21.2998C53.0165 21.1795 53.1576 21.1188 53.3217 21.1188H54.1475C54.3116 21.1188 54.4528 21.1795 54.5722 21.2998C54.6905 21.4212 54.7502 21.5654 54.7502 21.7316V22.4346C55.1073 21.966 55.5091 21.592 55.9555 21.3117ZM74.2533 32.7417C74.1339 32.8617 73.9929 32.9211 73.8289 32.9211H73.0041C72.8401 32.9211 72.6991 32.8617 72.5803 32.7417C72.4609 32.6223 72.4018 32.4805 72.4018 32.3157V21.8666C72.4018 21.7023 72.4609 21.5599 72.5803 21.44C72.6991 21.3206 72.8401 21.2611 73.0041 21.2611H73.8289C73.9929 21.2611 74.1339 21.3206 74.2533 21.44C74.3721 21.5599 74.4312 21.7023 74.4312 21.8666V32.3157C74.4312 32.4805 74.3721 32.6223 74.2533 32.7417ZM74.4758 19.3097C74.357 19.4297 74.2159 19.4891 74.0525 19.4891H72.7805C72.6171 19.4891 72.4754 19.4297 72.3572 19.3097C72.2379 19.1903 72.1782 19.0484 72.1782 18.8836V17.6055C72.1782 17.4412 72.2379 17.2994 72.3572 17.1794C72.4754 17.06 72.6171 17 72.7805 17H74.0525C74.2159 17 74.357 17.06 74.4758 17.1794C74.5951 17.2994 74.6548 17.4412 74.6548 17.6055V18.8836C74.6548 19.0484 74.5951 19.1903 74.4758 19.3097Z" fill="#D6E4E2"/>
<path d="M33.6141 24.3146C33.6141 24.3066 33.6135 24.3003 33.6135 24.2923H33.6052C33.5952 24.1454 33.5434 24.0149 33.4366 23.9044C33.3176 23.783 33.1768 23.7227 33.0133 23.7227H32.19C32.0264 23.7227 31.8862 23.783 31.7677 23.9044C31.6598 24.0149 31.6086 24.1454 31.5981 24.2923H31.5886C31.5886 24.2992 31.5892 24.3077 31.5892 24.3146C31.5892 24.6034 31.5742 24.915 31.5447 25.2494C31.4557 26.2219 31.1402 27.004 30.599 27.5965C30.0571 28.189 29.29 28.4846 28.2954 28.4846C27.3018 28.4846 26.5341 28.189 25.9929 27.5965C25.451 27.004 25.1362 26.2219 25.0472 25.2494C25.0321 25.0825 25.0249 24.7709 25.0249 24.3146V24.2923H25.016C25.0054 24.1454 24.9543 24.0149 24.8469 23.9044C24.7278 23.783 24.5871 23.7227 24.4236 23.7227H23.6008C23.4372 23.7227 23.2965 23.783 23.178 23.9044C23.0706 24.0149 23.0189 24.1454 23.0089 24.2923H23V24.3146V24.3373V24.3379V24.7025C23 24.7059 23.0017 24.7082 23.0017 24.7116C23.005 25.0227 23.0111 25.242 23.0223 25.3633C23.1558 26.9129 23.6787 28.1474 24.591 29.0663C25.5033 29.9852 26.7383 30.4449 28.2954 30.4449C29.8535 30.4449 31.0885 29.9852 32.0008 29.0663C32.9132 28.1474 33.4361 26.9129 33.5696 25.3633C33.5846 25.1879 33.5852 24.997 33.5929 24.8142C33.5996 24.7771 33.6141 24.7424 33.6141 24.7025V24.3379C33.6141 24.3362 33.613 24.3351 33.613 24.3334C33.613 24.3265 33.6141 24.3214 33.6141 24.3146Z" fill="#D6E4E2"/>
</g>
<defs>
<clipPath id="clip0_3499_5501">
<rect width="94.2969" height="16.316" fill="white" transform="translate(23 17)"/>
</clipPath>
</defs>
</svg>
