<svg width="118" height="31" viewBox="0 0 118 31" fill="none" xmlns="http://www.w3.org/2000/svg">
<g clip-path="url(#clip0_2666_6606)">
<path d="M39.2643 8.52028H38.6871C37.7731 10.0596 36.5225 11.3824 35.0312 12.128V12.561H36.5946V20.8107C36.5946 23.4323 37.9896 24.4184 39.8175 24.4184C41.4049 24.4184 42.5354 23.5526 43.2329 22.5184L42.9683 22.1576C42.343 22.6146 41.8379 22.831 41.1163 22.831C39.8656 22.831 39.2643 22.1576 39.2643 20.5221V12.561H42.5594V11.5748H39.2643V8.52028Z" fill="white"/>
<path d="M48.4947 22.7829C47.1478 22.7829 46.4984 21.893 46.4984 20.5942C46.4984 19.2954 47.1478 18.6701 48.2783 18.2372L50.8037 17.2029V21.7246C49.9619 22.3981 49.3365 22.7829 48.4947 22.7829ZM53.4975 15.1345C53.4975 12.4888 51.9822 11.3343 49.096 11.3343C46.5706 11.3343 44.5984 12.3685 44.5984 14.2686C44.5984 14.9902 44.9832 15.4712 45.6085 15.6636L47.1959 15.4472C47.0757 14.9421 47.0035 14.5332 47.0035 14.1003C47.0035 12.8977 47.5327 12.0078 48.8074 12.0078C50.2505 12.0078 50.8037 13.1142 50.8037 14.6294V16.4573L47.2681 17.7561C45.3921 18.4536 43.9009 19.2954 43.9009 21.3398C43.9009 23.1918 45.1275 24.3944 47.0516 24.3944C48.7353 24.3944 50.034 23.264 50.8518 22.2778C51.0442 23.6007 51.7898 24.4184 53.0405 24.4184C54.0507 24.4184 54.9165 23.9855 55.5419 23.1437L55.3976 22.7108C55.0849 22.8551 54.7482 22.9753 54.3633 22.9753C53.6899 22.9753 53.4975 22.4703 53.4975 21.5082V15.1345Z" fill="white"/>
<path d="M65.2554 22.35C65.2554 23.2399 64.8705 23.4083 63.668 23.4804V24.1779H69.5366V23.4804C68.334 23.4083 67.9492 23.2399 67.9492 22.35V15.2066C67.9492 12.6091 66.8428 11.3343 64.606 11.3343C62.6818 11.3343 61.2868 12.4167 60.2045 13.6433L60.3007 11.3343H59.8918L55.9955 12.585V12.9217L57.5107 13.7635V22.35C57.5107 23.2399 57.1259 23.4083 55.9233 23.4804V24.1779H61.7679V23.4804C60.5893 23.4083 60.2045 23.2399 60.2045 22.35V14.2446C61.0463 13.5711 62.1046 12.9939 63.235 12.9939C64.606 12.9939 65.2554 13.7154 65.2554 15.3269V22.35Z" fill="white"/>
<path d="M76.166 12.1761C77.7053 12.1761 78.7155 13.4028 78.7155 15.4712V21.6284C78.0901 22.2778 77.2724 22.6146 76.2622 22.6146C73.8811 22.6146 72.6064 20.3537 72.6064 17.4194C72.6064 14.2686 73.9773 12.1761 76.166 12.1761ZM78.7155 7.70252V12.2483C78.1142 11.6951 77.1762 11.3584 75.9976 11.3584C72.6064 11.3584 70.0088 14.0281 70.0088 18.4777C70.0088 21.9892 71.9089 24.4184 74.8432 24.4184C76.5508 24.4184 77.7534 23.5045 78.7155 22.1816L78.6193 24.4184H79.1003L83.0929 23.5526V22.9272L82.4675 22.8791C81.4574 22.7829 81.4093 22.5665 81.4093 21.7487V5.34546H81.0244L77.2002 6.52399V6.88477L78.7155 7.70252Z" fill="white"/>
<path d="M90.576 21.436L87.4733 13.7395C87.3771 13.4509 87.329 13.2585 87.329 13.066C87.329 12.5129 87.7619 12.4167 88.9885 12.2723V11.5748H83.1199V12.2723C83.9858 12.4888 84.1301 12.6572 84.3466 13.1623L89.3253 24.5627L88.8923 25.7172C88.3391 27.2084 87.5214 27.5692 86.2226 27.5692C85.5492 27.5692 85.1884 27.473 84.7314 27.3527V28.2908C84.9479 29.0123 85.7416 29.4452 86.5112 29.4452C88.0265 29.4452 88.7721 28.411 89.4936 26.5831L94.6888 13.1623C94.8812 12.6812 95.0496 12.4888 95.9154 12.2723V11.5748H91.9228V12.2723C93.1495 12.4167 93.5824 12.5129 93.5824 13.066C93.5824 13.2585 93.5343 13.4509 93.4381 13.7395L90.576 21.436Z" fill="white"/>
<path d="M112.848 22.35C112.848 23.2399 112.511 23.4083 111.308 23.4804V24.1779H117.129V23.4804C115.926 23.4083 115.541 23.2399 115.541 22.35V15.2307C115.541 12.6572 114.555 11.3343 112.367 11.3343C110.442 11.3343 109.072 12.4648 107.989 13.7154C107.652 12.0799 106.69 11.3343 104.959 11.3343C103.01 11.3343 101.784 12.3926 100.702 13.6433L100.798 11.3343H100.389L96.4925 12.585V12.9217L98.0077 13.7635V22.35C98.0077 23.2399 97.6229 23.4083 96.4203 23.4804V24.1779H102.265V23.4804C101.062 23.4083 100.702 23.2399 100.702 22.35V14.2446C101.543 13.5711 102.433 12.9939 103.54 12.9939C104.887 12.9939 105.44 13.7395 105.44 15.3269V22.35C105.44 23.2399 105.079 23.4083 103.876 23.4804V24.1779H109.673V23.4804C108.47 23.4083 108.133 23.2399 108.133 22.35V14.2446C108.975 13.5711 109.865 12.9939 110.972 12.9939C112.318 12.9939 112.848 13.7395 112.848 15.3269V22.35Z" fill="white"/>
<path fill-rule="evenodd" clip-rule="evenodd" d="M2.94967 7.66066L2.94999 17.8661L18.5688 26.8843L18.5687 25.0646L20.9987 26.4677L20.9989 29.49C20.9989 30.3755 20.3773 30.7345 19.6103 30.2917L1.90863 20.0708C1.14174 19.628 0.520012 18.5512 0.519984 17.6656L0.519582 5.05498C0.519554 4.16942 1.14123 3.8105 1.90813 4.2533L19.6099 14.4741C20.3767 14.9169 20.9985 15.9938 20.9985 16.8793L20.9986 19.5305L18.5686 18.1275L18.5685 16.6789L2.94967 7.66066Z" fill="white"/>
<path fill-rule="evenodd" clip-rule="evenodd" d="M6.39075 1.83008C6.3907 0.944501 7.01238 0.585559 7.77929 1.02837L25.481 11.2492C26.2479 11.692 26.8696 12.7689 26.8697 13.6544L26.8701 26.2651C26.8701 27.1506 26.2484 27.5095 25.4815 27.0667L7.77979 16.8459C7.0129 16.4031 6.39119 15.3263 6.39114 14.4407L6.39098 11.4756L8.82103 12.8786L8.82112 14.6412L24.44 23.6594L24.4396 13.4539L8.82086 4.43574L8.82096 6.37223L6.39091 4.9692L6.39075 1.83008Z" fill="white"/>
</g>
<defs>
<clipPath id="clip0_2666_6606">
<rect width="116.651" height="29.6637" fill="white" transform="translate(0.519531 0.838745)"/>
</clipPath>
</defs>
</svg>
