<svg width="51" height="58" viewBox="0 0 51 58" fill="none" xmlns="http://www.w3.org/2000/svg">
<path fill-rule="evenodd" clip-rule="evenodd" d="M4.70309 13.9687L4.70372 33.1452L34.931 50.0907L34.9309 46.6714L39.6338 49.3078L39.6341 54.9868C39.6342 56.6508 38.431 57.3253 36.9468 56.4932L2.68836 37.2879C1.20417 36.4558 0.000930304 34.4324 0.000875743 32.7684L9.87898e-05 9.07251C4.42296e-05 7.4085 1.20318 6.73408 2.68738 7.56612L36.9458 26.7715C38.43 27.6035 39.6332 29.6269 39.6333 31.2909L39.6336 36.2726L34.9307 33.6363L34.9305 30.9143L4.70309 13.9687Z" fill="#EEF5F4"/>
<path fill-rule="evenodd" clip-rule="evenodd" d="M11.3655 3.01308C11.3654 1.34904 12.5685 0.674569 14.0527 1.50663L48.3112 20.712C49.7954 21.544 50.9986 23.5675 50.9987 25.2315L50.9994 48.9274C50.9995 50.5914 49.7963 51.2658 48.3121 50.4338L14.0537 31.2284C12.5695 30.3964 11.3663 28.373 11.3662 26.709L11.3659 21.1373L16.0688 23.7737L16.069 27.0856L46.2964 44.0312L46.2958 24.8547L16.0685 7.90921L16.0687 11.548L11.3658 8.9116L11.3655 3.01308Z" fill="#EEF5F4"/>
</svg>
