<svg width="139" height="51" viewBox="0 0 139 51" fill="none" xmlns="http://www.w3.org/2000/svg">
<g clip-path="url(#clip0_3499_5495)">
<path fill-rule="evenodd" clip-rule="evenodd" d="M38.9285 18.7162L41.4842 25.8328L44.1868 18.7162H48.0056L41.4842 35.1936H37.6948L39.6336 30.085L34.9922 18.7162H38.9285ZM79.2908 18.4505C82.7277 18.4505 85.254 21.1376 85.254 24.8288C85.254 28.52 82.7277 31.2071 79.2908 31.2071C78.0276 31.2071 76.9407 30.8823 76.1182 30.2031L76.0594 30.1736L76.0007 30.1441V35.1936H72.3287V18.7162H75.5894V19.9564L75.6188 19.9269C76.412 19.0115 77.6457 18.5095 79.1439 18.48H79.232L79.2908 18.4505ZM54.7033 18.4505C58.4928 18.4505 61.1953 21.0786 61.1953 24.8288C61.1953 28.5495 58.4928 31.2071 54.7033 31.2071C50.8845 31.2071 48.1819 28.5495 48.1819 24.8288C48.2113 21.0786 50.8845 18.4505 54.7033 18.4505ZM67.3349 15.9995V18.7162H70.3606V21.9054H67.3349V26.3053C67.3349 27.2797 67.8049 27.8408 68.6861 27.8703H68.7155H68.7449C69.3324 27.8703 69.773 27.7227 70.1843 27.3388L70.2137 27.3093L70.3018 27.2207H70.3312V30.7347L70.2137 30.7937C69.5968 31.089 69.2443 31.2071 68.1868 31.2071C65.2786 31.2071 63.6629 29.6126 63.6041 26.6301V26.5415V26.4529V21.9054H62.2822V18.7162H63.7216V15.9995H67.3349ZM93.2736 18.4505C97.0631 18.4505 99.7657 21.0786 99.7657 24.8288C99.7657 28.5495 97.0631 31.2071 93.2736 31.2071C89.4548 31.2071 86.7522 28.5495 86.7522 24.8288C86.7816 21.0786 89.4548 18.4505 93.2736 18.4505ZM102.791 27.1616C103.908 27.1616 104.818 28.077 104.818 29.1991C104.818 30.3213 103.908 31.2367 102.791 31.2367C101.675 31.2367 100.764 30.3213 100.764 29.1991C100.764 28.077 101.675 27.1616 102.791 27.1616ZM78.7326 21.7873C77.0876 21.7873 75.9419 23.0275 75.9419 24.8288C75.9419 26.6596 77.0582 27.8703 78.7326 27.8703C80.407 27.8703 81.5527 26.6301 81.5527 24.8288C81.5233 22.998 80.407 21.7873 78.7326 21.7873ZM54.7033 21.7873C53.0289 21.7873 51.8832 23.0275 51.8832 24.8288C51.8832 26.6301 53.0289 27.8703 54.7033 27.8703C56.3483 27.8703 57.494 26.6301 57.494 24.8288C57.494 23.0275 56.3483 21.7873 54.7033 21.7873ZM93.2736 21.7873C91.5992 21.7873 90.4535 23.0275 90.4535 24.8288C90.4535 26.6301 91.5992 27.8703 93.2736 27.8703C94.9187 27.8703 96.0643 26.6301 96.0643 24.8288C96.0643 23.0275 94.9187 21.7873 93.2736 21.7873Z" fill="#D6E4E2"/>
</g>
<defs>
<clipPath id="clip0_3499_5495">
<rect width="69.7967" height="19.1941" fill="white" transform="translate(35 16)"/>
</clipPath>
</defs>
</svg>
